# Blender v2.75 (sub 0) OBJ File: ''
# www.blender.org
o Cube.018_Cube.025
v -0.075000 0.459745 -0.144723
v -0.142500 0.442616 -0.130133
v -0.141075 0.538345 -0.040240
v 0.142500 0.362684 -0.062046
v 0.075000 0.345555 -0.047456
v 0.075000 0.339167 -0.056335
v -0.074250 0.442254 0.041610
v -0.141075 0.459212 0.027166
v -0.142500 0.362684 -0.062046
v 0.000000 0.525017 -0.028887
v 0.000000 0.587059 0.120477
v 0.057757 0.616060 0.109678
v 0.000000 0.360690 -0.060348
v 0.074250 0.442254 0.041610
v 0.000000 0.429154 -0.118665
v 0.075000 0.459745 -0.144723
v -0.075000 0.345555 -0.047456
v -0.074250 0.555302 -0.054684
v -0.109739 0.599822 0.115725
v -0.075000 0.364119 -0.204245
v -0.142500 0.360377 -0.182059
v 0.142500 0.442616 -0.130133
v 0.141075 0.538345 -0.040240
v 0.141075 0.459212 0.027166
v -0.057757 0.616060 0.109678
v 0.000000 0.342474 -0.075939
v -0.109739 0.524044 0.143943
v 0.074250 0.555302 -0.054684
v -0.075000 0.339167 -0.056335
v 0.000000 0.357435 -0.164621
v 0.075000 0.364119 -0.204245
v -0.142500 0.342910 -0.078522
v 0.142500 0.360377 -0.182059
v 0.142500 0.342910 -0.078522
v -0.044429 0.625098 0.224643
v 0.044429 0.625098 0.224643
v 0.084415 0.611924 0.226665
v 0.000000 0.522154 0.144647
v 0.000000 0.548910 0.236338
v -0.044429 0.537269 0.238124
v 0.109739 0.524044 0.143943
v 0.109739 0.599822 0.115725
v 0.000000 0.457238 0.028847
v 0.057757 0.507807 0.149989
v -0.057757 0.507807 0.149989
v -0.034210 0.533560 0.337373
v -0.064999 0.543625 0.339379
v 0.000000 0.601569 0.228255
v -0.034210 0.600660 0.350749
v 0.034210 0.600660 0.350749
v 0.064999 0.590595 0.348742
v 0.000000 0.542453 0.339146
v -0.084415 0.550443 0.236102
v 0.044429 0.537269 0.238124
v -0.084415 0.611924 0.226665
v 0.084415 0.550443 0.236102
v 0.034210 0.533560 0.337373
v 0.025599 0.504839 0.393564
v -0.025599 0.504839 0.393564
v -0.048638 0.510978 0.398179
v 0.000000 0.582684 0.347166
v -0.025599 0.545763 0.424330
v 0.025599 0.545763 0.424330
v 0.048638 0.539624 0.419715
v -0.064999 0.590595 0.348742
v 0.064999 0.543625 0.339379
v -0.016213 0.456190 0.436080
v -0.016213 0.462012 0.446512
v -0.048638 0.539624 0.419715
v 0.000000 0.510263 0.397642
v 0.008533 0.454943 0.433845
v -0.008533 0.454943 0.433845
v 0.000000 0.534800 0.416088
v 0.048638 0.510978 0.398179
v 0.000000 0.461031 0.444755
v -0.008533 0.463259 0.448748
v 0.000000 0.456045 0.435820
v 0.016213 0.453571 0.431386
v 0.016213 0.464631 0.451207
v 0.008533 0.463259 0.448748
vt 0.489040 0.151090
vt 0.561701 0.147486
vt 0.561790 0.318416
vt 0.292223 0.184064
vt 0.223012 0.206277
vt 0.223012 0.196054
vt 0.069980 0.302439
vt 0.001461 0.280447
vt 0.000000 0.184064
vt 0.435275 0.309414
vt 0.463217 0.493964
vt 0.397764 0.513128
vt 0.146111 0.186650
vt 0.222243 0.302439
vt 0.433908 0.138394
vt 0.347209 0.146287
vt 0.069211 0.206277
vt 0.489856 0.321984
vt 0.562209 0.506725
vt 0.496581 0.004802
vt 0.567968 0.021081
vt 0.889413 0.087929
vt 0.983563 0.152305
vt 0.905221 0.291511
vt 0.673893 0.765545
vt 0.596138 0.625959
vt 0.689175 0.561796
vt 0.506988 0.516827
vt 0.146111 0.170069
vt 0.866155 0.462783
vt 0.784373 0.447669
vt 0.349443 0.317229
vt 0.295007 0.309383
vt 0.069211 0.196054
vt 0.146111 0.052522
vt 0.223012 0.000000
vt 0.069211 0.000000
vt 0.000000 0.166646
vt 0.292223 0.029408
vt 0.292223 0.166646
vt 0.767870 0.700734
vt 0.784373 0.726863
vt 0.354750 0.000000
vt 0.439174 0.027615
vt 0.292223 0.138362
vt 0.298490 0.011957
vt 0.961188 0.000000
vt 1.000000 0.126120
vt 0.496528 0.997213
vt 0.468615 1.000000
vt 0.456711 0.854437
vt 0.442072 0.615882
vt 0.408333 0.602722
vt 0.146111 0.419948
vt 0.146111 0.533209
vt 0.100557 0.537799
vt 0.649705 0.390748
vt 0.567968 0.406219
vt 0.579849 0.257783
vt 0.146111 0.283007
vt 0.205333 0.429665
vt 0.086890 0.429665
vt 0.033591 0.418668
vt 0.290762 0.280447
vt 0.258632 0.418668
vt 0.354683 0.499698
vt 0.111034 0.666799
vt 0.079465 0.667419
vt 0.479527 0.858332
vt 0.478979 0.693206
vt 0.326926 0.729109
vt 0.352514 0.805017
vt 0.325542 0.828464
vt 0.146111 0.667347
vt 0.059557 0.532604
vt 0.191666 0.537799
vt 0.567968 0.608127
vt 0.860192 0.591349
vt 0.796609 0.596094
vt 0.491349 0.596087
vt 0.232666 0.532604
vt 0.181189 0.666799
vt 0.172359 0.745051
vt 0.119863 0.745051
vt 0.096240 0.749812
vt 0.391248 0.810852
vt 0.419175 0.777372
vt 0.432634 0.875288
vt 0.382752 0.895975
vt 0.361936 0.910616
vt 0.413499 0.693206
vt 0.456711 0.693348
vt 0.452198 0.775938
vt 0.889461 0.723808
vt 0.844294 0.748379
vt 0.531579 0.672958
vt 0.495559 0.693206
vt 0.212758 0.667419
vt 0.643440 0.262259
vt 0.627159 0.105306
vt 0.935290 0.792455
vt 1.000000 0.831812
vt 0.996309 0.846575
vt 0.456711 0.871312
vt 0.451123 0.986490
vt 0.146111 0.749258
vt 0.154861 0.806890
vt 0.137362 0.806890
vt 0.129488 0.809534
vt 0.910998 0.827442
vt 0.410605 0.895155
vt 0.195982 0.749812
vt 0.672387 0.129698
vt 0.693674 0.025994
vt 0.146111 0.819797
vt 0.137362 0.824521
vt 0.146111 0.809227
vt 0.162735 0.803981
vt 0.162735 0.827430
vt 0.129488 0.821876
vt 0.435523 0.993477
vt 0.426764 0.995933
vt 0.718054 0.060896
vt 0.777288 0.000000
vt 0.419007 0.998425
vt 0.443391 0.989037
vt 0.812012 0.227779
vt 0.000000 0.029408
vt 0.745889 0.853215
vt 0.496528 0.704425
vt 0.292223 0.761564
vt 0.526090 0.618726
vt 0.154861 0.824521
vt 0.784373 0.028035
vn 0.080600 0.613700 -0.785400
vn -0.793700 0.373900 -0.479900
vn -0.779500 0.553700 -0.293000
vn 0.810800 -0.388500 0.437700
vn 0.031200 -0.748300 0.662700
vn 0.021300 -0.950700 0.309300
vn -0.043500 -0.771800 0.634400
vn -0.843900 -0.352600 0.404300
vn -0.810800 -0.388500 0.437700
vn -0.000000 0.823800 -0.566900
vn -0.000000 0.965900 -0.259000
vn -0.079500 0.971600 -0.222700
vn 0.000000 -0.672700 0.739900
vn 0.043500 -0.771800 0.634400
vn 0.000000 0.609500 -0.792800
vn -0.080600 0.613700 -0.785400
vn -0.031200 -0.748300 0.662700
vn 0.070100 0.827900 -0.556400
vn -0.763400 0.646000 0.000100
vn 0.068400 -0.325500 -0.943100
vn -0.649700 -0.390500 -0.652200
vn 0.793700 0.373900 -0.479900
vn 0.779500 0.553700 -0.293000
vn 0.843900 -0.352600 0.404300
vn 0.079500 0.971600 -0.222700
vn 0.000000 -0.962900 0.269800
vn -0.805600 -0.435900 0.401300
vn -0.070100 0.827900 -0.556400
vn -0.021300 -0.950700 0.309300
vn 0.000000 -0.582300 -0.813000
vn -0.068400 -0.325500 -0.943100
vn -0.660500 -0.725600 0.192900
vn 0.649700 -0.390500 -0.652200
vn 0.660500 -0.725600 0.192900
vn 0.087200 0.995200 0.043500
vn -0.087200 0.995200 0.043500
vn 0.752200 0.637700 0.165900
vn 0.000000 -0.922200 0.386600
vn -0.000000 -0.993800 0.111000
vn -0.028400 -0.989100 0.144600
vn 0.805600 -0.435900 0.401300
vn 0.763400 0.646000 0.000100
vn 0.000000 -0.784700 0.619900
vn 0.032000 -0.904700 0.424900
vn -0.032000 -0.904700 0.424900
vn -0.036400 -0.967800 -0.249100
vn -0.837000 -0.546100 0.033800
vn -0.000000 0.999900 0.016400
vn 0.078900 0.917100 0.390800
vn -0.078900 0.917100 0.390800
vn 0.749200 0.551800 0.366400
vn -0.000000 -0.960700 -0.277600
vn -0.819400 -0.515900 0.249700
vn 0.028400 -0.989100 0.144600
vn -0.752200 0.637700 0.165900
vn 0.819400 -0.515900 0.249700
vn 0.036400 -0.967800 -0.249100
vn 0.032600 -0.766100 -0.641900
vn -0.045500 -0.782600 -0.620800
vn -0.815400 -0.572000 -0.089400
vn -0.000000 0.924800 0.380400
vn 0.071200 0.590000 0.804200
vn -0.078000 0.603100 0.793800
vn 0.725500 0.266200 0.634600
vn -0.749200 0.551800 0.366400
vn 0.837000 -0.546100 0.033800
vn -0.504300 -0.863300 -0.017900
vn -0.506300 -0.446200 0.738000
vn -0.717700 0.255400 0.647800
vn 0.000000 -0.746600 -0.665300
vn -0.193200 -0.962400 -0.190800
vn 0.011200 -0.962700 -0.270200
vn 0.000000 0.601800 0.798600
vn 0.823200 -0.559400 -0.097300
vn 0.000000 -0.506700 0.862100
vn 0.096800 -0.269300 0.958200
vn -0.000000 -0.991200 -0.132700
vn 0.307400 -0.924100 -0.227200
vn 0.317500 -0.319900 0.892700
vn -0.280100 -0.343800 0.896300
s 1
f 1/1/1 2/2/2 3/3/3
f 4/4/4 5/5/5 6/6/6
f 7/7/7 8/8/8 9/9/9
f 10/10/10 11/11/11 12/12/12
f 13/13/13 5/5/5 14/14/14
f 10/10/10 15/15/15 1/1/1
f 16/16/16 15/15/15 10/10/10
f 7/7/7 17/17/17 13/13/13
f 18/18/18 3/3/3 19/19/19
f 1/1/1 20/20/20 21/21/21
f 2/22/2 9/23/9 8/24/8
f 22/25/22 23/26/23 24/27/24
f 10/10/10 18/18/18 25/28/25
f 13/13/13 26/29/26 6/6/6
f 8/24/8 27/30/27 19/31/19
f 14/14/14 5/5/5 4/4/4
f 16/16/16 28/32/28 23/33/23
f 13/13/13 17/17/17 29/34/29
f 30/35/30 31/36/31 6/6/6
f 30/35/30 26/29/26 29/34/29
f 20/37/20 29/34/29 32/38/32
f 31/36/31 33/39/33 34/40/34
f 22/25/22 4/41/4 34/42/34
f 16/16/16 31/43/31 30/44/30
f 16/16/16 22/45/22 33/46/33
f 2/22/2 21/47/21 32/48/32
f 9/9/9 32/38/32 29/34/29
f 1/1/1 15/15/15 30/44/30
f 11/49/11 25/50/25 35/51/35
f 12/12/12 36/52/36 37/53/37
f 38/54/38 39/55/39 40/56/40
f 41/57/41 42/58/42 37/59/37
f 43/60/43 14/14/14 44/61/44
f 7/7/7 45/62/45 27/63/27
f 43/60/43 38/54/38 45/62/45
f 14/14/14 24/64/24 41/65/41
f 24/27/24 23/26/23 42/58/42
f 28/32/28 12/12/12 42/66/42
f 40/56/40 46/67/46 47/68/47
f 48/69/48 35/51/35 49/70/49
f 36/71/36 50/72/50 51/73/51
f 39/55/39 52/74/52 46/67/46
f 45/62/45 40/56/40 53/75/53
f 38/54/38 44/61/44 54/76/54
f 25/28/25 19/19/19 55/77/55
f 27/30/27 53/78/53 55/79/55
f 11/11/11 48/80/48 36/52/36
f 44/61/44 41/65/41 56/81/56
f 52/74/52 57/82/57 58/83/58
f 46/67/46 59/84/59 60/85/60
f 61/86/61 49/87/49 62/88/62
f 50/72/50 63/89/63 64/90/64
f 39/55/39 54/76/54 57/82/57
f 35/91/35 55/92/55 65/93/65
f 53/78/53 47/94/47 65/95/65
f 48/80/48 61/96/61 50/97/50
f 54/76/54 56/81/56 66/98/66
f 56/99/56 37/59/37 51/100/51
f 60/101/60 67/102/67 68/103/68
f 62/88/62 69/104/69 68/105/68
f 70/106/70 58/83/58 71/107/71
f 59/84/59 72/108/72 67/109/67
f 49/87/49 65/93/65 69/104/69
f 47/94/47 60/101/60 69/110/69
f 61/86/61 73/111/73 63/89/63
f 57/82/57 66/98/66 74/112/74
f 66/113/66 51/100/51 64/114/64
f 52/74/52 70/106/70 59/84/59
f 75/115/75 76/116/76 72/108/72
f 75/115/75 77/117/77 71/107/71
f 71/107/71 78/118/78 79/119/79
f 72/108/72 76/116/76 68/120/68
f 73/111/73 75/121/75 80/122/80
f 58/83/58 74/112/74 78/118/78
f 74/123/74 64/114/64 79/124/79
f 70/106/70 77/117/77 72/108/72
f 63/89/63 80/122/80 79/125/79
f 73/111/73 62/88/62 76/126/76
f 18/18/18 1/1/1 3/3/3
f 34/40/34 4/4/4 6/6/6
f 17/17/17 7/7/7 9/9/9
f 28/32/28 10/10/10 12/12/12
f 43/60/43 13/13/13 14/14/14
f 18/18/18 10/10/10 1/1/1
f 28/32/28 16/16/16 10/10/10
f 43/60/43 7/7/7 13/13/13
f 25/28/25 18/18/18 19/19/19
f 2/2/2 1/1/1 21/21/21
f 3/127/3 2/22/2 8/24/8
f 4/41/4 22/25/22 24/27/24
f 11/11/11 10/10/10 25/28/25
f 5/5/5 13/13/13 6/6/6
f 3/127/3 8/24/8 19/31/19
f 24/64/24 14/14/14 4/4/4
f 22/45/22 16/16/16 23/33/23
f 26/29/26 13/13/13 29/34/29
f 26/29/26 30/35/30 6/6/6
f 20/37/20 30/35/30 29/34/29
f 21/128/21 20/37/20 32/38/32
f 6/6/6 31/36/31 34/40/34
f 33/129/33 22/25/22 34/42/34
f 15/15/15 16/16/16 30/44/30
f 31/43/31 16/16/16 33/46/33
f 9/23/9 2/22/2 32/48/32
f 17/17/17 9/9/9 29/34/29
f 20/20/20 1/1/1 30/44/30
f 48/69/48 11/49/11 35/51/35
f 42/66/42 12/12/12 37/53/37
f 45/62/45 38/54/38 40/56/40
f 56/99/56 41/57/41 37/59/37
f 38/54/38 43/60/43 44/61/44
f 8/8/8 7/7/7 27/63/27
f 7/7/7 43/60/43 45/62/45
f 44/61/44 14/14/14 41/65/41
f 41/57/41 24/27/24 42/58/42
f 23/33/23 28/32/28 42/66/42
f 53/75/53 40/56/40 47/68/47
f 61/130/61 48/69/48 49/70/49
f 37/131/37 36/71/36 51/73/51
f 40/56/40 39/55/39 46/67/46
f 27/63/27 45/62/45 53/75/53
f 39/55/39 38/54/38 54/76/54
f 35/132/35 25/28/25 55/77/55
f 19/31/19 27/30/27 55/79/55
f 12/12/12 11/11/11 36/52/36
f 54/76/54 44/61/44 56/81/56
f 70/106/70 52/74/52 58/83/58
f 47/68/47 46/67/46 60/85/60
f 73/111/73 61/86/61 62/88/62
f 51/73/51 50/72/50 64/90/64
f 52/74/52 39/55/39 57/82/57
f 49/87/49 35/91/35 65/93/65
f 55/79/55 53/78/53 65/95/65
f 36/52/36 48/80/48 50/97/50
f 57/82/57 54/76/54 66/98/66
f 66/113/66 56/99/56 51/100/51
f 69/110/69 60/101/60 68/103/68
f 76/126/76 62/88/62 68/105/68
f 77/117/77 70/106/70 71/107/71
f 60/85/60 59/84/59 67/109/67
f 62/88/62 49/87/49 69/104/69
f 65/95/65 47/94/47 69/110/69
f 50/72/50 61/86/61 63/89/63
f 58/83/58 57/82/57 74/112/74
f 74/123/74 66/113/66 64/114/64
f 46/67/46 52/74/52 59/84/59
f 77/117/77 75/115/75 72/108/72
f 80/133/80 75/115/75 71/107/71
f 80/133/80 71/107/71 79/119/79
f 67/109/67 72/108/72 68/120/68
f 63/89/63 73/111/73 80/122/80
f 71/107/71 58/83/58 78/118/78
f 78/134/78 74/123/74 79/124/79
f 59/84/59 70/106/70 72/108/72
f 64/90/64 63/89/63 79/125/79
f 75/121/75 73/111/73 76/126/76
