# Blender v2.75 (sub 0) OBJ File: '818-Trebuchet.blend'
# www.blender.org
o Cube.007
v -0.320831 -1.587516 -0.747297
v -0.320831 -0.518081 -0.533409
v 0.320830 -1.587516 -0.747297
v 0.320830 -0.518081 -0.533409
v -0.320831 -1.587516 0.749913
v -0.320831 -0.518081 0.536026
v 0.320830 -1.587516 0.749913
v 0.320830 -0.518081 0.536026
v -0.320831 -2.217516 -0.522715
v 0.320830 -2.217516 -0.522715
v -0.320831 -2.217516 0.525332
v 0.320830 -2.217516 0.525332
v 0.126512 0.110520 -0.176931
v 0.126512 0.110520 0.179548
v -0.126513 0.110520 -0.176931
v -0.126513 0.110520 0.179548
v 0.261261 -0.639480 -0.176931
v 0.261261 -0.639480 0.179548
v -0.261262 -0.639480 0.179548
v -0.261262 -0.639480 -0.176931
v -0.261262 0.110520 -0.176931
v -0.261262 0.110520 0.179548
v 0.261261 0.110520 0.179548
v 0.261261 0.110520 -0.176931
v 0.126512 -0.639480 0.179548
v -0.126513 -0.639480 0.179548
v 0.126512 -0.639480 -0.176931
v -0.126513 -0.639480 -0.176931
vt 0.012899 0.974219
vt 0.012899 0.834673
vt 0.055984 0.834673
vt 0.200399 0.525781
vt 0.214761 0.666417
vt 0.114229 0.666417
vt 0.056782 0.974219
vt 0.056782 0.834673
vt 0.099867 0.834673
vt 0.099069 0.525781
vt 0.113431 0.666417
vt 0.012899 0.666417
vt 0.199681 0.749264
vt 0.129308 0.749264
vt 0.143750 0.750827
vt 0.143750 0.891463
vt 0.100665 0.891463
vt 0.144548 0.888650
vt 0.144548 0.750827
vt 0.187633 0.750827
vt 0.098351 0.749264
vt 0.027979 0.749264
vt 0.056782 0.750827
vt 0.099867 0.750827
vt 0.012899 0.750827
vt 0.055984 0.750827
vt 0.213165 0.849455
vt 0.213165 0.750827
vt 0.237101 0.750827
vt 0.213165 0.949646
vt 0.213165 0.851018
vt 0.237101 0.851018
vt 0.163441 0.890212
vt 0.163441 0.937091
vt 0.154394 0.937091
vt 0.183133 0.937091
vt 0.174085 0.937091
vt 0.174085 0.890212
vt 0.215558 0.724475
vt 0.215558 0.625910
vt 0.224606 0.625910
vt 0.234452 0.525781
vt 0.234452 0.624347
vt 0.225404 0.624347
vt 0.188431 0.849455
vt 0.188431 0.750827
vt 0.212367 0.750827
vt 0.173287 0.890212
vt 0.173287 0.937091
vt 0.164239 0.937091
vt 0.153596 0.890212
vt 0.153596 0.937091
vt 0.144548 0.937091
vt 0.215558 0.624347
vt 0.215558 0.525781
vt 0.224606 0.525781
vt 0.188431 0.949646
vt 0.188431 0.851018
vt 0.212367 0.851018
vt 0.234452 0.625910
vt 0.234452 0.724475
vt 0.225404 0.724475
vt 0.055984 0.974219
vt 0.128590 0.525781
vt 0.099867 0.974219
vt 0.027261 0.525781
vt 0.100665 0.750827
vt 0.187633 0.888650
vt 0.237101 0.849455
vt 0.237101 0.949646
vt 0.154394 0.890212
vt 0.183133 0.890212
vt 0.224606 0.724475
vt 0.225404 0.525781
vt 0.212367 0.849455
vt 0.164239 0.890212
vt 0.144548 0.890212
vt 0.224606 0.624347
vt 0.212367 0.949646
vt 0.225404 0.625910
vn 0.000000 0.196100 -0.980600
vn 1.000000 0.000000 -0.000000
vn 0.000000 0.196100 0.980600
vn -1.000000 -0.000000 0.000000
vn 0.000000 1.000000 0.000000
vn 0.000000 -1.000000 0.000000
vn 0.000000 -0.335800 0.941900
vn 0.000000 -0.335800 -0.941900
vn 0.000000 0.000000 -1.000000
vn 0.000000 0.000000 1.000000
s off
f 4/1/1 3/2/1 1/3/1
f 8/4/2 7/5/2 3/6/2
f 6/7/3 5/8/3 7/9/3
f 2/10/4 1/11/4 5/12/4
f 7/5/2 12/13/2 10/14/2
f 8/15/5 4/16/5 2/17/5
f 10/18/6 12/19/6 11/20/6
f 1/11/4 9/21/4 11/22/4
f 5/8/7 11/23/7 12/24/7
f 3/2/8 10/25/8 9/26/8
f 19/27/4 22/28/4 21/29/4
f 28/30/2 15/31/2 16/32/2
f 25/33/6 27/34/6 17/35/6
f 20/36/6 28/37/6 26/38/6
f 20/39/9 21/40/9 15/41/9
f 26/42/10 16/43/10 22/44/10
f 25/45/4 14/46/4 13/47/4
f 16/48/5 15/49/5 21/50/5
f 23/51/5 24/52/5 13/53/5
f 27/54/9 13/55/9 24/56/9
f 17/57/2 24/58/2 23/59/2
f 18/60/10 23/61/10 14/62/10
f 2/63/1 4/1/1 1/3/1
f 4/64/2 8/4/2 3/6/2
f 8/65/3 6/7/3 7/9/3
f 6/66/4 2/10/4 5/12/4
f 3/6/2 7/5/2 10/14/2
f 6/67/5 8/15/5 2/17/5
f 9/68/6 10/18/6 11/20/6
f 5/12/4 1/11/4 11/22/4
f 7/9/7 5/8/7 12/24/7
f 1/3/8 3/2/8 9/26/8
f 20/69/4 19/27/4 21/29/4
f 26/70/2 28/30/2 16/32/2
f 18/71/6 25/33/6 17/35/6
f 19/72/6 20/36/6 26/38/6
f 28/73/9 20/39/9 15/41/9
f 19/74/10 26/42/10 22/44/10
f 27/75/4 25/45/4 13/47/4
f 22/76/5 16/48/5 21/50/5
f 14/77/5 23/51/5 13/53/5
f 17/78/9 27/54/9 24/56/9
f 18/79/2 17/57/2 23/59/2
f 25/80/10 18/60/10 14/62/10
