# Blender v2.75 (sub 0) OBJ File: ''
# www.blender.org
o Plane.002_Plane.000
v 0.100000 0.020701 -0.098387
v 0.071110 0.011071 -0.069497
v 0.071110 0.011071 0.069497
v 0.068830 0.010701 0.068830
v 0.068830 0.010701 -0.068830
v -0.068830 0.010701 -0.068830
v -0.100000 0.020701 0.098387
v -0.071110 0.011071 0.069497
v -0.071110 0.011071 -0.069497
v -0.098387 0.020701 -0.100000
v -0.069497 0.011071 -0.071110
v 0.069497 0.011071 -0.071110
v -0.069497 0.011071 0.071110
v -0.068830 0.010701 0.068830
v 0.069497 0.011071 0.071110
v -0.100000 0.020701 -0.098387
v 0.098387 0.020701 -0.100000
v 0.098387 0.020701 0.100000
v 0.071644 0.008634 -0.069653
v 0.100540 0.018275 -0.098656
v 0.100540 0.018275 0.098656
v 0.068998 0.005712 -0.068998
v 0.068998 0.005712 0.068998
v -0.068998 0.005712 0.068998
v -0.071644 0.008634 0.069653
v -0.100540 0.018275 0.098656
v -0.100540 0.018275 -0.098656
v 0.069653 0.008634 -0.071644
v -0.069653 0.008634 -0.071644
v -0.098656 0.018275 -0.100540
v 0.068998 0.005712 0.068998
v 0.072448 -0.000018 0.072448
v -0.072448 -0.000018 0.072448
v 0.069653 0.008634 -0.071644
v 0.073136 0.000425 -0.075227
v -0.073136 0.000425 -0.075227
v -0.069653 0.008634 0.071644
v -0.071644 0.008634 0.069653
v -0.075227 0.000425 0.073136
v -0.069653 0.008634 0.071644
v -0.073136 0.000425 0.075227
v 0.073136 0.000425 0.075227
v 0.069653 0.008634 0.071644
v 0.073136 0.000425 0.075227
v 0.075227 0.000425 0.073136
v -0.069653 0.008634 -0.071644
v -0.073136 0.000425 -0.075227
v -0.075227 0.000425 -0.073136
v 0.068998 0.005712 -0.068998
v 0.072448 -0.000018 -0.072448
v 0.072448 -0.000018 0.072448
v 0.069653 0.008634 -0.071644
v 0.071644 0.008634 -0.069653
v 0.075227 0.000425 -0.073136
v -0.069653 0.008634 0.071644
v 0.098656 0.018275 -0.100540
v 0.069653 0.008634 0.071644
v 0.071644 0.008634 0.069653
v 0.098656 0.018275 0.100540
v -0.100000 0.020701 0.098387
v -0.100540 0.018275 0.098656
v -0.098656 0.018275 0.100540
v -0.100000 0.020701 -0.098387
v -0.098387 0.020701 -0.100000
v -0.098656 0.018275 -0.100540
v 0.100000 0.020701 -0.098387
v 0.100540 0.018275 -0.098656
v 0.098656 0.018275 -0.100540
v 0.100000 0.020701 0.098387
v 0.098387 0.020701 0.100000
v 0.098656 0.018275 0.100540
v -0.098387 0.020701 0.100000
v -0.098656 0.018275 0.100540
v 0.098656 0.018275 0.100540
v -0.100000 0.020701 -0.098387
v -0.100540 0.018275 -0.098656
v -0.100540 0.018275 0.098656
v 0.100000 0.020701 0.098387
v 0.100540 0.018275 0.098656
v 0.100540 0.018275 -0.098656
v 0.098387 0.020701 -0.100000
v 0.098656 0.018275 -0.100540
v -0.098656 0.018275 -0.100540
v -0.073136 0.000425 -0.075227
v -0.072448 -0.000018 -0.072448
v -0.075227 0.000425 -0.073136
v -0.072448 -0.000018 0.072448
v -0.073136 0.000425 0.075227
v -0.075227 0.000425 0.073136
v 0.072448 -0.000018 0.072448
v 0.075227 0.000425 0.073136
v 0.073136 0.000425 0.075227
v 0.072448 -0.000018 -0.072448
v 0.073136 0.000425 -0.075227
v 0.075227 0.000425 -0.073136
v -0.071644 0.008634 -0.069653
v -0.075227 0.000425 -0.073136
v -0.075227 0.000425 0.073136
v -0.068998 0.005712 -0.068998
v -0.072448 -0.000018 -0.072448
v 0.072448 -0.000018 -0.072448
v 0.071644 0.008634 0.069653
v 0.075227 0.000425 0.073136
v 0.075227 0.000425 -0.073136
v -0.068998 0.005712 0.068998
v -0.072448 -0.000018 0.072448
v -0.072448 -0.000018 -0.072448
v 0.100000 0.020701 0.098387
v -0.098387 0.020701 0.100000
v -0.068998 0.005712 -0.068998
v -0.071644 0.008634 -0.069653
v -0.068998 0.005712 0.068998
v -0.069653 0.008634 -0.071644
v -0.073136 0.000425 0.075227
v 0.069653 0.008634 0.071644
v 0.071644 0.008634 0.069653
v -0.071644 0.008634 -0.069653
v 0.068998 0.005712 0.068998
v 0.073136 0.000425 -0.075227
v -0.098656 0.018275 0.100540
v -0.098387 0.020701 0.100000
v -0.100540 0.018275 -0.098656
v 0.098387 0.020701 -0.100000
v 0.100540 0.018275 0.098656
v 0.098387 0.020701 0.100000
v -0.100000 0.020701 0.098387
v 0.100000 0.020701 -0.098387
v -0.098387 0.020701 -0.100000
v -0.071644 0.008634 0.069653
v 0.068998 0.005712 -0.068998
v 0.071644 0.008634 -0.069653
v -0.068998 0.005712 -0.068998
vt 0.486692 0.506209
vt 0.416525 0.576831
vt 0.078941 0.576831
vt 0.080562 0.582404
vt 0.414904 0.582404
vt 0.414905 0.918915
vt 0.008775 0.995111
vt 0.078941 0.924489
vt 0.416525 0.924489
vt 0.490609 0.991168
vt 0.420442 0.920546
vt 0.420442 0.580773
vt 0.075024 0.920547
vt 0.080562 0.918916
vt 0.075024 0.580773
vt 0.486692 0.995111
vt 0.490609 0.510151
vt 0.004858 0.510151
vt 0.079874 0.075525
vt 0.009432 0.004889
vt 0.488656 0.004889
vt 0.502946 0.382451
vt 0.838105 0.382451
vt 0.838105 0.719784
vt 0.418214 0.425795
vt 0.488656 0.496430
vt 0.009433 0.496430
vt 0.075038 0.080393
vt 0.075038 0.420927
vt 0.004858 0.491826
vt 0.943809 0.013322
vt 0.954444 0.004889
vt 0.954444 0.359089
vt 0.849319 0.396076
vt 0.870972 0.387563
vt 0.870972 0.745124
vt 0.879574 0.018514
vt 0.878075 0.013646
vt 0.899653 0.004889
vt 0.901227 0.010000
vt 0.901227 0.367562
vt 0.910942 0.013646
vt 0.932520 0.004889
vt 0.934094 0.010000
vt 0.880687 0.391208
vt 0.902265 0.382451
vt 0.903840 0.387563
vt 0.981274 0.390884
vt 0.991908 0.382451
vt 0.991908 0.736651
vt 0.847820 0.391208
vt 0.869398 0.382451
vt 0.423051 0.420927
vt 0.004858 0.009494
vt 0.423051 0.080392
vt 0.418214 0.075524
vt 0.493231 0.009494
vt 0.936495 0.387701
vt 0.930485 0.387059
vt 0.931891 0.382451
vt 0.954629 0.383756
vt 0.953425 0.387701
vt 0.947414 0.387059
vt 0.919565 0.387701
vt 0.913555 0.387059
vt 0.914962 0.382451
vt 0.971559 0.383756
vt 0.970354 0.387701
vt 0.964344 0.387059
vt 0.971559 0.868717
vt 0.965552 0.869390
vt 0.937699 0.868717
vt 0.931692 0.869390
vt 0.920770 0.868717
vt 0.914763 0.869390
vt 0.954629 0.868717
vt 0.948622 0.869390
vt 0.502946 0.367562
vt 0.509694 0.365881
vt 0.508024 0.372673
vt 0.861611 0.365881
vt 0.868360 0.367562
vt 0.863281 0.372673
vt 0.861611 0.011681
vt 0.863281 0.004889
vt 0.868360 0.010000
vt 0.509694 0.011681
vt 0.502946 0.010000
vt 0.508024 0.004889
vt 0.882187 0.396076
vt 0.903840 0.745124
vt 0.984508 0.013322
vt 0.995142 0.004889
vt 0.995142 0.359089
vt 0.912441 0.018514
vt 0.934094 0.367562
vt 0.964159 0.013322
vt 0.974793 0.004889
vt 0.974793 0.359089
vt 0.008774 0.506209
vt 0.004858 0.991169
vt 0.502946 0.719784
vt 0.079874 0.425795
vt 0.943809 0.350656
vt 0.849320 0.736610
vt 0.879574 0.359048
vt 0.981274 0.728218
vt 0.493231 0.491826
vt 0.937699 0.383756
vt 0.948821 0.382451
vt 0.920770 0.383756
vt 0.965751 0.382451
vt 0.882187 0.736610
vt 0.984508 0.350656
vt 0.912441 0.359048
vt 0.964159 0.350656
vn -0.215900 0.970500 0.107600
vn -0.213700 0.974900 0.062300
vn -0.213700 0.974900 -0.062300
vn -0.067200 0.995500 -0.067200
vn -0.067200 0.995500 0.067200
vn 0.067200 0.995500 0.067200
vn 0.215900 0.970500 -0.107600
vn 0.213700 0.974900 -0.062300
vn 0.213700 0.974900 0.062300
vn 0.107600 0.970500 0.215900
vn 0.062300 0.974900 0.213700
vn -0.062300 0.974900 0.213700
vn 0.062300 0.974900 -0.213700
vn 0.067200 0.995500 -0.067200
vn -0.062300 0.974900 -0.213700
vn 0.215900 0.970500 0.107600
vn -0.107600 0.970500 0.215900
vn -0.107600 0.970500 -0.215900
vn 0.256000 -0.964500 -0.065600
vn 0.215800 -0.970500 -0.107600
vn 0.215800 -0.970500 0.107600
vn 0.000000 -1.000000 -0.000000
vn -0.256000 -0.964500 0.065600
vn -0.215800 -0.970500 0.107600
vn -0.215800 -0.970500 -0.107600
vn 0.065600 -0.964500 -0.256000
vn -0.065600 -0.964500 -0.256000
vn -0.107600 -0.970500 -0.215800
vn 0.000000 -0.515800 -0.856700
vn 0.000000 0.399900 -0.916500
vn -0.604100 0.519900 0.604000
vn 0.000000 0.399900 0.916500
vn 0.604100 0.519900 0.604000
vn -0.604100 0.519900 -0.604000
vn -0.604000 0.519900 -0.604100
vn -0.604100 0.519900 -0.604100
vn -0.856700 -0.515800 -0.000000
vn 0.604100 0.519900 -0.604000
vn 0.604000 0.519900 -0.604100
vn -0.065600 -0.964500 0.256000
vn 0.107600 -0.970500 -0.215800
vn 0.065600 -0.964500 0.256000
vn 0.256000 -0.964500 0.065600
vn 0.107600 -0.970500 0.215800
vn -0.688300 0.229400 0.688300
vn -0.688200 0.229400 0.688300
vn -0.688300 0.229400 -0.688300
vn -0.688300 0.229400 -0.688200
vn 0.688300 0.229400 -0.688300
vn 0.688200 0.229400 -0.688300
vn 0.688300 0.229400 0.688300
vn 0.688300 0.229400 0.688200
vn 0.000000 0.217200 0.976100
vn -0.976100 0.217200 0.000000
vn 0.976100 0.217200 0.000000
vn 0.000000 0.217200 -0.976100
vn -0.055100 -0.988100 -0.143700
vn -0.089800 -0.991900 -0.089800
vn -0.143700 -0.988100 -0.055100
vn -0.089800 -0.991900 0.089800
vn -0.055100 -0.988100 0.143700
vn -0.143700 -0.988100 0.055100
vn 0.089800 -0.991900 0.089800
vn 0.143700 -0.988100 0.055100
vn 0.055100 -0.988100 0.143700
vn 0.089800 -0.991900 -0.089800
vn 0.055100 -0.988100 -0.143700
vn 0.143700 -0.988100 -0.055100
vn -0.916500 0.399900 0.000000
vn 0.000000 -0.515800 0.856700
vn 0.916500 0.399900 0.000000
vn 0.856700 -0.515800 -0.000000
vn -0.215900 0.970500 -0.107600
vn 0.107600 0.970500 -0.215900
vn -0.256000 -0.964500 -0.065600
vn -0.107600 -0.970500 0.215800
vn -0.688300 0.229400 0.688200
vn -0.688200 0.229400 -0.688300
vn 0.688300 0.229400 -0.688200
vn 0.688200 0.229400 0.688300
s 1
f 1/1/1 2/2/2 3/3/3
f 4/4/4 5/5/5 6/6/6
f 7/7/7 8/8/8 9/9/9
f 10/10/10 11/11/11 12/12/12
f 9/9/9 6/6/6 11/11/11
f 8/8/8 13/13/13 14/14/14
f 15/15/15 3/3/3 4/4/4
f 2/2/2 12/12/12 5/5/5
f 8/8/8 14/14/14 6/6/6
f 15/15/15 4/4/4 14/14/14
f 2/2/2 5/5/5 4/4/4
f 11/11/11 6/6/6 5/5/5
f 13/13/13 8/8/8 7/7/7
f 10/10/10 16/16/16 9/9/9
f 1/1/1 17/17/17 12/12/12
f 3/3/3 15/15/15 18/18/18
f 18/18/18 15/15/15 13/13/13
f 19/19/19 20/20/20 21/21/21
f 22/22/22 23/23/22 24/24/22
f 25/25/23 26/26/24 27/27/25
f 28/28/26 29/29/27 30/30/28
f 31/31/29 32/32/29 33/33/29
f 34/34/30 35/35/30 36/36/30
f 37/37/31 38/38/31 39/39/31
f 40/37/32 41/40/32 42/41/32
f 43/42/33 44/43/33 45/44/33
f 46/45/34 47/46/35 48/47/36
f 49/48/37 50/49/37 51/50/37
f 52/34/38 53/51/38 54/52/39
f 26/26/24 25/25/23 55/53/40
f 27/27/25 30/30/28 29/29/27
f 56/54/41 20/20/20 19/19/19
f 57/55/42 58/56/43 21/21/21
f 55/53/40 57/55/42 59/57/44
f 60/58/45 61/59/46 62/60/45
f 63/61/47 64/62/48 65/63/47
f 66/64/49 67/65/50 68/66/49
f 69/67/51 70/68/52 71/69/51
f 72/70/53 73/71/53 74/69/53
f 75/72/54 76/73/54 77/59/54
f 78/74/55 79/75/55 80/65/55
f 81/76/56 82/77/56 83/63/56
f 84/78/57 85/79/58 86/80/59
f 87/81/60 88/82/61 89/83/62
f 90/84/63 91/85/64 92/86/65
f 93/87/66 94/88/67 95/89/68
f 87/81/60 89/83/62 86/80/59
f 90/84/63 92/86/65 88/82/61
f 93/87/66 95/89/68 91/85/64
f 85/79/58 84/78/57 94/88/67
f 96/90/69 97/47/69 98/91/69
f 99/92/70 100/93/70 101/94/70
f 102/95/71 103/44/71 104/96/71
f 105/97/72 106/98/72 107/99/72
f 108/100/73 1/1/1 3/3/3
f 14/14/14 4/4/4 6/6/6
f 16/16/16 7/7/7 9/9/9
f 17/17/17 10/10/10 12/12/12
f 9/9/9 8/8/8 6/6/6
f 13/13/13 15/15/15 14/14/14
f 3/3/3 2/2/2 4/4/4
f 12/12/12 11/11/11 5/5/5
f 109/101/74 13/13/13 7/7/7
f 11/11/11 10/10/10 9/9/9
f 2/2/2 1/1/1 12/12/12
f 108/100/73 3/3/3 18/18/18
f 109/101/74 18/18/18 13/13/13
f 58/56/43 19/19/19 21/21/21
f 110/102/22 22/22/22 24/24/22
f 111/103/75 25/25/23 27/27/25
f 56/54/41 28/28/26 30/30/28
f 112/104/29 31/31/29 33/33/29
f 113/105/30 34/34/30 36/36/30
f 114/40/31 37/37/31 39/39/31
f 115/106/32 40/37/32 42/41/32
f 116/95/33 43/42/33 45/44/33
f 117/90/34 46/45/34 48/47/36
f 118/107/37 49/48/37 51/50/37
f 119/35/39 52/34/38 54/52/39
f 120/108/76 26/26/24 55/53/40
f 111/103/75 27/27/25 29/29/27
f 28/28/26 56/54/41 19/19/19
f 59/57/44 57/55/42 21/21/21
f 120/108/76 55/53/40 59/57/44
f 121/109/77 60/58/45 62/60/45
f 122/110/78 63/61/47 65/63/47
f 123/111/79 66/64/49 68/66/49
f 124/112/80 69/67/51 71/69/51
f 125/68/53 72/70/53 74/69/53
f 126/58/54 75/72/54 77/59/54
f 127/64/55 78/74/55 80/65/55
f 128/62/56 81/76/56 83/63/56
f 85/79/58 87/81/60 86/80/59
f 87/81/60 90/84/63 88/82/61
f 90/84/63 93/87/66 91/85/64
f 93/87/66 85/79/58 94/88/67
f 129/113/69 96/90/69 98/91/69
f 130/114/70 99/92/70 101/94/70
f 131/115/71 102/95/71 104/96/71
f 132/116/72 105/97/72 107/99/72
