# Blender v2.75 (sub 0) OBJ File: ''
# www.blender.org
o Plane.009
v 0.066209 0.018000 0.140000
v 0.066209 0.042000 0.140000
v -0.066209 0.042000 0.140000
v -0.066209 0.018000 -0.140000
v -0.066209 0.042000 -0.140000
v 0.066209 0.042000 -0.140000
v 0.100000 0.018000 -0.106209
v 0.100000 0.042000 -0.106209
v 0.100000 0.042000 0.106209
v -0.073333 0.003600 -0.077887
v -0.060000 0.000000 -0.063725
v -0.060000 -0.000000 0.063725
v -0.100000 0.018000 0.106209
v -0.100000 0.042000 0.106209
v -0.100000 0.042000 -0.106209
v 0.066209 0.042000 -0.140000
v 0.100000 0.042000 -0.106209
v 0.100000 0.018000 -0.106209
v 0.066209 0.018000 0.140000
v 0.100000 0.018000 0.106209
v 0.100000 0.042000 0.106209
v -0.066209 0.042000 0.140000
v -0.100000 0.042000 0.106209
v -0.100000 0.018000 0.106209
v -0.066209 0.018000 -0.140000
v -0.100000 0.018000 -0.106209
v -0.100000 0.042000 -0.106209
v 0.073333 0.056400 -0.077887
v 0.048553 0.056400 -0.102667
v 0.039725 0.060000 -0.084000
v -0.060000 0.060000 0.063725
v 0.039725 0.060000 0.084000
v 0.060000 0.060000 0.063725
v 0.060000 0.000000 -0.063725
v -0.060000 0.000000 -0.063725
v 0.039725 0.000000 -0.084000
v -0.073333 0.056400 0.077887
v -0.048553 0.056400 0.102667
v -0.039725 0.060000 0.084000
v 0.048553 0.003600 -0.102667
v 0.039725 0.000000 -0.084000
v -0.039725 0.000000 -0.084000
v 0.073333 0.056400 0.077887
v 0.060000 0.060000 0.063725
v 0.039725 0.060000 0.084000
v 0.073333 0.003600 0.077887
v 0.060000 -0.000000 0.063725
v 0.060000 0.000000 -0.063725
v -0.073333 0.056400 -0.077887
v -0.060000 0.060000 -0.063725
v -0.039725 0.060000 -0.084000
v 0.048553 0.056400 0.102667
v 0.039725 0.060000 0.084000
v -0.039725 0.060000 0.084000
v 0.073333 0.003600 0.077887
v 0.048553 0.003600 0.102667
v 0.039725 -0.000000 0.084000
v -0.073333 0.056400 0.077887
v -0.060000 0.060000 0.063725
v -0.060000 0.060000 -0.063725
v -0.073333 0.003600 -0.077887
v -0.048553 0.003600 -0.102667
v -0.039725 0.000000 -0.084000
v 0.073333 0.056400 -0.077887
v 0.060000 0.060000 -0.063725
v 0.060000 0.060000 0.063725
v 0.073333 0.003600 -0.077887
v 0.060000 0.000000 -0.063725
v 0.039725 0.000000 -0.084000
v -0.073333 0.003600 0.077887
v -0.060000 -0.000000 0.063725
v -0.039725 -0.000000 0.084000
v -0.048553 0.056400 -0.102667
v -0.039725 0.060000 -0.084000
v 0.039725 0.060000 -0.084000
v -0.048553 0.003600 0.102667
v -0.039725 -0.000000 0.084000
v 0.039725 -0.000000 0.084000
v -0.066209 0.042000 -0.140000
v -0.057381 0.050700 -0.121333
v 0.057381 0.050700 -0.121333
v 0.057381 0.050700 -0.121333
v -0.057381 0.050700 -0.121333
v -0.048553 0.056400 -0.102667
v 0.100000 0.042000 -0.106209
v 0.086667 0.050700 -0.092048
v 0.086667 0.050700 0.092048
v 0.086667 0.050700 -0.092048
v 0.073333 0.056400 -0.077887
v 0.073333 0.056400 0.077887
v -0.100000 0.042000 0.106209
v -0.086667 0.050700 0.092048
v -0.086667 0.050700 -0.092048
v -0.086667 0.050700 0.092048
v -0.073333 0.056400 0.077887
v -0.073333 0.056400 -0.077887
v 0.066209 0.042000 0.140000
v 0.057381 0.050700 0.121333
v -0.057381 0.050700 0.121333
v -0.057381 0.050700 0.121333
v 0.057381 0.050700 0.121333
v 0.048553 0.056400 0.102667
v -0.100000 0.042000 -0.106209
v -0.086667 0.050700 -0.092048
v -0.057381 0.050700 -0.121333
v -0.086667 0.050700 -0.092048
v -0.073333 0.056400 -0.077887
v -0.048553 0.056400 -0.102667
v 0.100000 0.042000 0.106209
v 0.086667 0.050700 0.092048
v 0.057381 0.050700 0.121333
v 0.086667 0.050700 0.092048
v 0.073333 0.056400 0.077887
v 0.048553 0.056400 0.102667
v -0.100000 0.042000 0.106209
v -0.066209 0.042000 0.140000
v -0.057381 0.050700 0.121333
v -0.086667 0.050700 0.092048
v -0.057381 0.050700 0.121333
v -0.048553 0.056400 0.102667
v 0.100000 0.042000 -0.106209
v 0.066209 0.042000 -0.140000
v 0.057381 0.050700 -0.121333
v 0.086667 0.050700 -0.092048
v 0.057381 0.050700 -0.121333
v 0.048553 0.056400 -0.102667
v -0.066209 0.018000 0.140000
v -0.057381 0.009300 0.121333
v 0.057381 0.009300 0.121333
v -0.057381 0.009300 0.121333
v -0.048553 0.003600 0.102667
v 0.048553 0.003600 0.102667
v -0.100000 0.018000 0.106209
v -0.086667 0.009300 0.092048
v -0.057381 0.009300 0.121333
v -0.086667 0.009300 0.092048
v -0.073333 0.003600 0.077887
v -0.048553 0.003600 0.102667
v 0.100000 0.018000 -0.106209
v 0.086667 0.009300 -0.092048
v 0.057381 0.009300 -0.121333
v 0.086667 0.009300 -0.092048
v 0.073333 0.003600 -0.077887
v 0.048553 0.003600 -0.102667
v -0.100000 0.018000 -0.106209
v -0.066209 0.018000 -0.140000
v -0.057381 0.009300 -0.121333
v -0.086667 0.009300 -0.092048
v -0.057381 0.009300 -0.121333
v -0.048553 0.003600 -0.102667
v 0.100000 0.018000 0.106209
v 0.066209 0.018000 0.140000
v 0.057381 0.009300 0.121333
v 0.086667 0.009300 0.092048
v 0.057381 0.009300 0.121333
v 0.048553 0.003600 0.102667
v 0.100000 0.018000 0.106209
v 0.086667 0.009300 0.092048
v 0.086667 0.009300 -0.092048
v 0.086667 0.009300 0.092048
v 0.073333 0.003600 0.077887
v 0.073333 0.003600 -0.077887
v 0.066209 0.018000 -0.140000
v 0.057381 0.009300 -0.121333
v -0.057381 0.009300 -0.121333
v 0.057381 0.009300 -0.121333
v 0.048553 0.003600 -0.102667
v -0.048553 0.003600 -0.102667
v -0.100000 0.018000 -0.106209
v -0.086667 0.009300 -0.092048
v -0.086667 0.009300 0.092048
v -0.086667 0.009300 -0.092048
v -0.073333 0.003600 -0.077887
v -0.073333 0.003600 0.077887
v -0.066209 0.018000 0.140000
v 0.066209 0.018000 -0.140000
v 0.100000 0.018000 0.106209
v -0.073333 0.003600 0.077887
v -0.100000 0.018000 -0.106209
v 0.066209 0.018000 -0.140000
v 0.066209 0.042000 0.140000
v -0.066209 0.018000 0.140000
v -0.066209 0.042000 -0.140000
v 0.060000 0.060000 -0.063725
v 0.060000 0.060000 -0.063725
v -0.060000 0.060000 -0.063725
v 0.039725 0.060000 -0.084000
v -0.039725 0.060000 -0.084000
v -0.039725 0.060000 0.084000
v 0.060000 -0.000000 0.063725
v 0.039725 -0.000000 0.084000
v -0.039725 -0.000000 0.084000
v -0.039725 0.000000 -0.084000
v -0.060000 -0.000000 0.063725
v -0.060000 0.060000 0.063725
v -0.048553 0.003600 -0.102667
v 0.048553 0.056400 0.102667
v 0.073333 0.003600 -0.077887
v -0.048553 0.056400 -0.102667
v -0.048553 0.056400 0.102667
v 0.060000 -0.000000 0.063725
v -0.073333 0.056400 -0.077887
v -0.060000 0.000000 -0.063725
v 0.073333 0.056400 0.077887
v 0.048553 0.003600 -0.102667
v -0.048553 0.003600 0.102667
v 0.048553 0.056400 -0.102667
v 0.048553 0.003600 0.102667
v 0.066209 0.042000 -0.140000
v 0.048553 0.056400 -0.102667
v 0.100000 0.042000 0.106209
v 0.086667 0.050700 0.092048
v -0.100000 0.042000 -0.106209
v -0.086667 0.050700 -0.092048
v -0.066209 0.042000 0.140000
v -0.048553 0.056400 0.102667
v -0.066209 0.042000 -0.140000
v -0.057381 0.050700 -0.121333
v 0.066209 0.042000 0.140000
v 0.057381 0.050700 0.121333
v -0.086667 0.050700 0.092048
v -0.073333 0.056400 0.077887
v 0.086667 0.050700 -0.092048
v 0.073333 0.056400 -0.077887
v 0.066209 0.018000 0.140000
v 0.057381 0.009300 0.121333
v -0.066209 0.018000 0.140000
v -0.057381 0.009300 0.121333
v 0.066209 0.018000 -0.140000
v 0.057381 0.009300 -0.121333
v -0.086667 0.009300 -0.092048
v -0.073333 0.003600 -0.077887
v 0.086667 0.009300 0.092048
v 0.073333 0.003600 0.077887
v 0.100000 0.018000 -0.106209
v 0.086667 0.009300 -0.092048
v -0.066209 0.018000 -0.140000
v -0.057381 0.009300 -0.121333
v -0.100000 0.018000 0.106209
v -0.086667 0.009300 0.092048
vt 0.765899 0.787837
vt 0.873899 0.787837
vt 0.873899 0.914389
vt 0.765899 0.337837
vt 0.873899 0.337837
vt 0.873899 0.464389
vt 0.765899 0.509301
vt 0.873899 0.509301
vt 0.873899 0.742924
vt 0.144000 0.750349
vt 0.186000 0.704831
vt 0.186000 0.295169
vt 0.765899 0.059301
vt 0.873899 0.059301
vt 0.873899 0.292924
vt 0.765899 0.742924
vt 0.873899 0.959301
vt 0.765899 0.959301
vt 0.765899 0.292924
vt 0.606000 0.750349
vt 0.527942 0.830000
vt 0.500135 0.770000
vt 0.500135 0.230000
vt 0.564000 0.295169
vt 0.564000 0.704831
vt 0.144000 0.249651
vt 0.222058 0.170000
vt 0.249865 0.230000
vt 0.249865 0.770000
vt 0.606000 0.249651
vt 0.527942 0.170000
vt 0.222058 0.830000
vt 0.166442 0.950000
vt 0.194250 0.890000
vt 0.555750 0.890000
vt 0.690000 0.841385
vt 0.648000 0.795867
vt 0.648000 0.204133
vt 0.060000 0.158614
vt 0.102000 0.204133
vt 0.102000 0.795867
vt 0.583558 0.050000
vt 0.555750 0.110000
vt 0.194250 0.110000
vt 0.060000 0.841385
vt 0.690000 0.158614
vt 0.166442 0.050000
vt 0.583558 0.950000
vt 0.765899 0.914389
vt 0.765899 0.464389
vn 0.000000 0.000000 1.000000
vn 0.000000 0.000000 -1.000000
vn 1.000000 0.000000 0.000000
vn -0.260700 -0.965400 -0.000000
vn -1.000000 0.000000 0.000000
vn 0.707100 0.000000 -0.707100
vn 0.707100 -0.000000 0.707100
vn -0.707100 -0.000000 0.707100
vn -0.707100 0.000000 -0.707100
vn 0.128700 0.983300 -0.128700
vn 0.000000 1.000000 0.000000
vn 0.000000 -1.000000 -0.000000
vn -0.128700 0.983300 0.128700
vn 0.000000 -0.981900 -0.189400
vn 0.128700 0.983300 0.128700
vn 0.260700 -0.965400 -0.000000
vn -0.128700 0.983300 -0.128700
vn 0.000000 0.981900 0.189400
vn 0.128700 -0.983300 0.128700
vn -0.260700 0.965400 0.000000
vn -0.128700 -0.983300 -0.128700
vn 0.260700 0.965400 0.000000
vn 0.128700 -0.983300 -0.128700
vn -0.128700 -0.983300 0.128700
vn 0.000000 0.981900 -0.189400
vn 0.000000 -0.981900 0.189400
vn 0.000000 0.906400 -0.422400
vn 0.000000 0.956400 -0.292000
vn 0.546500 0.837500 0.000000
vn 0.393100 0.919500 0.000000
vn -0.546500 0.837500 0.000000
vn -0.393100 0.919500 0.000000
vn 0.000000 0.906400 0.422400
vn 0.000000 0.956400 0.292000
vn -0.288800 0.912800 -0.288800
vn -0.198900 0.959600 -0.198900
vn 0.288800 0.912800 0.288800
vn 0.198900 0.959600 0.198900
vn -0.288800 0.912800 0.288800
vn -0.198900 0.959600 0.198900
vn 0.288800 0.912800 -0.288800
vn 0.198900 0.959600 -0.198900
vn 0.000000 -0.906400 0.422400
vn 0.000000 -0.956400 0.292000
vn -0.288800 -0.912800 0.288800
vn -0.198900 -0.959600 0.198900
vn 0.288800 -0.912800 -0.288800
vn 0.198900 -0.959600 -0.198900
vn -0.288800 -0.912800 -0.288800
vn -0.198900 -0.959600 -0.198900
vn 0.288800 -0.912800 0.288800
vn 0.198900 -0.959600 0.198900
vn 0.546500 -0.837500 -0.000000
vn 0.393100 -0.919500 -0.000000
vn 0.000000 -0.906400 -0.422400
vn 0.000000 -0.956400 -0.292000
vn -0.546500 -0.837500 -0.000000
vn -0.393100 -0.919500 -0.000000
s 1
f 1/1/1 2/2/1 3/3/1
f 4/4/2 5/5/2 6/6/2
f 7/7/3 8/8/3 9/9/3
f 10/10/4 11/11/4 12/12/4
f 13/13/5 14/14/5 15/15/5
f 16/6/6 17/8/6 18/7/6
f 19/1/7 20/16/7 21/9/7
f 22/3/8 23/17/8 24/18/8
f 25/4/9 26/19/9 27/15/9
f 28/20/10 29/21/10 30/22/10
f 31/12/11 32/23/11 33/24/11
f 34/25/12 35/11/12 36/22/12
f 37/26/13 38/27/13 39/28/13
f 40/21/14 41/22/14 42/29/14
f 43/30/15 44/24/15 45/23/15
f 46/30/16 47/24/16 48/25/16
f 49/10/17 50/11/17 51/29/17
f 52/31/18 53/23/18 54/28/18
f 55/30/19 56/31/19 57/23/19
f 58/26/20 59/12/20 60/11/20
f 61/10/21 62/32/21 63/29/21
f 64/20/22 65/25/22 66/24/22
f 67/20/23 68/25/23 69/22/23
f 70/26/24 71/12/24 72/28/24
f 73/32/25 74/29/25 75/22/25
f 76/27/26 77/28/26 78/23/26
f 79/33/27 80/34/27 81/35/27
f 82/35/28 83/34/28 84/32/28
f 85/36/29 86/37/29 87/38/29
f 88/37/30 89/20/30 90/30/30
f 91/39/31 92/40/31 93/41/31
f 94/40/32 95/26/32 96/10/32
f 97/42/33 98/43/33 99/44/33
f 100/44/34 101/43/34 102/31/34
f 103/45/35 104/41/35 105/34/35
f 106/41/36 107/10/36 108/32/36
f 109/46/37 110/38/37 111/43/37
f 112/38/38 113/30/38 114/31/38
f 115/39/39 116/47/39 117/44/39
f 118/40/40 119/44/40 120/27/40
f 121/36/41 122/48/41 123/35/41
f 124/37/42 125/35/42 126/21/42
f 127/47/43 128/44/43 129/43/43
f 130/44/44 131/27/44 132/31/44
f 133/39/45 134/40/45 135/44/45
f 136/40/46 137/26/46 138/27/46
f 139/36/47 140/37/47 141/35/47
f 142/37/48 143/20/48 144/21/48
f 145/45/49 146/33/49 147/34/49
f 148/41/50 149/34/50 150/32/50
f 151/46/51 152/42/51 153/43/51
f 154/38/52 155/43/52 156/31/52
f 157/46/53 158/38/53 159/37/53
f 160/38/54 161/30/54 162/20/54
f 163/48/55 164/35/55 165/34/55
f 166/35/56 167/21/56 168/32/56
f 169/45/57 170/41/57 171/40/57
f 172/41/58 173/10/58 174/26/58
f 175/49/1 1/1/1 3/3/1
f 176/50/2 4/4/2 6/6/2
f 177/16/3 7/7/3 9/9/3
f 178/26/4 10/10/4 12/12/4
f 179/19/5 13/13/5 15/15/5
f 180/50/6 16/6/6 18/7/6
f 181/2/7 19/1/7 21/9/7
f 182/49/8 22/3/8 24/18/8
f 183/5/9 25/4/9 27/15/9
f 184/25/10 28/20/10 30/22/10
f 185/25/11 186/11/11 31/12/11
f 185/25/11 187/22/11 188/29/11
f 31/12/11 33/24/11 185/25/11
f 31/12/11 189/28/11 32/23/11
f 185/25/11 188/29/11 186/11/11
f 190/24/12 191/23/12 192/28/12
f 35/11/12 34/25/12 190/24/12
f 35/11/12 193/29/12 36/22/12
f 190/24/12 194/12/12 35/11/12
f 194/12/12 190/24/12 192/28/12
f 195/12/13 37/26/13 39/28/13
f 196/32/14 40/21/14 42/29/14
f 197/31/15 43/30/15 45/23/15
f 198/20/16 46/30/16 48/25/16
f 199/32/17 49/10/17 51/29/17
f 200/27/18 52/31/18 54/28/18
f 201/24/19 55/30/19 57/23/19
f 202/10/20 58/26/20 60/11/20
f 203/11/21 61/10/21 63/29/21
f 204/30/22 64/20/22 66/24/22
f 205/21/23 67/20/23 69/22/23
f 206/27/24 70/26/24 72/28/24
f 207/21/25 73/32/25 75/22/25
f 208/31/26 76/27/26 78/23/26
f 209/48/27 79/33/27 81/35/27
f 210/21/28 82/35/28 84/32/28
f 211/46/29 85/36/29 87/38/29
f 212/38/30 88/37/30 90/30/30
f 213/45/31 91/39/31 93/41/31
f 214/41/32 94/40/32 96/10/32
f 215/47/33 97/42/33 99/44/33
f 216/27/34 100/44/34 102/31/34
f 217/33/35 103/45/35 105/34/35
f 218/34/36 106/41/36 108/32/36
f 219/42/37 109/46/37 111/43/37
f 220/43/38 112/38/38 114/31/38
f 221/40/39 115/39/39 117/44/39
f 222/26/40 118/40/40 120/27/40
f 223/37/41 121/36/41 123/35/41
f 224/20/42 124/37/42 126/21/42
f 225/42/43 127/47/43 129/43/43
f 226/43/44 130/44/44 132/31/44
f 227/47/45 133/39/45 135/44/45
f 228/44/46 136/40/46 138/27/46
f 229/48/47 139/36/47 141/35/47
f 230/35/48 142/37/48 144/21/48
f 231/41/49 145/45/49 147/34/49
f 232/10/50 148/41/50 150/32/50
f 233/38/51 151/46/51 153/43/51
f 234/30/52 154/38/52 156/31/52
f 235/36/53 157/46/53 159/37/53
f 236/37/54 160/38/54 162/20/54
f 237/33/55 163/48/55 165/34/55
f 238/34/56 166/35/56 168/32/56
f 239/39/57 169/45/57 171/40/57
f 240/40/58 172/41/58 174/26/58
