# Blender v2.75 (sub 0) OBJ File: ''
# www.blender.org
o Plane.007
v 0.000000 0.050292 -0.229167
v 0.046667 0.057814 -0.229167
v 0.000000 0.061270 -0.253333
v -0.070833 0.050292 -0.300000
v -0.070833 0.057814 -0.253333
v -0.046667 0.061270 -0.300000
v -0.046667 0.061270 -0.346667
v 0.000000 0.061270 -0.346667
v -0.046667 0.057814 -0.370833
v -0.100000 0.040754 -0.200000
v 0.100000 0.040754 -0.200000
v 0.000000 0.050292 -0.229167
v 0.100000 0.040754 -0.400000
v -0.100000 0.040754 -0.400000
v 0.000000 0.050292 -0.370833
v -0.100000 0.040754 -0.200000
v -0.070833 0.050292 -0.300000
v -0.100000 0.040754 -0.400000
v 0.070833 0.050292 -0.300000
v 0.070833 0.057814 -0.346667
v 0.046667 0.061270 -0.300000
v 0.100000 0.040754 -0.200000
v 0.100000 0.040754 -0.400000
v 0.070833 0.050292 -0.300000
v -0.046667 0.057814 -0.229167
v -0.046667 0.061270 -0.253333
v -0.070833 0.057814 -0.253333
v 0.070833 0.057814 -0.346667
v 0.100000 0.040754 -0.400000
v 0.046667 0.057814 -0.370833
v -0.070833 0.057814 -0.346667
v -0.046667 0.061270 -0.346667
v -0.046667 0.057814 -0.370833
v 0.070833 0.057814 -0.253333
v 0.046667 0.061270 -0.253333
v 0.046667 0.057814 -0.229167
v -0.046667 0.061270 -0.300000
v 0.046667 0.061270 -0.300000
v 0.000000 0.061270 -0.346667
v 0.000000 0.061270 -0.346667
v 0.046667 0.061270 -0.346667
v 0.046667 0.057814 -0.370833
v 0.000000 0.061270 -0.346667
v 0.046667 0.057814 -0.370833
v 0.000000 0.050292 -0.370833
v -0.070833 0.057814 -0.346667
v -0.046667 0.061270 -0.300000
v -0.046667 0.061270 -0.346667
v -0.070833 0.057814 -0.253333
v -0.046667 0.061270 -0.253333
v -0.046667 0.061270 -0.300000
v -0.046667 0.061270 -0.253333
v -0.046667 0.057814 -0.229167
v 0.000000 0.061270 -0.253333
v 0.046667 0.057814 -0.229167
v 0.046667 0.061270 -0.253333
v 0.000000 0.061270 -0.253333
v 0.046667 0.061270 -0.253333
v 0.070833 0.057814 -0.253333
v 0.046667 0.061270 -0.300000
v 0.070833 0.057814 -0.346667
v 0.046667 0.061270 -0.346667
v 0.046667 0.061270 -0.300000
v 0.100000 0.040754 -0.200000
v 0.099642 0.030000 -0.200000
v 0.099642 0.030000 -0.400000
v -0.100000 0.040754 -0.200000
v -0.100359 0.030000 -0.200000
v 0.099642 0.030000 -0.200000
v -0.100000 0.040754 -0.400000
v 0.100000 0.040754 -0.400000
v 0.099642 0.030000 -0.400000
v -0.100000 0.040754 -0.400000
v -0.100359 0.030000 -0.400000
v -0.100359 0.030000 -0.200000
v 0.000000 -0.001270 -0.253333
v 0.046667 0.002187 -0.229167
v 0.000000 0.009708 -0.229167
v -0.046667 -0.001270 -0.300000
v -0.070833 0.002187 -0.253333
v -0.070833 0.009708 -0.300000
v -0.046667 -0.001270 -0.346667
v -0.046667 0.002187 -0.370833
v 0.000000 -0.001270 -0.346667
v 0.100000 0.019246 -0.200000
v 0.000000 0.009708 -0.229167
v 0.046667 0.002187 -0.229167
v -0.100000 0.019246 -0.400000
v 0.000000 0.009708 -0.370833
v -0.046667 0.002187 -0.370833
v -0.100000 0.019246 -0.200000
v -0.100000 0.019246 -0.400000
v -0.070833 0.009708 -0.300000
v 0.046667 -0.001270 -0.300000
v 0.070833 0.002187 -0.346667
v 0.070833 0.009708 -0.300000
v 0.100000 0.019246 -0.400000
v 0.070833 0.009708 -0.300000
v 0.070833 0.002187 -0.346667
v -0.046667 0.002187 -0.229167
v -0.100000 0.019246 -0.200000
v -0.070833 0.002187 -0.253333
v 0.070833 0.002187 -0.346667
v 0.046667 -0.001270 -0.346667
v 0.046667 0.002187 -0.370833
v -0.070833 0.002187 -0.346667
v -0.100000 0.019246 -0.400000
v -0.046667 0.002187 -0.370833
v 0.046667 0.002187 -0.229167
v 0.046667 -0.001270 -0.253333
v 0.070833 0.002187 -0.253333
v 0.046667 -0.001270 -0.300000
v -0.046667 -0.001270 -0.300000
v 0.000000 -0.001270 -0.346667
v 0.000000 -0.001270 -0.346667
v 0.046667 0.002187 -0.370833
v 0.046667 -0.001270 -0.346667
v 0.000000 0.009708 -0.370833
v 0.046667 0.002187 -0.370833
v 0.000000 -0.001270 -0.346667
v -0.070833 0.002187 -0.346667
v -0.046667 -0.001270 -0.346667
v -0.046667 -0.001270 -0.300000
v -0.070833 0.002187 -0.253333
v -0.046667 -0.001270 -0.300000
v -0.046667 -0.001270 -0.253333
v -0.046667 -0.001270 -0.253333
v 0.000000 -0.001270 -0.253333
v -0.046667 0.002187 -0.229167
v 0.046667 0.002187 -0.229167
v 0.000000 -0.001270 -0.253333
v 0.046667 -0.001270 -0.253333
v 0.046667 -0.001270 -0.253333
v 0.046667 -0.001270 -0.300000
v 0.070833 0.002187 -0.253333
v 0.070833 0.002187 -0.346667
v 0.046667 -0.001270 -0.300000
v 0.046667 -0.001270 -0.346667
v 0.100000 0.019246 -0.200000
v -0.100000 0.019246 -0.200000
v -0.100000 0.019246 -0.400000
v -0.100359 0.030000 -0.400000
v -0.100000 0.019246 -0.400000
v -0.046667 0.057814 -0.229167
v -0.070833 0.057814 -0.346667
v -0.046667 0.057814 -0.229167
v 0.046667 0.057814 -0.229167
v 0.046667 0.057814 -0.370833
v -0.046667 0.057814 -0.370833
v -0.070833 0.057814 -0.253333
v -0.070833 0.057814 -0.346667
v 0.070833 0.057814 -0.253333
v 0.070833 0.057814 -0.253333
v 0.070833 0.057814 -0.346667
v -0.100000 0.040754 -0.200000
v 0.046667 0.061270 -0.346667
v -0.100000 0.040754 -0.400000
v 0.100000 0.040754 -0.200000
v -0.046667 0.061270 -0.253333
v 0.000000 0.061270 -0.253333
v -0.046667 0.061270 -0.346667
v 0.046667 0.061270 -0.346667
v 0.046667 0.061270 -0.253333
v -0.046667 0.057814 -0.370833
v 0.100000 0.040754 -0.400000
v 0.100000 0.040754 -0.200000
v -0.100000 0.040754 -0.200000
v -0.046667 0.002187 -0.229167
v -0.070833 0.002187 -0.346667
v -0.100000 0.019246 -0.200000
v -0.046667 0.002187 -0.229167
v 0.100000 0.019246 -0.400000
v 0.046667 0.002187 -0.370833
v -0.070833 0.002187 -0.346667
v -0.070833 0.002187 -0.253333
v 0.070833 0.002187 -0.253333
v 0.100000 0.019246 -0.200000
v 0.070833 0.002187 -0.253333
v -0.046667 -0.001270 -0.253333
v 0.100000 0.019246 -0.400000
v -0.046667 -0.001270 -0.346667
v 0.100000 0.019246 -0.200000
v 0.046667 -0.001270 -0.253333
v 0.000000 -0.001270 -0.253333
v 0.046667 -0.001270 -0.346667
v -0.046667 -0.001270 -0.346667
v -0.046667 -0.001270 -0.253333
v -0.046667 0.002187 -0.370833
v 0.100000 0.019246 -0.400000
v 0.100000 0.019246 -0.200000
v 0.100000 0.019246 -0.400000
v -0.100000 0.019246 -0.200000
vt 0.411478 0.852638
vt 0.219455 0.852638
vt 0.411478 0.732021
vt 0.702941 0.499105
vt 0.702941 0.732021
vt 0.603501 0.499105
vt 0.603501 0.266190
vt 0.411478 0.266190
vt 0.603501 0.145572
vt 0.822955 0.999105
vt 0.000000 0.999105
vt 0.000000 0.000895
vt 0.822955 0.000895
vt 0.411478 0.145572
vt 0.120014 0.499105
vt 0.120014 0.266190
vt 0.219455 0.499105
vt 0.603501 0.852638
vt 0.603501 0.732021
vt 0.219455 0.145572
vt 0.702941 0.266190
vt 0.120014 0.732021
vt 0.219455 0.732021
vt 0.219455 0.266190
vt 0.955727 0.999105
vt 0.911453 0.999105
vt 0.911453 0.000895
vt 0.867204 0.000895
vt 0.955727 0.000895
vt 1.000000 0.000895
vt 1.000000 0.999105
vt 0.867204 0.999105
vn -0.000000 0.910500 0.413600
vn -0.145200 0.900800 0.409200
vn -0.413600 0.910500 0.000000
vn -0.409200 0.900800 -0.145200
vn 0.000000 0.989900 -0.141600
vn 0.059600 0.870300 0.488800
vn -0.059600 0.870300 0.488800
vn 0.000000 0.918200 0.396200
vn -0.059600 0.870300 -0.488800
vn 0.059600 0.870300 -0.488800
vn 0.000000 0.918200 -0.396200
vn -0.488800 0.870300 -0.059600
vn -0.396200 0.918200 0.000000
vn -0.488800 0.870300 0.059600
vn 0.413600 0.910500 0.000000
vn 0.409200 0.900800 0.145200
vn 0.488800 0.870300 -0.059600
vn 0.488800 0.870300 0.059600
vn 0.396200 0.918200 0.000000
vn -0.176500 0.968400 0.176500
vn -0.140200 0.980200 0.140200
vn 0.176500 0.968400 -0.176500
vn 0.198500 0.959800 -0.198500
vn -0.176500 0.968400 -0.176500
vn -0.140200 0.980200 -0.140200
vn 0.176500 0.968400 0.176500
vn 0.140200 0.980200 0.140200
vn 0.000000 1.000000 0.000000
vn -0.000000 0.910500 -0.413600
vn -0.145200 0.900800 -0.409200
vn -0.141600 0.989900 0.000000
vn 0.000000 0.989900 0.141600
vn 0.141600 0.989900 0.000000
vn 0.999400 -0.033300 -0.000000
vn 1.000000 0.000000 0.000000
vn 0.000000 0.000000 1.000000
vn 0.000000 0.000000 -1.000000
vn -0.999400 0.033300 0.000000
vn -1.000000 0.000000 -0.000000
vn 0.000000 -0.910500 0.413600
vn -0.145200 -0.900800 0.409200
vn -0.413600 -0.910500 -0.000000
vn -0.409200 -0.900800 -0.145200
vn 0.000000 -0.989900 -0.141600
vn -0.059600 -0.870300 0.488800
vn 0.000000 -0.918200 0.396200
vn -0.120100 -0.745400 0.655700
vn 0.059600 -0.870300 -0.488800
vn 0.000000 -0.918200 -0.396200
vn 0.120100 -0.745400 -0.655700
vn -0.488800 -0.870300 -0.059600
vn -0.488800 -0.870300 0.059600
vn -0.396200 -0.918200 -0.000000
vn 0.413600 -0.910500 -0.000000
vn 0.409200 -0.900800 0.145200
vn 0.488800 -0.870300 0.059600
vn 0.396200 -0.918200 -0.000000
vn 0.655700 -0.745400 0.120100
vn -0.176500 -0.968400 0.176500
vn -0.198500 -0.959800 0.198500
vn 0.176500 -0.968400 -0.176500
vn 0.140200 -0.980200 -0.140200
vn -0.176500 -0.968400 -0.176500
vn -0.198500 -0.959800 -0.198500
vn 0.176500 -0.968400 0.176500
vn 0.140200 -0.980200 0.140200
vn 0.000000 -1.000000 -0.000000
vn 0.000000 -0.910500 -0.413600
vn -0.145200 -0.900800 -0.409200
vn -0.141600 -0.989900 -0.000000
vn 0.000000 -0.989900 0.141600
vn 0.141600 -0.989900 -0.000000
vn 0.999400 0.033300 0.000000
vn -0.999400 -0.033300 -0.000000
vn 0.145200 0.900800 0.409200
vn -0.409200 0.900800 0.145200
vn 0.120100 0.745400 0.655700
vn -0.120100 0.745400 0.655700
vn -0.120100 0.745400 -0.655700
vn 0.120100 0.745400 -0.655700
vn -0.655700 0.745400 -0.120100
vn -0.655700 0.745400 0.120100
vn 0.409200 0.900800 -0.145200
vn 0.655700 0.745400 -0.120100
vn 0.655700 0.745400 0.120100
vn -0.198500 0.959800 0.198500
vn 0.140200 0.980200 -0.140200
vn -0.198500 0.959800 -0.198500
vn 0.198500 0.959800 0.198500
vn 0.145200 0.900800 -0.409200
vn 0.145200 -0.900800 0.409200
vn -0.409200 -0.900800 0.145200
vn 0.059600 -0.870300 0.488800
vn 0.120100 -0.745400 0.655700
vn -0.059600 -0.870300 -0.488800
vn -0.120100 -0.745400 -0.655700
vn -0.655700 -0.745400 0.120100
vn -0.655700 -0.745400 -0.120100
vn 0.409200 -0.900800 -0.145200
vn 0.488800 -0.870300 -0.059600
vn 0.655700 -0.745400 -0.120100
vn -0.140200 -0.980200 0.140200
vn 0.198500 -0.959800 -0.198500
vn -0.140200 -0.980200 -0.140200
vn 0.198500 -0.959800 0.198500
vn 0.145200 -0.900800 -0.409200
s 1
f 1/1/1 2/2/2 3/3/1
f 4/4/3 5/5/4 6/6/3
f 7/7/5 8/8/5 9/9/5
f 10/10/6 11/11/7 12/1/8
f 13/12/9 14/13/10 15/14/11
f 16/10/12 17/4/13 18/13/14
f 19/15/15 20/16/16 21/17/15
f 22/11/17 23/12/18 24/15/19
f 25/18/20 26/19/21 27/5/20
f 28/16/22 29/12/23 30/20/22
f 31/21/24 32/7/25 33/9/24
f 34/22/26 35/23/27 36/2/26
f 37/6/28 38/17/28 39/8/28
f 40/8/5 41/24/5 42/20/5
f 43/8/29 44/20/30 45/14/29
f 46/21/31 47/6/31 48/7/31
f 49/5/31 50/19/31 51/6/31
f 52/19/32 53/18/32 54/3/32
f 55/2/32 56/23/32 57/3/32
f 58/23/33 59/22/33 60/17/33
f 61/16/33 62/24/33 63/17/33
f 64/25/34 65/26/35 66/27/35
f 67/28/36 68/27/36 69/26/36
f 70/10/37 71/13/37 72/28/37
f 73/29/38 74/30/39 75/31/39
f 76/3/40 77/2/41 78/1/40
f 79/6/42 80/5/43 81/4/42
f 82/7/44 83/9/44 84/8/44
f 85/11/45 86/1/46 87/2/47
f 88/13/48 89/14/49 90/9/50
f 91/10/51 92/13/52 93/4/53
f 94/17/54 95/16/55 96/15/54
f 97/12/56 98/15/57 99/16/58
f 100/18/59 101/10/60 102/5/59
f 103/16/61 104/24/62 105/20/61
f 106/21/63 107/13/64 108/9/63
f 109/2/65 110/23/66 111/22/65
f 112/17/67 113/6/67 114/8/67
f 115/8/44 116/20/44 117/24/44
f 118/14/68 119/20/69 120/8/68
f 121/21/70 122/7/70 123/6/70
f 124/5/70 125/6/70 126/19/70
f 127/19/71 128/3/71 129/18/71
f 130/2/71 131/3/71 132/23/71
f 133/23/72 134/17/72 135/22/72
f 136/16/72 137/17/72 138/24/72
f 66/27/35 65/26/35 139/25/73
f 69/26/36 68/27/36 140/28/36
f 141/10/37 142/32/37 72/28/37
f 75/31/39 74/30/39 143/29/74
f 144/18/75 1/1/1 3/3/1
f 145/21/76 4/4/3 6/6/3
f 12/1/8 146/18/77 10/10/6
f 11/11/7 147/2/78 12/1/8
f 15/14/11 148/20/79 13/12/9
f 14/13/10 149/9/80 15/14/11
f 17/4/13 16/10/12 150/5/81
f 17/4/13 151/21/82 18/13/14
f 152/22/83 19/15/15 21/17/15
f 24/15/19 153/22/84 22/11/17
f 23/12/18 154/16/85 24/15/19
f 155/10/86 25/18/20 27/5/20
f 156/24/87 28/16/22 30/20/22
f 157/13/88 31/21/24 33/9/24
f 158/11/89 34/22/26 36/2/26
f 37/6/28 159/19/28 160/3/28
f 39/8/28 161/7/28 37/6/28
f 38/17/28 162/24/28 39/8/28
f 160/3/28 163/23/28 38/17/28
f 38/17/28 37/6/28 160/3/28
f 164/9/90 43/8/29 45/14/29
f 165/29/34 64/25/34 66/27/35
f 166/32/36 67/28/36 69/26/36
f 142/32/37 70/10/37 72/28/37
f 167/25/38 73/29/38 75/31/39
f 168/18/91 76/3/40 78/1/40
f 169/21/92 79/6/42 81/4/42
f 86/1/46 85/11/45 170/10/93
f 170/10/93 171/18/94 86/1/46
f 89/14/49 88/13/48 172/12/95
f 172/12/95 173/20/96 89/14/49
f 92/13/52 174/21/97 93/4/53
f 93/4/53 175/5/98 91/10/51
f 176/22/99 94/17/54 96/15/54
f 98/15/57 97/12/56 177/11/100
f 177/11/100 178/22/101 98/15/57
f 179/19/102 100/18/59 102/5/59
f 180/12/103 103/16/61 105/20/61
f 181/7/104 106/21/63 108/9/63
f 182/11/105 109/2/65 111/22/65
f 112/17/67 183/23/67 184/3/67
f 114/8/67 185/24/67 112/17/67
f 113/6/67 186/7/67 114/8/67
f 184/3/67 187/19/67 113/6/67
f 113/6/67 112/17/67 184/3/67
f 188/9/106 118/14/68 120/8/68
f 189/29/73 66/27/35 139/25/73
f 190/32/36 69/26/36 140/28/36
f 191/13/37 141/10/37 72/28/37
f 192/25/74 75/31/39 143/29/74
