# Blender v2.75 (sub 0) OBJ File: ''
# www.blender.org
o Circle.017
v 0.057042 0.040000 -0.961750
v 0.000000 0.040000 -0.963389
v 0.053960 0.053791 -0.946998
v 0.095026 0.040000 -0.954863
v 0.057042 0.040000 -0.961750
v 0.053960 0.053791 -0.946998
v 0.053960 0.053791 -0.946998
v 0.000000 0.060000 -0.934580
v 0.050195 0.060000 -0.928980
v 0.000000 0.040000 -0.963389
v -0.057042 0.040000 -0.961750
v -0.053960 0.053791 -0.946998
v 0.000000 0.060000 -0.842040
v -0.029947 0.060000 -0.882710
v -0.013722 0.053791 -0.829771
v 0.013722 0.053791 -0.829771
v 0.029947 0.060000 -0.882710
v 0.000000 0.060000 -0.842040
v 0.000000 0.060000 -0.934580
v 0.000000 0.040000 -0.963389
v -0.053960 0.053791 -0.946998
v -0.053960 0.053791 -0.946998
v -0.095026 0.040000 -0.954863
v -0.067681 0.053791 -0.923232
v 0.053960 0.053791 -0.946998
v 0.050195 0.060000 -0.928980
v 0.067681 0.053791 -0.923232
v 0.013722 0.053791 -0.829771
v 0.000000 0.060000 -0.842040
v -0.013722 0.053791 -0.829771
v -0.057042 0.040000 -0.961750
v -0.095026 0.040000 -0.954863
v -0.053960 0.053791 -0.946998
v 0.029947 0.060000 -0.882710
v 0.000000 0.060000 -0.934580
v -0.029947 0.060000 -0.882710
v -0.050195 0.060000 -0.928980
v 0.000000 0.060000 -0.934580
v -0.053960 0.053791 -0.946998
v -0.067681 0.053791 -0.923232
v -0.029947 0.060000 -0.882710
v -0.050195 0.060000 -0.928980
v 0.050195 0.060000 -0.928980
v 0.029947 0.060000 -0.882710
v 0.067681 0.053791 -0.923232
v 0.000000 0.040000 -0.963389
v 0.000000 0.060000 -0.934580
v 0.053960 0.053791 -0.946998
v 0.054897 0.040000 -0.868306
v 0.081998 0.040000 -0.918525
v 0.067681 0.053791 -0.923232
v 0.081998 0.040000 -0.918525
v 0.095026 0.040000 -0.954863
v 0.067681 0.053791 -0.923232
v 0.024956 0.040000 -0.819725
v 0.054897 0.040000 -0.868306
v 0.013722 0.053791 -0.829771
v 0.000000 0.040000 -0.790274
v 0.024956 0.040000 -0.819725
v 0.013722 0.053791 -0.829771
v -0.054897 0.040000 -0.868306
v -0.024956 0.040000 -0.819725
v -0.013722 0.053791 -0.829771
v -0.024956 0.040000 -0.819725
v 0.000000 0.040000 -0.790274
v -0.013722 0.053791 -0.829771
v -0.081998 0.040000 -0.918525
v -0.054897 0.040000 -0.868306
v -0.067681 0.053791 -0.923232
v -0.095026 0.040000 -0.954863
v -0.081998 0.040000 -0.918525
v -0.067681 0.053791 -0.923232
v -0.029947 0.060000 -0.882710
v -0.054897 0.040000 -0.868306
v -0.013722 0.053791 -0.829771
v -0.054897 0.040000 -0.868306
v -0.029947 0.060000 -0.882710
v -0.067681 0.053791 -0.923232
v 0.029947 0.060000 -0.882710
v 0.054897 0.040000 -0.868306
v 0.067681 0.053791 -0.923232
v 0.054897 0.040000 -0.868306
v 0.029947 0.060000 -0.882710
v 0.013722 0.053791 -0.829771
v 0.024956 0.040000 -0.819725
v 0.025749 0.030000 -0.817175
v 0.056641 0.030000 -0.867299
v 0.081998 0.040000 -0.918525
v 0.054897 0.040000 -0.868306
v 0.056641 0.030000 -0.867299
v 0.095026 0.040000 -0.954863
v 0.098044 0.030000 -0.956606
v 0.058854 0.030000 -0.963712
v -0.081998 0.040000 -0.918525
v -0.084603 0.030000 -0.919114
v -0.056641 0.030000 -0.867299
v -0.095026 0.040000 -0.954863
v -0.057042 0.040000 -0.961750
v -0.058854 0.030000 -0.963712
v -0.057042 0.040000 -0.961750
v 0.000000 0.040000 -0.963389
v 0.000000 0.030000 -0.965403
v -0.095026 0.040000 -0.954863
v -0.098044 0.030000 -0.956606
v -0.084603 0.030000 -0.919114
v 0.057042 0.040000 -0.961750
v 0.058854 0.030000 -0.963712
v 0.000000 0.030000 -0.965403
v -0.024956 0.040000 -0.819725
v -0.054897 0.040000 -0.868306
v -0.056641 0.030000 -0.867299
v 0.095026 0.040000 -0.954863
v 0.081998 0.040000 -0.918525
v 0.084603 0.030000 -0.919114
v 0.000000 0.040000 -0.790274
v 0.000000 0.030000 -0.786788
v 0.025749 0.030000 -0.817175
v 0.000000 0.040000 -0.790274
v -0.024956 0.040000 -0.819725
v -0.025749 0.030000 -0.817175
v 0.057042 0.020000 -0.961750
v 0.053960 0.006209 -0.946998
v 0.000000 0.020000 -0.963389
v 0.095026 0.020000 -0.954863
v 0.053960 0.006209 -0.946998
v 0.057042 0.020000 -0.961750
v 0.053960 0.006209 -0.946998
v 0.050195 0.000000 -0.928980
v 0.000000 0.000000 -0.934580
v 0.000000 0.020000 -0.963389
v -0.053960 0.006209 -0.946998
v -0.057042 0.020000 -0.961750
v 0.000000 0.000000 -0.842040
v -0.013722 0.006209 -0.829771
v -0.029947 0.000000 -0.882710
v 0.013722 0.006209 -0.829771
v 0.000000 0.000000 -0.842040
v 0.029947 0.000000 -0.882710
v 0.000000 0.000000 -0.934580
v -0.053960 0.006209 -0.946998
v 0.000000 0.020000 -0.963389
v -0.053960 0.006209 -0.946998
v -0.050195 0.000000 -0.928980
v -0.067681 0.006209 -0.923232
v 0.067681 0.006209 -0.923232
v 0.050195 0.000000 -0.928980
v 0.053960 0.006209 -0.946998
v -0.013722 0.006209 -0.829771
v 0.000000 0.000000 -0.842040
v 0.013722 0.006209 -0.829771
v -0.057042 0.020000 -0.961750
v -0.053960 0.006209 -0.946998
v -0.095026 0.020000 -0.954863
v 0.029947 0.000000 -0.882710
v -0.029947 0.000000 -0.882710
v 0.000000 0.000000 -0.934580
v -0.050195 0.000000 -0.928980
v -0.053960 0.006209 -0.946998
v 0.000000 0.000000 -0.934580
v -0.067681 0.006209 -0.923232
v -0.050195 0.000000 -0.928980
v -0.029947 0.000000 -0.882710
v 0.050195 0.000000 -0.928980
v 0.067681 0.006209 -0.923232
v 0.029947 0.000000 -0.882710
v 0.000000 0.020000 -0.963389
v 0.053960 0.006209 -0.946998
v 0.000000 0.000000 -0.934580
v 0.054897 0.020000 -0.868306
v 0.067681 0.006209 -0.923232
v 0.081998 0.020000 -0.918525
v 0.081998 0.020000 -0.918525
v 0.067681 0.006209 -0.923232
v 0.095026 0.020000 -0.954863
v 0.024956 0.020000 -0.819725
v 0.013722 0.006209 -0.829771
v 0.054897 0.020000 -0.868306
v 0.000000 0.020000 -0.790274
v 0.013722 0.006209 -0.829771
v 0.024956 0.020000 -0.819725
v -0.054897 0.020000 -0.868306
v -0.013722 0.006209 -0.829771
v -0.024956 0.020000 -0.819725
v -0.024956 0.020000 -0.819725
v -0.013722 0.006209 -0.829771
v 0.000000 0.020000 -0.790274
v -0.081998 0.020000 -0.918525
v -0.067681 0.006209 -0.923232
v -0.054897 0.020000 -0.868306
v -0.095026 0.020000 -0.954863
v -0.067681 0.006209 -0.923232
v -0.081998 0.020000 -0.918525
v -0.029947 0.000000 -0.882710
v -0.013722 0.006209 -0.829771
v -0.054897 0.020000 -0.868306
v -0.054897 0.020000 -0.868306
v -0.067681 0.006209 -0.923232
v -0.029947 0.000000 -0.882710
v 0.029947 0.000000 -0.882710
v 0.067681 0.006209 -0.923232
v 0.054897 0.020000 -0.868306
v 0.054897 0.020000 -0.868306
v 0.013722 0.006209 -0.829771
v 0.029947 0.000000 -0.882710
v 0.056641 0.030000 -0.867299
v 0.025749 0.030000 -0.817175
v 0.024956 0.020000 -0.819725
v 0.081998 0.020000 -0.918525
v 0.084603 0.030000 -0.919114
v 0.056641 0.030000 -0.867299
v 0.058854 0.030000 -0.963712
v 0.098044 0.030000 -0.956606
v 0.095026 0.020000 -0.954863
v -0.056641 0.030000 -0.867299
v -0.084603 0.030000 -0.919114
v -0.081998 0.020000 -0.918525
v -0.095026 0.020000 -0.954863
v -0.098044 0.030000 -0.956606
v -0.058854 0.030000 -0.963712
v -0.057042 0.020000 -0.961750
v -0.058854 0.030000 -0.963712
v 0.000000 0.030000 -0.965403
v -0.084603 0.030000 -0.919114
v -0.098044 0.030000 -0.956606
v -0.095026 0.020000 -0.954863
v 0.000000 0.030000 -0.965403
v 0.058854 0.030000 -0.963712
v 0.057042 0.020000 -0.961750
v -0.024956 0.020000 -0.819725
v -0.025749 0.030000 -0.817175
v -0.056641 0.030000 -0.867299
v 0.095026 0.020000 -0.954863
v 0.098044 0.030000 -0.956606
v 0.084603 0.030000 -0.919114
v 0.025749 0.030000 -0.817175
v 0.000000 0.030000 -0.786788
v 0.000000 0.020000 -0.790274
v 0.000000 0.020000 -0.790274
v 0.000000 0.030000 -0.786788
v -0.025749 0.030000 -0.817175
v -0.050195 0.060000 -0.928980
v 0.095026 0.040000 -0.954863
v 0.000000 0.040000 -0.790274
v 0.000000 0.060000 -0.842040
v -0.050195 0.060000 -0.928980
v 0.050195 0.060000 -0.928980
v 0.054897 0.040000 -0.868306
v 0.084603 0.030000 -0.919114
v 0.057042 0.040000 -0.961750
v -0.054897 0.040000 -0.868306
v -0.098044 0.030000 -0.956606
v -0.058854 0.030000 -0.963712
v -0.081998 0.040000 -0.918525
v 0.000000 0.040000 -0.963389
v -0.025749 0.030000 -0.817175
v 0.098044 0.030000 -0.956606
v 0.024956 0.040000 -0.819725
v 0.000000 0.030000 -0.786788
v -0.095026 0.020000 -0.954863
v 0.095026 0.020000 -0.954863
v 0.000000 0.020000 -0.790274
v 0.050195 0.000000 -0.928980
v -0.050195 0.000000 -0.928980
v 0.000000 0.000000 -0.842040
v 0.054897 0.020000 -0.868306
v 0.054897 0.020000 -0.868306
v 0.057042 0.020000 -0.961750
v -0.054897 0.020000 -0.868306
v -0.057042 0.020000 -0.961750
v 0.000000 0.020000 -0.963389
v -0.081998 0.020000 -0.918525
v 0.000000 0.020000 -0.963389
v -0.054897 0.020000 -0.868306
v 0.081998 0.020000 -0.918525
v 0.024956 0.020000 -0.819725
v -0.024956 0.020000 -0.819725
vt 0.790899 0.979549
vt 0.500000 0.988726
vt 0.775180 0.896959
vt 0.984605 0.940991
vt 0.500000 0.827434
vt 0.755980 0.796082
vt 0.209101 0.979549
vt 0.224820 0.896959
vt 0.500000 0.309335
vt 0.347278 0.537033
vt 0.430023 0.240643
vt 0.569977 0.240643
vt 0.652722 0.537033
vt 0.015395 0.940991
vt 0.154843 0.763897
vt 0.845157 0.763897
vt 0.244020 0.796082
vt 0.779958 0.456387
vt 0.918168 0.737548
vt 0.627268 0.184403
vt 0.500000 0.019516
vt 0.220042 0.456387
vt 0.372732 0.184403
vt 0.081832 0.737548
vt 0.631312 0.170125
vt 0.788852 0.450750
vt 1.000000 0.950749
vt 0.800141 0.990531
vt 0.068548 0.740842
vt 0.211148 0.450750
vt 0.199859 0.990531
vt 0.500000 1.000000
vt 0.000000 0.950749
vt 0.931452 0.740842
vt 0.500000 0.000000
vt 0.368688 0.170125
vn 0.019600 0.732400 -0.680600
vn 0.120500 0.737600 -0.664400
vn 0.035600 0.947100 -0.319000
vn -0.019600 0.732400 -0.680600
vn -0.258400 0.947100 0.190300
vn 0.258400 0.947100 0.190300
vn 0.036700 0.820900 -0.569900
vn -0.326900 0.926000 -0.188700
vn -0.285500 0.944100 -0.164800
vn 0.326900 0.926000 -0.188700
vn 0.391000 0.892200 -0.225800
vn 0.000000 0.926000 0.377400
vn 0.000000 0.892200 0.451500
vn -0.120500 0.737600 -0.664400
vn -0.000000 1.000000 0.000000
vn -0.035600 0.947100 -0.319000
vn -0.294000 0.947100 0.128700
vn 0.294000 0.947100 0.128700
vn -0.036700 0.820900 -0.569900
vn 0.599200 0.732400 0.323400
vn 0.635600 0.737600 0.227900
vn 0.579600 0.732400 0.357200
vn 0.515100 0.737600 0.436500
vn -0.579600 0.732400 0.357200
vn -0.515100 0.737600 0.436500
vn -0.599200 0.732400 0.323400
vn -0.635600 0.737600 0.227900
vn -0.511900 0.820900 0.253200
vn -0.475200 0.820900 0.316700
vn 0.475200 0.820900 0.316700
vn 0.511900 0.820900 0.253200
vn 0.834600 0.197300 0.514400
vn 0.862700 0.197300 0.465600
vn 0.174000 0.219800 -0.959900
vn -0.862700 0.197300 0.465600
vn -0.174000 0.219800 -0.959900
vn -0.028200 0.197300 -0.979900
vn -0.918300 0.219800 0.329200
vn 0.028200 0.197300 -0.979900
vn -0.834600 0.197300 0.514400
vn 0.918300 0.219800 0.329200
vn 0.744300 0.219800 0.630700
vn -0.744300 0.219800 0.630700
vn 0.019600 -0.732400 -0.680600
vn 0.120500 -0.737600 -0.664400
vn 0.035600 -0.947100 -0.319000
vn -0.019600 -0.732400 -0.680600
vn -0.258400 -0.947100 0.190300
vn 0.258400 -0.947100 0.190300
vn 0.036700 -0.820900 -0.569900
vn -0.326900 -0.926000 -0.188700
vn -0.391100 -0.892200 -0.225800
vn 0.326900 -0.926000 -0.188700
vn 0.391100 -0.892200 -0.225800
vn 0.000000 -0.926000 0.377400
vn 0.000000 -0.892200 0.451500
vn -0.120500 -0.737600 -0.664400
vn 0.000000 -1.000000 -0.000000
vn -0.035600 -0.947100 -0.319000
vn -0.294000 -0.947100 0.128700
vn 0.294000 -0.947100 0.128700
vn -0.036700 -0.820900 -0.569900
vn 0.599200 -0.732400 0.323400
vn 0.635600 -0.737600 0.227900
vn 0.579600 -0.732400 0.357200
vn 0.515100 -0.737600 0.436500
vn -0.579600 -0.732400 0.357200
vn -0.515100 -0.737600 0.436500
vn -0.599200 -0.732400 0.323400
vn -0.635600 -0.737600 0.227900
vn -0.511900 -0.820900 0.253200
vn -0.475200 -0.820900 0.316700
vn 0.475200 -0.820900 0.316700
vn 0.511900 -0.820900 0.253200
vn 0.834600 -0.197300 0.514400
vn 0.862700 -0.197300 0.465600
vn 0.174000 -0.219800 -0.959900
vn -0.862700 -0.197300 0.465600
vn -0.174000 -0.219800 -0.959900
vn -0.028200 -0.197300 -0.979900
vn -0.918300 -0.219800 0.329200
vn 0.028200 -0.197300 -0.979900
vn -0.834600 -0.197300 0.514400
vn 0.918300 -0.219800 0.329200
vn 0.744300 -0.219800 0.630700
vn -0.744300 -0.219800 0.630700
vn -0.391100 0.892200 -0.225800
vn 0.285500 0.944100 -0.164800
vn 0.000000 0.944100 0.329600
vn -0.285500 -0.944100 -0.164800
vn 0.285500 -0.944100 -0.164800
vn 0.000000 -0.944100 0.329600
s 1
f 1/1/1 2/2/1 3/3/1
f 4/4/2 5/1/2 6/3/2
f 7/3/3 8/5/3 9/6/3
f 10/2/4 11/7/4 12/8/4
f 13/9/5 14/10/5 15/11/5
f 16/12/6 17/13/6 18/9/6
f 19/5/7 20/2/7 21/8/7
f 22/8/8 23/14/9 24/15/8
f 25/3/10 26/6/11 27/16/10
f 28/12/12 29/9/13 30/11/12
f 31/7/14 32/14/14 33/8/14
f 34/13/15 35/5/15 36/10/15
f 37/17/16 38/5/16 39/8/16
f 40/15/17 41/10/17 42/17/17
f 43/6/18 44/13/18 45/16/18
f 46/2/19 47/5/19 48/3/19
f 49/18/20 50/19/20 51/16/20
f 52/19/21 53/4/21 54/16/21
f 55/20/22 56/18/22 57/12/22
f 58/21/23 59/20/23 60/12/23
f 61/22/24 62/23/24 63/11/24
f 64/23/25 65/21/25 66/11/25
f 67/24/26 68/22/26 69/15/26
f 70/14/27 71/24/27 72/15/27
f 73/10/28 74/22/28 75/11/28
f 76/22/29 77/10/29 78/15/29
f 79/13/30 80/18/30 81/16/30
f 82/18/31 83/13/31 84/12/31
f 85/20/32 86/25/32 87/26/32
f 88/19/33 89/18/33 90/26/33
f 91/4/34 92/27/34 93/28/34
f 94/24/35 95/29/35 96/30/35
f 97/14/36 98/7/36 99/31/36
f 100/7/37 101/2/37 102/32/37
f 103/14/38 104/33/38 105/29/38
f 106/1/39 107/28/39 108/32/39
f 109/23/40 110/22/40 111/30/40
f 112/4/41 113/19/41 114/34/41
f 115/21/42 116/35/42 117/25/42
f 118/21/43 119/23/43 120/36/43
f 121/1/44 122/3/44 123/2/44
f 124/4/45 125/3/45 126/1/45
f 127/3/46 128/6/46 129/5/46
f 130/2/47 131/8/47 132/7/47
f 133/9/48 134/11/48 135/10/48
f 136/12/49 137/9/49 138/13/49
f 139/5/50 140/8/50 141/2/50
f 142/8/51 143/17/52 144/15/51
f 145/16/53 146/6/54 147/3/53
f 148/11/55 149/9/56 150/12/55
f 151/7/57 152/8/57 153/14/57
f 154/13/58 155/10/58 156/5/58
f 157/17/59 158/8/59 159/5/59
f 160/15/60 161/17/60 162/10/60
f 163/6/61 164/16/61 165/13/61
f 166/2/62 167/3/62 168/5/62
f 169/18/63 170/16/63 171/19/63
f 172/19/64 173/16/64 174/4/64
f 175/20/65 176/12/65 177/18/65
f 178/21/66 179/12/66 180/20/66
f 181/22/67 182/11/67 183/23/67
f 184/23/68 185/11/68 186/21/68
f 187/24/69 188/15/69 189/22/69
f 190/14/70 191/15/70 192/24/70
f 193/10/71 194/11/71 195/22/71
f 196/22/72 197/15/72 198/10/72
f 199/13/73 200/16/73 201/18/73
f 202/18/74 203/12/74 204/13/74
f 205/26/75 206/25/75 207/20/75
f 208/19/76 209/34/76 210/26/76
f 211/28/77 212/27/77 213/4/77
f 214/30/78 215/29/78 216/24/78
f 217/14/79 218/33/79 219/31/79
f 220/7/80 221/31/80 222/32/80
f 223/29/81 224/33/81 225/14/81
f 226/32/82 227/28/82 228/1/82
f 229/23/83 230/36/83 231/30/83
f 232/4/84 233/27/84 234/34/84
f 235/25/85 236/35/85 237/21/85
f 238/21/86 239/35/86 240/36/86
f 241/17/87 22/8/8 24/15/8
f 242/4/88 25/3/10 27/16/10
f 243/21/89 28/12/12 30/11/12
f 36/10/15 244/9/15 34/13/15
f 35/5/15 245/17/15 36/10/15
f 34/13/15 246/6/15 35/5/15
f 247/18/32 85/20/32 87/26/32
f 248/34/33 88/19/33 90/26/33
f 249/1/34 91/4/34 93/28/34
f 250/22/35 94/24/35 96/30/35
f 251/33/36 97/14/36 99/31/36
f 252/31/37 100/7/37 102/32/37
f 253/24/38 103/14/38 105/29/38
f 254/2/39 106/1/39 108/32/39
f 255/36/40 109/23/40 111/30/40
f 256/27/41 112/4/41 114/34/41
f 257/20/42 115/21/42 117/25/42
f 258/35/43 118/21/43 120/36/43
f 259/14/90 142/8/51 144/15/51
f 260/4/91 145/16/53 147/3/53
f 261/21/92 148/11/55 150/12/55
f 156/5/58 262/6/58 154/13/58
f 155/10/58 263/17/58 156/5/58
f 154/13/58 264/9/58 155/10/58
f 265/18/75 205/26/75 207/20/75
f 266/18/76 208/19/76 210/26/76
f 267/1/77 211/28/77 213/4/77
f 268/22/78 214/30/78 216/24/78
f 269/7/79 217/14/79 219/31/79
f 270/2/80 220/7/80 222/32/80
f 271/24/81 223/29/81 225/14/81
f 272/2/82 226/32/82 228/1/82
f 273/22/83 229/23/83 231/30/83
f 274/19/84 232/4/84 234/34/84
f 275/20/85 235/25/85 237/21/85
f 276/23/86 238/21/86 240/36/86
