# Blender v2.75 (sub 0) OBJ File: ''
# www.blender.org
o Circle.016
v 0.086603 0.300000 0.350000
v 0.077948 0.300000 0.424710
v 0.077948 0.044232 0.424710
v 0.001857 0.035052 0.490735
v 0.001857 0.300000 0.490735
v -0.086603 0.300000 0.450277
v -0.086603 0.300000 0.370277
v 0.023226 0.300000 0.306232
v 0.023226 0.014688 0.306231
v 0.086603 0.044232 0.350000
v -0.086603 -0.000000 0.370277
v 0.002738 0.428140 0.398705
v -0.086603 -0.000000 0.450277
v -0.015050 0.026976 0.398705
vt 0.703478 0.634207
vt 0.612646 0.608382
vt 0.612646 0.091783
vt 0.447768 0.073241
vt 0.447768 0.608382
vt 0.381814 0.653427
vt 0.279791 0.655647
vt 0.071714 0.655647
vt 0.071714 0.079653
vt 0.018197 0.691396
vt 0.018197 0.175046
vt 0.345747 0.691075
vt 0.279791 0.050000
vt 0.547568 0.902271
vt 0.176919 0.950000
vt 0.829965 0.984460
vt 0.721348 0.862532
vt 0.852436 0.774631
vt 0.908295 0.520866
vt 1.000000 0.649535
vt 1.000000 0.883328
vt 0.764422 0.572242
vt 0.703478 0.117608
vt 0.381814 0.047488
vt 0.345747 0.085427
vn 0.869200 0.289900 -0.400500
vn 0.857700 0.257100 0.445300
vn 0.737400 -0.567800 0.365700
vn 0.195100 -0.540500 0.818400
vn 0.127600 0.277800 0.952100
vn -0.803900 0.301000 0.512900
vn -0.838000 0.281700 -0.467300
vn 0.047500 0.282900 -0.958000
vn 0.136700 -0.685000 -0.715600
vn 0.808200 -0.508300 -0.297300
vn -0.589600 -0.714600 -0.376500
vn 0.019200 0.999800 0.000000
vn -0.536800 -0.719400 0.440900
vn 0.271300 -0.957000 0.102500
s 1
f 1/1/1 2/2/2 3/3/3
f 4/4/4 5/5/5 6/6/6
f 7/7/7 8/8/8 9/9/9
f 8/8/8 1/10/1 10/11/10
f 3/3/3 2/2/2 5/5/5
f 6/12/6 7/7/7 11/13/11
f 1/1/1 12/14/12 2/2/2
f 5/5/5 12/14/12 6/6/6
f 7/7/7 12/15/12 8/8/8
f 8/8/8 12/15/12 1/10/1
f 2/2/2 12/14/12 5/5/5
f 6/12/6 12/15/12 7/7/7
f 13/16/13 11/17/11 14/18/14
f 10/19/10 3/20/3 14/18/14
f 4/21/4 13/16/13 14/18/14
f 11/17/11 9/22/9 14/18/14
f 9/22/9 10/19/10 14/18/14
f 3/20/3 4/21/4 14/18/14
f 10/23/10 1/1/1 3/3/3
f 13/24/13 4/4/4 6/6/6
f 11/13/11 7/7/7 9/9/9
f 9/9/9 8/8/8 10/11/10
f 4/4/4 3/3/3 5/5/5
f 13/25/13 6/12/6 11/13/11
