# Blender v2.75 (sub 0) OBJ File: ''
# www.blender.org
o Plane.008
v -0.094686 0.035484 0.432758
v -0.057570 0.052765 0.432832
v -0.095859 0.035484 0.391492
v 0.000000 0.035484 0.208976
v -0.036455 0.035484 0.258688
v -0.015392 0.052765 0.277562
v -0.096608 0.035484 0.390684
v -0.096544 0.035484 0.392080
v -0.095859 0.035484 0.391492
v -0.040000 0.059484 0.380884
v -0.027863 0.059484 0.333135
v -0.050048 0.052765 0.352174
v -0.028000 0.059484 0.432884
v -0.040000 0.059484 0.380884
v -0.057570 0.052765 0.432832
v -0.040000 0.059484 0.380884
v -0.050048 0.052765 0.352174
v -0.095859 0.035484 0.391492
v -0.066150 0.035484 0.306163
v -0.015392 0.052765 0.277562
v -0.036455 0.035484 0.258688
v -0.024592 0.052765 0.464947
v -0.071009 0.035484 0.470904
v -0.039887 0.035484 0.499423
v -0.057570 0.052765 0.432832
v -0.094686 0.035484 0.432758
v -0.071009 0.035484 0.470904
v -0.027863 0.059484 0.333135
v 0.000000 0.059484 0.291354
v -0.015392 0.052765 0.277562
v -0.024592 0.052765 0.464947
v -0.039887 0.035484 0.499423
v 0.000000 0.035484 0.506284
v -0.050048 0.052765 0.352174
v -0.066150 0.035484 0.306163
v -0.096608 0.035484 0.390684
v -0.057570 0.052765 0.432832
v -0.071009 0.035484 0.470904
v -0.024592 0.052765 0.464947
v 0.000000 0.059484 0.448884
v -0.028000 0.059484 0.432884
v -0.024592 0.052765 0.464947
v 0.015392 0.052765 0.277562
v 0.000000 0.035484 0.208976
v -0.015392 0.052765 0.277562
v -0.027863 0.059484 0.333135
v -0.015392 0.052765 0.277562
v -0.066150 0.035484 0.306163
v 0.024592 0.052765 0.464947
v 0.000000 0.059484 0.448884
v -0.024592 0.052765 0.464947
v -0.036455 0.035484 0.258688
v -0.035601 0.030000 0.253080
v -0.066614 0.030000 0.302661
v -0.039887 0.035484 0.499423
v -0.071009 0.035484 0.470904
v -0.071688 0.030000 0.474710
v 0.000000 0.035484 0.506284
v -0.039887 0.035484 0.499423
v -0.039186 0.030000 0.504494
v -0.094686 0.035484 0.432758
v -0.096544 0.035484 0.392080
v -0.098356 0.030000 0.392389
v 0.000000 0.035484 0.208976
v 0.000000 0.030000 0.201163
v -0.035601 0.030000 0.253080
v -0.066150 0.035484 0.306163
v -0.066614 0.030000 0.302661
v -0.098422 0.030000 0.390932
v -0.096544 0.035484 0.392080
v -0.096608 0.035484 0.390684
v -0.098422 0.030000 0.390932
v -0.071009 0.035484 0.470904
v -0.094686 0.035484 0.432758
v -0.096415 0.030000 0.434872
v 0.095859 0.035484 0.391492
v 0.057570 0.052765 0.432832
v 0.094686 0.035484 0.432758
v 0.000000 0.035484 0.208976
v 0.015392 0.052765 0.277562
v 0.036455 0.035484 0.258688
v 0.096608 0.035484 0.390684
v 0.095859 0.035484 0.391492
v 0.096544 0.035484 0.392080
v 0.040000 0.059484 0.380884
v 0.050048 0.052765 0.352174
v 0.027863 0.059484 0.333135
v 0.028000 0.059484 0.432884
v 0.057570 0.052765 0.432832
v 0.040000 0.059484 0.380884
v 0.040000 0.059484 0.380884
v 0.057570 0.052765 0.432832
v 0.095859 0.035484 0.391492
v 0.066150 0.035484 0.306163
v 0.036455 0.035484 0.258688
v 0.015392 0.052765 0.277562
v 0.024592 0.052765 0.464947
v 0.039887 0.035484 0.499423
v 0.071009 0.035484 0.470904
v 0.057570 0.052765 0.432832
v 0.071009 0.035484 0.470904
v 0.094686 0.035484 0.432758
v 0.027863 0.059484 0.333135
v 0.015392 0.052765 0.277562
v 0.000000 0.059484 0.291354
v 0.024592 0.052765 0.464947
v 0.000000 0.035484 0.506284
v 0.039887 0.035484 0.499423
v 0.050048 0.052765 0.352174
v 0.095859 0.035484 0.391492
v 0.096608 0.035484 0.390684
v 0.024592 0.052765 0.464947
v 0.071009 0.035484 0.470904
v 0.057570 0.052765 0.432832
v 0.000000 0.059484 0.448884
v 0.024592 0.052765 0.464947
v 0.028000 0.059484 0.432884
v 0.066150 0.035484 0.306163
v 0.015392 0.052765 0.277562
v 0.027863 0.059484 0.333135
v 0.066614 0.030000 0.302661
v 0.035601 0.030000 0.253080
v 0.036455 0.035484 0.258688
v 0.039887 0.035484 0.499423
v 0.039186 0.030000 0.504494
v 0.071688 0.030000 0.474710
v 0.000000 0.035484 0.506284
v 0.000000 0.030000 0.511660
v 0.039186 0.030000 0.504494
v 0.094686 0.035484 0.432758
v 0.096415 0.030000 0.434872
v 0.098356 0.030000 0.392389
v 0.035601 0.030000 0.253080
v 0.000000 0.030000 0.201163
v 0.000000 0.035484 0.208976
v 0.098422 0.030000 0.390932
v 0.066614 0.030000 0.302661
v 0.066150 0.035484 0.306163
v 0.096544 0.035484 0.392080
v 0.098356 0.030000 0.392389
v 0.098422 0.030000 0.390932
v 0.071009 0.035484 0.470904
v 0.071688 0.030000 0.474710
v 0.096415 0.030000 0.434872
v 0.027863 0.059484 0.333135
v -0.027863 0.059484 0.333135
v -0.040000 0.059484 0.380884
v -0.095859 0.024516 0.391492
v -0.057570 0.007235 0.432832
v -0.094686 0.024516 0.432758
v 0.000000 0.024516 0.208976
v -0.015392 0.007235 0.277562
v -0.036455 0.024516 0.258688
v -0.096608 0.024516 0.390684
v -0.095859 0.024516 0.391492
v -0.096544 0.024516 0.392080
v -0.040000 0.000516 0.380884
v -0.050048 0.007235 0.352174
v -0.027863 0.000516 0.333135
v -0.028000 0.000516 0.432884
v -0.057570 0.007235 0.432832
v -0.040000 0.000516 0.380884
v -0.040000 0.000516 0.380884
v -0.057570 0.007235 0.432832
v -0.095859 0.024516 0.391492
v -0.066150 0.024516 0.306163
v -0.036455 0.024516 0.258688
v -0.015392 0.007235 0.277562
v -0.024592 0.007235 0.464947
v -0.039887 0.024516 0.499423
v -0.071009 0.024516 0.470904
v -0.057570 0.007235 0.432832
v -0.071009 0.024516 0.470904
v -0.094686 0.024516 0.432758
v -0.027863 0.000516 0.333135
v -0.015392 0.007235 0.277562
v 0.000000 0.000516 0.291354
v -0.024592 0.007235 0.464947
v 0.000000 0.024516 0.506284
v -0.039887 0.024516 0.499423
v -0.050048 0.007235 0.352174
v -0.095859 0.024516 0.391492
v -0.096608 0.024516 0.390684
v -0.024592 0.007235 0.464947
v -0.071009 0.024516 0.470904
v -0.057570 0.007235 0.432832
v 0.000000 0.000516 0.448884
v -0.024592 0.007235 0.464947
v -0.028000 0.000516 0.432884
v -0.015392 0.007235 0.277562
v 0.000000 0.024516 0.208976
v 0.015392 0.007235 0.277562
v -0.066150 0.024516 0.306163
v -0.015392 0.007235 0.277562
v -0.027863 0.000516 0.333135
v -0.024592 0.007235 0.464947
v 0.000000 0.000516 0.448884
v 0.024592 0.007235 0.464947
v -0.066614 0.030000 0.302661
v -0.035601 0.030000 0.253080
v -0.036455 0.024516 0.258688
v -0.039887 0.024516 0.499423
v -0.039186 0.030000 0.504494
v -0.071688 0.030000 0.474710
v 0.000000 0.024516 0.506284
v 0.000000 0.030000 0.511660
v -0.039186 0.030000 0.504494
v -0.094686 0.024516 0.432758
v -0.096415 0.030000 0.434872
v -0.098356 0.030000 0.392389
v -0.035601 0.030000 0.253080
v 0.000000 0.030000 0.201163
v 0.000000 0.024516 0.208976
v -0.098422 0.030000 0.390932
v -0.066614 0.030000 0.302661
v -0.066150 0.024516 0.306163
v -0.096544 0.024516 0.392080
v -0.098356 0.030000 0.392389
v -0.098422 0.030000 0.390932
v -0.071009 0.024516 0.470904
v -0.071688 0.030000 0.474710
v -0.096415 0.030000 0.434872
v 0.094686 0.024516 0.432758
v 0.057570 0.007235 0.432832
v 0.095859 0.024516 0.391492
v 0.000000 0.024516 0.208976
v 0.036455 0.024516 0.258688
v 0.015392 0.007235 0.277562
v 0.096608 0.024516 0.390684
v 0.096544 0.024516 0.392080
v 0.095859 0.024516 0.391492
v 0.040000 0.000516 0.380884
v 0.027863 0.000516 0.333135
v 0.050048 0.007235 0.352174
v 0.028000 0.000516 0.432884
v 0.040000 0.000516 0.380884
v 0.057570 0.007235 0.432832
v 0.040000 0.000516 0.380884
v 0.050048 0.007235 0.352174
v 0.095859 0.024516 0.391492
v 0.066150 0.024516 0.306163
v 0.015392 0.007235 0.277562
v 0.036455 0.024516 0.258688
v 0.024592 0.007235 0.464947
v 0.071009 0.024516 0.470904
v 0.039887 0.024516 0.499423
v 0.057570 0.007235 0.432832
v 0.094686 0.024516 0.432758
v 0.071009 0.024516 0.470904
v 0.027863 0.000516 0.333135
v 0.000000 0.000516 0.291354
v 0.015392 0.007235 0.277562
v 0.024592 0.007235 0.464947
v 0.039887 0.024516 0.499423
v 0.000000 0.024516 0.506284
v 0.050048 0.007235 0.352174
v 0.066150 0.024516 0.306163
v 0.096608 0.024516 0.390684
v 0.057570 0.007235 0.432832
v 0.071009 0.024516 0.470904
v 0.024592 0.007235 0.464947
v 0.000000 0.000516 0.448884
v 0.028000 0.000516 0.432884
v 0.024592 0.007235 0.464947
v 0.027863 0.000516 0.333135
v 0.015392 0.007235 0.277562
v 0.066150 0.024516 0.306163
v 0.036455 0.024516 0.258688
v 0.035601 0.030000 0.253080
v 0.066614 0.030000 0.302661
v 0.039887 0.024516 0.499423
v 0.071009 0.024516 0.470904
v 0.071688 0.030000 0.474710
v 0.000000 0.024516 0.506284
v 0.039887 0.024516 0.499423
v 0.039186 0.030000 0.504494
v 0.094686 0.024516 0.432758
v 0.096544 0.024516 0.392080
v 0.098356 0.030000 0.392389
v 0.000000 0.024516 0.208976
v 0.000000 0.030000 0.201163
v 0.035601 0.030000 0.253080
v 0.066150 0.024516 0.306163
v 0.066614 0.030000 0.302661
v 0.098422 0.030000 0.390932
v 0.096544 0.024516 0.392080
v 0.096608 0.024516 0.390684
v 0.098422 0.030000 0.390932
v 0.071009 0.024516 0.470904
v 0.094686 0.024516 0.432758
v 0.096415 0.030000 0.434872
v -0.040000 0.000516 0.380884
v 0.040000 0.000516 0.380884
v -0.028000 0.000516 0.432884
v -0.096544 0.035484 0.392080
v -0.057570 0.052765 0.432832
v -0.095859 0.035484 0.391492
v -0.028000 0.059484 0.432884
v 0.000000 0.059484 0.291354
v -0.050048 0.052765 0.352174
v 0.000000 0.035484 0.506284
v -0.066150 0.035484 0.306163
v -0.039186 0.030000 0.504494
v 0.000000 0.030000 0.511660
v -0.096415 0.030000 0.434872
v -0.036455 0.035484 0.258688
v -0.096608 0.035484 0.390684
v -0.098356 0.030000 0.392389
v -0.071688 0.030000 0.474710
v 0.096544 0.035484 0.392080
v 0.050048 0.052765 0.352174
v 0.066150 0.035484 0.306163
v 0.028000 0.059484 0.432884
v 0.050048 0.052765 0.352174
v 0.066150 0.035484 0.306163
v 0.071009 0.035484 0.470904
v 0.039887 0.035484 0.499423
v 0.096544 0.035484 0.392080
v 0.036455 0.035484 0.258688
v 0.096608 0.035484 0.390684
v 0.096608 0.035484 0.390684
v 0.094686 0.035484 0.432758
v 0.040000 0.059484 0.380884
v -0.028000 0.059484 0.432884
v 0.000000 0.059484 0.448884
v 0.028000 0.059484 0.432884
v 0.000000 0.059484 0.291354
v -0.096544 0.024516 0.392080
v -0.050048 0.007235 0.352174
v -0.066150 0.024516 0.306163
v -0.028000 0.000516 0.432884
v 0.000000 0.000516 0.291354
v -0.050048 0.007235 0.352174
v 0.000000 0.024516 0.506284
v -0.066150 0.024516 0.306163
v -0.071009 0.024516 0.470904
v -0.039887 0.024516 0.499423
v -0.096544 0.024516 0.392080
v -0.036455 0.024516 0.258688
v -0.096608 0.024516 0.390684
v -0.096608 0.024516 0.390684
v -0.094686 0.024516 0.432758
v 0.096544 0.024516 0.392080
v 0.057570 0.007235 0.432832
v 0.095859 0.024516 0.391492
v 0.028000 0.000516 0.432884
v 0.050048 0.007235 0.352174
v 0.066150 0.024516 0.306163
v 0.039186 0.030000 0.504494
v 0.000000 0.030000 0.511660
v 0.096415 0.030000 0.434872
v 0.036455 0.024516 0.258688
v 0.096608 0.024516 0.390684
v 0.098356 0.030000 0.392389
v 0.071688 0.030000 0.474710
v -0.027863 0.000516 0.333135
v 0.000000 0.000516 0.291354
v 0.027863 0.000516 0.333135
v 0.028000 0.000516 0.432884
v 0.000000 0.000516 0.448884
vt 0.043033 0.266408
vt 0.222158 0.266184
vt 0.037368 0.392666
vt 0.500000 0.951094
vt 0.324063 0.798996
vt 0.425716 0.741248
vt 0.033757 0.395138
vt 0.034065 0.390869
vt 0.306954 0.425123
vt 0.365527 0.571217
vt 0.258462 0.512963
vt 0.364868 0.266023
vt 0.180748 0.653739
vt 0.381317 0.167925
vt 0.157299 0.149697
vt 0.307498 0.062440
vt 0.500000 0.699049
vt 0.500000 0.041447
vt 0.500000 0.217070
vt 0.574284 0.741248
vt 0.618683 0.167925
vt 0.328184 0.816154
vt 0.178511 0.664454
vt 0.154023 0.138052
vt 0.310885 0.046924
vt 0.025321 0.389923
vt 0.500000 0.975000
vt 0.025000 0.394381
vt 0.034687 0.259941
vt 0.962632 0.392666
vt 0.777842 0.266184
vt 0.956967 0.266408
vt 0.675937 0.798996
vt 0.966243 0.395138
vt 0.965935 0.390869
vt 0.693046 0.425123
vt 0.741538 0.512963
vt 0.634473 0.571217
vt 0.635132 0.266023
vt 0.819252 0.653739
vt 0.692502 0.062440
vt 0.842701 0.149697
vt 0.821489 0.664454
vt 0.671816 0.816154
vt 0.689115 0.046924
vt 0.845977 0.138052
vt 0.500000 0.025000
vt 0.965313 0.259941
vt 0.974679 0.389923
vt 0.975000 0.394381
vn -0.418000 0.908400 0.011900
vn -0.422100 0.906500 0.012000
vn -0.200200 0.979700 0.005700
vn -0.421900 0.852200 -0.309400
vn 0.000000 1.000000 0.000000
vn -0.359700 0.928600 -0.091400
vn -0.221400 0.973800 0.051100
vn -0.401900 0.914500 -0.047100
vn -0.405200 0.911400 -0.071500
vn -0.400100 0.915800 -0.035100
vn -0.446800 0.849900 -0.279500
vn -0.294000 0.900300 0.320800
vn -0.408700 0.876700 0.253700
vn -0.259600 0.950100 -0.173100
vn -0.072400 0.904100 0.421100
vn -0.458900 0.873500 -0.162800
vn -0.460900 0.871800 -0.166100
vn -0.280800 0.955600 0.089300
vn -0.265300 0.924900 0.272400
vn -0.297500 0.904500 0.305500
vn -0.263100 0.926200 0.270200
vn -0.123500 0.968500 0.216100
vn 0.000000 0.948500 -0.316800
vn 0.000000 0.969700 -0.244300
vn -0.420700 0.886700 -0.191800
vn -0.415100 0.887400 -0.200400
vn -0.419000 0.886900 -0.194500
vn 0.000000 0.922600 0.385800
vn 0.000000 0.922500 0.385900
vn -0.784400 0.379600 -0.490600
vn -0.580500 0.511500 0.633500
vn -0.129200 0.690900 0.711300
vn -0.126700 0.664700 0.736300
vn -0.127000 0.667900 0.733300
vn -0.947900 0.315600 0.043300
vn -0.646900 0.619000 -0.445200
vn -0.642200 0.627400 -0.440400
vn -0.723600 0.443400 -0.529000
vn -0.902100 0.283800 -0.325100
vn -0.768600 0.426200 0.477100
vn 0.200200 0.979700 0.005700
vn 0.422100 0.906500 0.012000
vn 0.418000 0.908400 0.011900
vn 0.421900 0.852200 -0.309400
vn 0.359700 0.928600 -0.091400
vn 0.221400 0.973800 0.051100
vn 0.401900 0.914500 -0.047100
vn 0.397200 0.917600 -0.015700
vn 0.400100 0.915800 -0.035100
vn 0.446800 0.849900 -0.279500
vn 0.294000 0.900300 0.320800
vn 0.408700 0.876700 0.253700
vn 0.259600 0.950100 -0.173100
vn 0.072400 0.904100 0.421100
vn 0.458900 0.873500 -0.162800
vn 0.202000 0.961300 0.187100
vn 0.280800 0.955600 0.089300
vn 0.263100 0.926200 0.270200
vn 0.297500 0.904500 0.305500
vn 0.265300 0.924900 0.272400
vn 0.123500 0.968500 0.216100
vn 0.419000 0.886900 -0.194500
vn 0.415100 0.887400 -0.200400
vn 0.420700 0.886700 -0.191800
vn 0.784400 0.379600 -0.490600
vn 0.580500 0.511500 0.633500
vn 0.129200 0.690900 0.711300
vn 0.129500 0.694100 0.708100
vn 0.127000 0.667900 0.733300
vn 0.947900 0.315600 0.043300
vn 0.723600 0.443400 -0.529000
vn 0.642200 0.627400 -0.440400
vn 0.646900 0.619000 -0.445200
vn 0.902100 0.283800 -0.325100
vn 0.768600 0.426200 0.477100
vn -0.200200 -0.979700 0.005700
vn -0.422100 -0.906500 0.012000
vn -0.418000 -0.908400 0.011900
vn -0.421900 -0.852200 -0.309400
vn 0.000000 -1.000000 0.000000
vn -0.359700 -0.928600 -0.091400
vn -0.221400 -0.973800 0.051100
vn -0.401900 -0.914500 -0.047100
vn -0.397200 -0.917600 -0.015700
vn -0.400100 -0.915800 -0.035100
vn -0.446800 -0.849900 -0.279500
vn -0.294000 -0.900300 0.320800
vn -0.408700 -0.876700 0.253700
vn -0.259600 -0.950100 -0.173100
vn -0.072400 -0.904100 0.421100
vn -0.458900 -0.873500 -0.162800
vn -0.202000 -0.961300 0.187100
vn -0.280800 -0.955600 0.089300
vn -0.263100 -0.926200 0.270200
vn -0.297500 -0.904500 0.305500
vn -0.265300 -0.924900 0.272400
vn -0.123500 -0.968500 0.216100
vn 0.000000 -0.948500 -0.316800
vn 0.000000 -0.969700 -0.244300
vn -0.419000 -0.886900 -0.194500
vn -0.415100 -0.887400 -0.200400
vn -0.420700 -0.886700 -0.191800
vn 0.000000 -0.922600 0.385800
vn 0.000000 -0.922500 0.385900
vn -0.784400 -0.379600 -0.490600
vn -0.580500 -0.511500 0.633500
vn -0.129200 -0.690900 0.711300
vn -0.129500 -0.694100 0.708100
vn -0.127000 -0.667900 0.733300
vn -0.947900 -0.315600 0.043300
vn -0.723600 -0.443400 -0.529000
vn -0.642200 -0.627400 -0.440400
vn -0.646900 -0.619000 -0.445200
vn -0.902100 -0.283800 -0.325100
vn -0.768600 -0.426200 0.477100
vn 0.418000 -0.908400 0.011900
vn 0.422100 -0.906500 0.012000
vn 0.200200 -0.979700 0.005700
vn 0.421900 -0.852200 -0.309400
vn 0.359700 -0.928600 -0.091400
vn 0.221400 -0.973800 0.051100
vn 0.401900 -0.914500 -0.047100
vn 0.405200 -0.911400 -0.071500
vn 0.400100 -0.915800 -0.035100
vn 0.446800 -0.849900 -0.279500
vn 0.294000 -0.900300 0.320800
vn 0.408700 -0.876700 0.253700
vn 0.259600 -0.950100 -0.173100
vn 0.072400 -0.904100 0.421100
vn 0.458900 -0.873500 -0.162800
vn 0.460900 -0.871800 -0.166100
vn 0.280800 -0.955600 0.089300
vn 0.265300 -0.924900 0.272400
vn 0.297500 -0.904500 0.305500
vn 0.263100 -0.926200 0.270200
vn 0.123500 -0.968500 0.216100
vn 0.420700 -0.886700 -0.191800
vn 0.415100 -0.887400 -0.200400
vn 0.419000 -0.886900 -0.194500
vn 0.784400 -0.379600 -0.490600
vn 0.580500 -0.511500 0.633500
vn 0.129200 -0.690900 0.711300
vn 0.126700 -0.664700 0.736300
vn 0.127000 -0.667900 0.733300
vn 0.947900 -0.315600 0.043300
vn 0.646900 -0.619000 -0.445200
vn 0.642200 -0.627400 -0.440400
vn 0.723600 -0.443400 -0.529000
vn 0.902100 -0.283800 -0.325100
vn 0.768600 -0.426200 0.477100
vn -0.397200 0.917600 -0.015700
vn -0.202000 0.961300 0.187100
vn -0.216400 0.950700 0.222200
vn 0.000000 0.899000 -0.438000
vn -0.425900 0.885900 -0.183700
vn 0.000000 0.922600 0.385700
vn -0.129500 0.694100 0.708100
vn -0.727200 0.432100 -0.533300
vn 0.405200 0.911400 -0.071500
vn 0.460900 0.871800 -0.166100
vn 0.216400 0.950700 0.222200
vn 0.425900 0.885900 -0.183700
vn 0.126700 0.664700 0.736300
vn 0.727200 0.432100 -0.533300
vn -0.405200 -0.911400 -0.071500
vn -0.460900 -0.871800 -0.166100
vn -0.216400 -0.950700 0.222200
vn 0.000000 -0.899000 -0.438000
vn -0.425900 -0.885900 -0.183700
vn 0.000000 -0.922600 0.385700
vn -0.126700 -0.664700 0.736300
vn -0.727200 -0.432100 -0.533300
vn 0.397200 -0.917600 -0.015700
vn 0.202000 -0.961300 0.187100
vn 0.216400 -0.950700 0.222200
vn 0.425900 -0.885900 -0.183700
vn 0.129500 -0.694100 0.708100
vn 0.727200 -0.432100 -0.533300
s 1
f 1/1/1 2/2/2 3/3/3
f 4/4/4 5/5/4 6/6/4
f 7/7/5 8/8/5 9/3/5
f 10/9/6 11/10/6 12/11/6
f 13/12/7 14/9/7 15/2/7
f 16/9/8 17/11/9 18/3/10
f 19/13/11 20/6/11 21/5/11
f 22/14/12 23/15/12 24/16/12
f 25/2/13 26/1/13 27/15/13
f 28/10/14 29/17/14 30/6/14
f 31/14/15 32/16/15 33/18/15
f 34/11/16 35/13/17 36/7/18
f 37/2/19 38/15/20 39/14/21
f 40/19/22 41/12/22 42/14/22
f 43/20/23 44/4/24 45/6/23
f 46/10/25 47/6/26 48/13/27
f 49/21/28 50/19/29 51/14/28
f 52/5/30 53/22/30 54/23/30
f 55/16/31 56/15/31 57/24/31
f 58/18/32 59/16/33 60/25/34
f 61/1/35 62/8/35 63/26/35
f 64/4/36 65/27/37 66/22/38
f 67/13/39 68/23/39 69/28/39
f 70/8/35 71/7/35 72/28/35
f 73/15/40 74/1/40 75/29/40
f 76/30/41 77/31/42 78/32/43
f 79/4/44 80/20/44 81/33/44
f 82/34/5 83/30/5 84/35/5
f 85/36/45 86/37/45 87/38/45
f 88/39/46 89/31/46 90/36/46
f 91/36/47 92/31/48 93/30/49
f 94/40/50 95/33/50 96/20/50
f 97/21/51 98/41/51 99/42/51
f 100/31/52 101/42/52 102/32/52
f 103/38/53 104/20/53 105/17/53
f 106/21/54 107/18/54 108/41/54
f 109/37/55 110/30/56 111/34/57
f 112/21/58 113/42/59 114/31/60
f 115/19/61 116/21/61 117/39/61
f 118/40/62 119/20/63 120/38/64
f 121/43/65 122/44/65 123/33/65
f 124/41/66 125/45/66 126/46/66
f 127/18/67 128/47/68 129/45/69
f 130/32/70 131/48/70 132/49/70
f 133/44/71 134/27/72 135/4/73
f 136/50/74 137/43/74 138/40/74
f 139/35/70 140/49/70 141/50/70
f 142/42/75 143/46/75 144/48/75
f 145/38/5 146/10/5 147/9/5
f 148/3/76 149/2/77 150/1/78
f 151/4/79 152/6/79 153/5/79
f 154/7/80 155/3/80 156/8/80
f 157/9/81 158/11/81 159/10/81
f 160/12/82 161/2/82 162/9/82
f 163/9/83 164/2/84 165/3/85
f 166/13/86 167/5/86 168/6/86
f 169/14/87 170/16/87 171/15/87
f 172/2/88 173/15/88 174/1/88
f 175/10/89 176/6/89 177/17/89
f 178/14/90 179/18/90 180/16/90
f 181/11/91 182/3/92 183/7/93
f 184/14/94 185/15/95 186/2/96
f 187/19/97 188/14/97 189/12/97
f 190/6/98 191/4/99 192/20/98
f 193/13/100 194/6/101 195/10/102
f 196/14/103 197/19/104 198/21/103
f 199/23/105 200/22/105 201/5/105
f 202/16/106 203/25/106 204/24/106
f 205/18/107 206/47/108 207/25/109
f 208/1/110 209/29/110 210/26/110
f 211/22/111 212/27/112 213/4/113
f 214/28/114 215/23/114 216/13/114
f 217/8/110 218/26/110 219/28/110
f 220/15/115 221/24/115 222/29/115
f 223/32/116 224/31/117 225/30/118
f 226/4/119 227/33/119 228/20/119
f 229/34/80 230/35/80 231/30/80
f 232/36/120 233/38/120 234/37/120
f 235/39/121 236/36/121 237/31/121
f 238/36/122 239/37/123 240/30/124
f 241/40/125 242/20/125 243/33/125
f 244/21/126 245/42/126 246/41/126
f 247/31/127 248/32/127 249/42/127
f 250/38/128 251/17/128 252/20/128
f 253/21/129 254/41/129 255/18/129
f 256/37/130 257/40/131 258/34/132
f 259/31/133 260/42/134 261/21/135
f 262/19/136 263/39/136 264/21/136
f 265/38/137 266/20/138 267/40/139
f 268/33/140 269/44/140 270/43/140
f 271/41/141 272/42/141 273/46/141
f 274/18/142 275/41/143 276/45/144
f 277/32/145 278/35/145 279/49/145
f 280/4/146 281/27/147 282/44/148
f 283/40/149 284/43/149 285/50/149
f 286/35/145 287/34/145 288/50/145
f 289/42/150 290/32/150 291/48/150
f 292/9/80 293/36/80 294/12/80
f 295/8/5 1/1/1 3/3/3
f 296/2/151 16/9/8 18/3/10
f 297/3/152 34/11/16 36/7/18
f 298/12/153 37/2/19 39/14/21
f 299/17/154 43/20/23 45/6/23
f 300/11/155 46/10/25 48/13/27
f 301/18/156 49/21/28 51/14/28
f 302/13/30 52/5/30 54/23/30
f 303/25/31 55/16/31 57/24/31
f 304/47/157 58/18/32 60/25/34
f 305/29/35 61/1/35 63/26/35
f 306/5/158 64/4/36 66/22/38
f 307/7/39 67/13/39 69/28/39
f 308/26/35 70/8/35 72/28/35
f 309/24/40 73/15/40 75/29/40
f 310/35/5 76/30/41 78/32/43
f 311/37/159 91/36/47 93/30/49
f 312/40/160 109/37/55 111/34/57
f 313/39/161 112/21/58 114/31/60
f 314/37/162 118/40/62 120/38/64
f 315/40/65 121/43/65 123/33/65
f 316/42/66 124/41/66 126/46/66
f 317/41/163 127/18/67 129/45/69
f 318/35/70 130/32/70 132/49/70
f 319/33/164 133/44/71 135/4/73
f 320/34/74 136/50/74 138/40/74
f 321/34/70 139/35/70 141/50/70
f 322/32/75 142/42/75 144/48/75
f 147/9/5 323/36/5 145/38/5
f 324/12/5 325/19/5 326/39/5
f 323/36/5 147/9/5 324/12/5
f 145/38/5 327/17/5 146/10/5
f 324/12/5 326/39/5 323/36/5
f 328/8/80 148/3/76 150/1/78
f 329/11/165 163/9/83 165/3/85
f 330/13/166 181/11/91 183/7/93
f 331/12/167 184/14/94 186/2/96
f 332/17/168 190/6/98 192/20/98
f 333/11/169 193/13/100 195/10/102
f 334/18/170 196/14/103 198/21/103
f 335/13/105 199/23/105 201/5/105
f 336/15/106 202/16/106 204/24/106
f 337/16/171 205/18/107 207/25/109
f 338/8/110 208/1/110 210/26/110
f 339/5/172 211/22/111 213/4/113
f 340/7/114 214/28/114 216/13/114
f 341/7/110 217/8/110 219/28/110
f 342/1/115 220/15/115 222/29/115
f 343/35/80 223/32/116 225/30/118
f 344/31/173 238/36/122 240/30/124
f 345/30/174 256/37/130 258/34/132
f 346/39/175 259/31/133 261/21/135
f 347/37/176 265/38/137 267/40/139
f 348/40/140 268/33/140 270/43/140
f 349/45/141 271/41/141 273/46/141
f 350/47/177 274/18/142 276/45/144
f 351/48/145 277/32/145 279/49/145
f 352/33/178 280/4/146 282/44/148
f 353/34/149 283/40/149 285/50/149
f 354/49/145 286/35/145 288/50/145
f 355/46/150 289/42/150 291/48/150
f 356/10/80 357/17/80 358/38/80
f 358/38/80 292/9/80 356/10/80
f 359/39/80 360/19/80 294/12/80
f 294/12/80 293/36/80 359/39/80
f 293/36/80 292/9/80 358/38/80
