# Blender v2.75 (sub 0) OBJ File: ''
# www.blender.org
o Cube.028
v -0.096000 0.253908 -0.165000
v -0.192000 0.253908 -0.000000
v -0.128000 0.323908 0.000000
v -0.064000 0.323908 0.110000
v 0.064000 0.323908 0.110000
v 0.064000 0.323909 -0.110000
v 0.096000 0.253908 -0.165000
v -0.064000 0.323909 -0.110000
v 0.096000 0.253908 0.165000
v 0.192000 0.253908 0.000000
v 0.128000 0.323908 0.000000
v -0.096000 0.253908 0.165000
v 0.000000 -0.006092 -0.000000
vt 0.032233 0.130086
vt 0.219285 0.265927
vt 0.160853 0.370620
vt 0.155725 0.509332
vt 0.426498 0.509332
vt 0.426498 0.974722
vt 0.768240 0.257744
vt 0.953776 0.097994
vt 0.999905 0.254447
vt 0.477086 0.358495
vt 0.625673 0.333927
vt 0.670448 0.467717
vt 0.347826 0.335716
vt 0.473264 0.467717
vt 0.481457 0.000095
vt 0.000095 0.268117
vt 0.155725 0.974722
vt 0.020339 0.742027
vt 0.561884 0.742027
vt 0.827838 0.349473
vt 0.321337 0.418405
vn -0.498700 0.044100 -0.865600
vn -0.999000 0.044100 -0.000000
vn -0.503200 0.864200 0.000000
vn -0.250500 0.863800 0.437200
vn 0.250500 0.863800 0.437200
vn 0.250500 0.863800 -0.437200
vn 0.498700 0.044100 -0.865600
vn -0.250500 0.863800 -0.437200
vn 0.498700 0.044100 0.865600
vn 0.999000 0.044100 0.000000
vn 0.503200 0.864200 0.000000
vn -0.498700 0.044100 0.865600
vn -0.000000 -1.000000 -0.000000
s 1
f 1/1/1 2/2/2 3/3/3
f 4/4/4 5/5/5 6/6/6
f 7/7/7 1/8/1 8/9/8
f 9/10/9 10/11/10 11/12/11
f 3/3/3 2/2/2 12/13/12
f 11/12/11 10/11/10 7/7/7
f 12/13/12 9/10/9 5/14/5
f 10/11/10 13/15/13 7/7/7
f 7/7/7 13/15/13 1/8/1
f 1/1/1 13/15/13 2/2/2
f 2/2/2 13/15/13 12/13/12
f 9/10/9 13/15/13 10/11/10
f 12/13/12 13/15/13 9/10/9
f 8/16/8 1/1/1 3/3/3
f 8/17/8 3/18/3 4/4/4
f 4/4/4 6/6/6 8/17/8
f 6/6/6 5/5/5 11/19/11
f 6/20/6 7/7/7 8/9/8
f 5/14/5 9/10/9 11/12/11
f 4/21/4 3/3/3 12/13/12
f 6/20/6 11/12/11 7/7/7
f 4/21/4 12/13/12 5/14/5
