# Blender v2.75 (sub 0) OBJ File: ''
# www.blender.org
o Circle.008
v -0.459305 2.179086 -0.276003
v -0.009374 2.179086 -0.535771
v -0.009374 0.156687 -0.535772
v 0.009374 2.179086 0.481654
v 0.412437 2.179086 0.248945
v 0.412437 0.156686 0.248944
v -0.009374 2.179086 0.535772
v -0.459305 2.179086 0.276004
v -0.459305 0.156686 0.276004
v 0.459305 2.179086 0.276004
v 0.009374 2.179086 0.535772
v 0.009374 0.156686 0.535772
v 0.421811 2.179086 0.232709
v 0.421811 2.179086 -0.232709
v 0.421811 0.156686 -0.232709
v -0.421811 2.179086 -0.232709
v -0.421811 2.179086 0.232709
v -0.421811 0.156686 0.232709
v 0.468679 2.179086 -0.259768
v 0.468679 2.179086 0.259768
v 0.468679 0.156686 0.259768
v 0.009374 2.179086 -0.535771
v 0.459305 2.179086 -0.276003
v 0.459305 0.156686 -0.276004
v 0.412437 2.179086 -0.248944
v 0.009374 2.179086 -0.481653
v 0.009374 0.156687 -0.481653
v -0.009374 2.179086 -0.481653
v -0.412437 2.179086 -0.248944
v -0.412437 0.156686 -0.248944
v -0.412437 2.179086 0.248945
v -0.009374 2.179086 0.481654
v -0.009374 0.156686 0.481653
v -0.468679 2.179086 -0.259768
v -0.459305 0.156686 -0.276004
v -0.468679 0.156686 0.259768
v 0.009374 0.156686 0.481653
v -0.412437 0.156686 0.248944
v 0.468679 0.156686 -0.259768
v 0.009374 0.156687 -0.535772
v -0.009374 0.156686 0.535772
v 0.421811 0.156686 0.232709
v -0.421811 0.156686 -0.232709
v -0.009374 0.156687 -0.481653
v 0.459305 0.156686 0.276004
v 0.412437 0.156686 -0.248944
v -0.468679 2.179086 0.259768
v -0.468679 0.156686 -0.259768
vt 0.996667 1.000000
vt 0.836667 1.000000
vt 0.836667 -0.000000
vt 0.337037 1.000000
vt 0.496296 1.000000
vt 0.496296 -0.000000
vt 0.330000 1.000000
vt 0.170000 1.000000
vt 0.170000 0.000000
vt 0.496667 1.000000
vt 0.336667 1.000000
vt 0.336667 0.000000
vt 0.503704 1.000000
vt 0.662963 1.000000
vt 0.662963 -0.000000
vt 0.003704 1.000000
vt 0.162963 1.000000
vt 0.162963 0.000000
vt 0.663333 1.000000
vt 0.503333 1.000000
vt 0.503333 -0.000000
vt 0.830000 1.000000
vt 0.670000 1.000000
vt 0.670000 -0.000000
vt 0.670370 1.000000
vt 0.829630 1.000000
vt 0.829630 -0.000000
vt 0.837037 1.000000
vt 0.996296 1.000000
vt 0.996296 0.000000
vt 0.170370 1.000000
vt 0.329630 1.000000
vt 0.329630 0.000000
vt 0.003333 1.000000
vt -0.001667 1.000000
vt -0.001667 0.000000
vt 0.163333 0.000000
vt 0.337037 0.000000
vt 0.170370 0.000000
vt 0.663333 -0.000000
vt 0.830000 -0.000000
vt 0.330000 0.000000
vt 0.503704 -0.000000
vt 1.001852 1.000000
vt 1.001852 0.000000
vt 0.837037 -0.000000
vt 0.496667 -0.000000
vt 0.670370 -0.000000
vt 0.163333 1.000000
vt 0.003333 0.000000
vt 0.996667 0.000000
vt 0.003704 0.000000
vn -0.500000 0.000000 -0.866000
vn -0.500000 -0.000000 0.866000
vn 0.500000 -0.000000 0.866000
vn -1.000000 0.000000 0.000000
vn 1.000000 -0.000000 0.000000
vn 0.500000 0.000000 -0.866000
vn -0.866000 0.000000 -0.500000
vn -0.866000 -0.000000 0.500000
vn 0.000000 0.000000 -1.000000
vn 0.866000 0.000000 -0.500000
vn 0.000000 -0.000000 1.000000
vn 0.866000 -0.000000 0.500000
s 1
f 1/1/1 2/2/1 3/3/1
f 4/4/1 5/5/1 6/6/1
f 7/7/2 8/8/2 9/9/2
f 10/10/3 11/11/3 12/12/3
f 13/13/4 14/14/4 15/15/4
f 16/16/5 17/17/5 18/18/5
f 19/19/5 20/20/5 21/21/5
f 22/22/6 23/23/6 24/24/6
f 25/25/2 26/26/2 27/27/2
f 28/28/3 29/29/3 30/30/3
f 31/31/6 32/32/6 33/33/6
f 34/34/7 1/35/7 35/36/7
f 36/37/8 9/9/8 8/8/8
f 32/32/9 4/4/9 37/38/9
f 38/39/10 18/18/10 17/17/10
f 23/23/10 19/19/10 39/40/10
f 40/41/9 3/3/9 2/2/9
f 41/42/11 12/12/11 11/11/11
f 5/5/7 13/13/7 42/43/7
f 29/29/12 16/44/12 43/45/12
f 28/28/11 44/46/11 27/27/11
f 45/47/12 21/21/12 20/20/12
f 14/14/8 25/25/8 46/48/8
f 47/49/4 34/34/4 48/50/4
f 35/51/1 1/1/1 3/3/1
f 37/38/1 4/4/1 6/6/1
f 41/42/2 7/7/2 9/9/2
f 45/47/3 10/10/3 12/12/3
f 42/43/4 13/13/4 15/15/4
f 43/52/5 16/16/5 18/18/5
f 39/40/5 19/19/5 21/21/5
f 40/41/6 22/22/6 24/24/6
f 46/48/2 25/25/2 27/27/2
f 44/46/3 28/28/3 30/30/3
f 38/39/6 31/31/6 33/33/6
f 48/50/7 34/34/7 35/36/7
f 47/49/8 36/37/8 8/8/8
f 33/33/9 32/32/9 37/38/9
f 31/31/10 38/39/10 17/17/10
f 24/24/10 23/23/10 39/40/10
f 22/22/9 40/41/9 2/2/9
f 7/7/11 41/42/11 11/11/11
f 6/6/7 5/5/7 42/43/7
f 30/30/12 29/29/12 43/45/12
f 26/26/11 28/28/11 27/27/11
f 10/10/12 45/47/12 20/20/12
f 15/15/8 14/14/8 46/48/8
f 36/37/4 47/49/4 48/50/4
