# Blender v2.75 (sub 0) OBJ File: ''
# www.blender.org
o Cube.029
v -0.303000 0.015000 -0.090000
v -0.357000 0.015000 -0.090000
v -0.357000 2.985000 -0.090000
v 0.357000 0.000000 -0.075000
v 0.357000 0.000000 0.075000
v 0.303000 0.000000 0.075000
v -0.303000 2.985000 0.090000
v -0.357000 2.985000 0.090000
v -0.357000 0.015000 0.090000
v -0.357000 3.000000 -0.075000
v -0.303000 3.000000 -0.075000
v -0.357000 3.000000 0.075000
v -0.303000 2.985000 -0.090000
v -0.303000 3.000000 0.075000
v 0.357000 0.015000 -0.090000
v 0.303000 0.015000 -0.090000
v 0.303000 2.985000 -0.090000
v 0.357000 2.985000 0.090000
v 0.303000 2.985000 0.090000
v 0.303000 0.015000 0.090000
v 0.303000 3.000000 -0.075000
v 0.357000 3.000000 -0.075000
v 0.303000 3.000000 0.075000
v 0.357000 2.985000 -0.090000
v 0.357000 3.000000 0.075000
v 0.330000 0.156944 -0.030000
v 0.330000 0.135731 -0.021214
v -0.330000 0.135731 -0.021214
v 0.330000 0.126944 -0.000000
v 0.330000 0.135731 0.021213
v -0.330000 0.135731 0.021213
v 0.330000 0.156944 0.030000
v 0.330000 0.178157 0.021213
v -0.330000 0.178157 0.021213
v 0.330000 0.186944 -0.000000
v -0.330000 0.186944 -0.000000
v 0.330000 0.178157 -0.021214
v -0.330000 0.156944 -0.030000
v 0.330000 0.456944 -0.030000
v 0.330000 0.435731 -0.021213
v -0.330000 0.435731 -0.021213
v 0.330000 0.426944 -0.000000
v 0.330000 0.435731 0.021213
v -0.330000 0.435731 0.021213
v 0.330000 0.456944 0.030000
v 0.330000 0.478157 0.021213
v -0.330000 0.478157 0.021213
v 0.330000 0.486944 -0.000000
v -0.330000 0.486944 -0.000000
v 0.330000 0.478157 -0.021213
v -0.330000 0.456944 -0.030000
v 0.330000 0.756944 -0.030000
v 0.330000 0.735731 -0.021213
v -0.330000 0.735731 -0.021213
v 0.330000 0.726944 -0.000000
v 0.330000 0.735731 0.021213
v -0.330000 0.735731 0.021213
v 0.330000 0.756944 0.030000
v 0.330000 0.778157 0.021213
v -0.330000 0.778157 0.021213
v 0.330000 0.786944 -0.000000
v -0.330000 0.786944 -0.000000
v 0.330000 0.778157 -0.021213
v -0.330000 0.756944 -0.030000
v 0.330000 1.056943 -0.030000
v 0.330000 1.035730 -0.021213
v -0.330000 1.035730 -0.021213
v 0.330000 1.026943 -0.000000
v 0.330000 1.035730 0.021213
v -0.330000 1.035730 0.021213
v 0.330000 1.056943 0.030000
v 0.330000 1.078156 0.021213
v -0.330000 1.078156 0.021213
v 0.330000 1.086943 -0.000000
v -0.330000 1.086943 -0.000000
v 0.330000 1.078156 -0.021213
v -0.330000 1.056943 -0.030000
v 0.330000 1.356943 -0.030000
v 0.330000 1.335730 -0.021213
v -0.330000 1.335730 -0.021213
v 0.330000 1.326943 -0.000000
v 0.330000 1.335730 0.021213
v -0.330000 1.335730 0.021213
v 0.330000 1.356943 0.030000
v 0.330000 1.378156 0.021213
v -0.330000 1.378156 0.021213
v 0.330000 1.386943 -0.000000
v -0.330000 1.386943 -0.000000
v 0.330000 1.378156 -0.021213
v -0.330000 1.356943 -0.030000
v 0.330000 1.656943 -0.030000
v 0.330000 1.635730 -0.021213
v -0.330000 1.635730 -0.021213
v 0.330000 1.626943 0.000000
v 0.330000 1.635730 0.021213
v -0.330000 1.635730 0.021213
v 0.330000 1.656943 0.030000
v -0.330000 1.656943 0.030000
v 0.330000 1.678156 0.021213
v 0.330000 1.686943 0.000000
v -0.330000 1.686943 0.000000
v 0.330000 1.678156 -0.021213
v -0.330000 1.656943 -0.030000
v 0.330000 1.956943 -0.030000
v 0.330000 1.935729 -0.021213
v -0.330000 1.935729 -0.021213
v 0.330000 1.926943 0.000000
v 0.330000 1.935729 0.021213
v -0.330000 1.935729 0.021213
v 0.330000 1.956943 0.030000
v 0.330000 1.978156 0.021213
v -0.330000 1.978156 0.021213
v 0.330000 1.986942 0.000000
v -0.330000 1.986942 0.000000
v 0.330000 1.978156 -0.021213
v -0.330000 1.956943 -0.030000
v 0.330000 2.256942 -0.030000
v 0.330000 2.235729 -0.021213
v -0.330000 2.235729 -0.021213
v 0.330000 2.226942 0.000000
v 0.330000 2.235729 0.021213
v -0.330000 2.235729 0.021213
v 0.330000 2.256942 0.030000
v 0.330000 2.278155 0.021213
v -0.330000 2.278155 0.021213
v 0.330000 2.286942 0.000000
v -0.330000 2.286942 0.000000
v 0.330000 2.278155 -0.021213
v -0.330000 2.256942 -0.030000
v 0.330000 2.556942 -0.030000
v 0.330000 2.535729 -0.021213
v -0.330000 2.535729 -0.021213
v 0.330000 2.526942 0.000000
v 0.330000 2.535729 0.021213
v -0.330000 2.535729 0.021213
v 0.330000 2.556942 0.030000
v 0.330000 2.578155 0.021213
v -0.330000 2.578155 0.021213
v 0.330000 2.586942 0.000000
v -0.330000 2.586942 0.000000
v 0.330000 2.578155 -0.021213
v -0.330000 2.556942 -0.030000
v 0.330000 2.856942 -0.030000
v 0.330000 2.835728 -0.021213
v -0.330000 2.835728 -0.021213
v 0.330000 2.826941 0.000000
v 0.330000 2.835728 0.021214
v -0.330000 2.835728 0.021214
v 0.330000 2.856942 0.030000
v 0.330000 2.878155 0.021214
v -0.330000 2.878155 0.021214
v 0.330000 2.886941 0.000000
v -0.330000 2.886941 0.000000
v 0.330000 2.878155 -0.021213
v -0.330000 2.856942 -0.030000
v -0.357000 0.000000 -0.075000
v -0.357000 0.000000 0.075000
v -0.303000 0.000000 0.075000
v 0.303000 0.000000 -0.075000
v -0.303000 0.000000 -0.075000
v -0.303000 0.015000 0.090000
v 0.357000 0.015000 0.090000
v -0.330000 0.126944 -0.000000
v -0.330000 0.156944 0.030000
v -0.330000 0.178157 -0.021214
v -0.330000 0.426944 -0.000000
v -0.330000 0.456944 0.030000
v -0.330000 0.478157 -0.021213
v -0.330000 0.726944 -0.000000
v -0.330000 0.756944 0.030000
v -0.330000 0.778157 -0.021213
v -0.330000 1.026943 -0.000000
v -0.330000 1.056943 0.030000
v -0.330000 1.078156 -0.021213
v -0.330000 1.326943 -0.000000
v -0.330000 1.356943 0.030000
v -0.330000 1.378156 -0.021213
v -0.330000 1.626943 0.000000
v -0.330000 1.678156 0.021213
v -0.330000 1.678156 -0.021213
v -0.330000 1.926943 0.000000
v -0.330000 1.956943 0.030000
v -0.330000 1.978156 -0.021213
v -0.330000 2.226942 0.000000
v -0.330000 2.256942 0.030000
v -0.330000 2.278155 -0.021213
v -0.330000 2.526942 0.000000
v -0.330000 2.556942 0.030000
v -0.330000 2.578155 -0.021213
v -0.330000 2.826941 0.000000
v -0.330000 2.856942 0.030000
v -0.330000 2.878155 -0.021213
vt 0.479611 0.995000
vt 0.446883 0.995000
vt 0.446883 0.005000
vt 0.610520 0.125000
vt 0.610520 0.175000
vt 0.577793 0.175000
vt 0.479611 0.005000
vt 0.512338 0.005000
vt 0.512338 0.995000
vt 0.119610 0.005000
vt 0.010520 0.005000
vt 0.110519 0.000000
vt 0.577793 0.065000
vt 0.610520 0.065000
vt 0.610520 0.115000
vt 0.228702 0.995000
vt 0.337792 0.995000
vt 0.237792 1.000000
vt 0.545065 0.005000
vt 0.577793 0.005000
vt 0.577792 0.995000
vt 0.545065 0.995000
vt 0.228701 0.005000
vt 0.219610 0.000000
vt 0.610520 0.005000
vt 0.610520 0.055000
vt 0.346883 1.000000
vt 0.972564 0.479167
vt 0.972564 0.490660
vt 0.622933 0.490661
vt 0.972564 0.502153
vt 0.972564 0.410208
vt 0.972564 0.421701
vt 0.622933 0.421700
vt 0.972564 0.433194
vt 0.972564 0.444687
vt 0.622933 0.444688
vt 0.972564 0.456181
vt 0.622933 0.456181
vt 0.972564 0.467674
vt 0.622933 0.479168
vt 0.972220 0.103192
vt 0.972220 0.114685
vt 0.622589 0.114686
vt 0.972220 0.126178
vt 0.972220 0.034232
vt 0.972220 0.045726
vt 0.622589 0.045725
vt 0.972219 0.057219
vt 0.972219 0.068712
vt 0.622589 0.068713
vt 0.972219 0.080205
vt 0.622589 0.080206
vt 0.972219 0.091699
vt 0.622589 0.103193
vt 0.972564 0.848353
vt 0.972564 0.859846
vt 0.622933 0.859846
vt 0.972564 0.871339
vt 0.972564 0.779393
vt 0.972564 0.790886
vt 0.622933 0.790885
vt 0.972564 0.802380
vt 0.972564 0.813873
vt 0.622933 0.813873
vt 0.972564 0.825366
vt 0.622933 0.825366
vt 0.972564 0.836859
vt 0.622933 0.848353
vt 0.972219 0.195488
vt 0.972219 0.206982
vt 0.622589 0.206982
vt 0.972219 0.218475
vt 0.972220 0.126529
vt 0.972219 0.138022
vt 0.622589 0.138021
vt 0.972219 0.149516
vt 0.972219 0.161009
vt 0.622589 0.161009
vt 0.972219 0.172502
vt 0.622589 0.172502
vt 0.972219 0.183995
vt 0.622589 0.195489
vt 0.972219 0.287785
vt 0.972219 0.299278
vt 0.622589 0.299278
vt 0.972219 0.310771
vt 0.972219 0.218825
vt 0.972219 0.230319
vt 0.622589 0.230318
vt 0.972219 0.241812
vt 0.972219 0.253305
vt 0.622588 0.253306
vt 0.972219 0.264798
vt 0.622588 0.264799
vt 0.972219 0.276292
vt 0.622589 0.287786
vt 0.972564 0.571463
vt 0.972564 0.582957
vt 0.622933 0.582957
vt 0.972564 0.594450
vt 0.972564 0.502504
vt 0.972564 0.513997
vt 0.622933 0.513996
vt 0.972564 0.525490
vt 0.622933 0.525490
vt 0.972564 0.536984
vt 0.972564 0.548477
vt 0.622933 0.548477
vt 0.972564 0.559970
vt 0.622933 0.571464
vt 0.972564 0.756056
vt 0.972564 0.767549
vt 0.622933 0.767550
vt 0.972564 0.779043
vt 0.972564 0.687097
vt 0.972564 0.698590
vt 0.622933 0.698589
vt 0.972564 0.710083
vt 0.972564 0.721576
vt 0.622933 0.721577
vt 0.972564 0.733070
vt 0.622933 0.733070
vt 0.972564 0.744563
vt 0.622933 0.756057
vt 0.972564 0.663760
vt 0.972564 0.675253
vt 0.622933 0.675253
vt 0.972564 0.686746
vt 0.972564 0.594800
vt 0.972564 0.606294
vt 0.622933 0.606293
vt 0.972564 0.617787
vt 0.972564 0.629280
vt 0.622933 0.629281
vt 0.972564 0.640773
vt 0.622933 0.640774
vt 0.972564 0.652267
vt 0.622933 0.663761
vt 0.972564 0.940649
vt 0.972564 0.952142
vt 0.622933 0.952143
vt 0.972564 0.963635
vt 0.972564 0.871690
vt 0.972564 0.883183
vt 0.622933 0.883182
vt 0.972564 0.894676
vt 0.972564 0.906169
vt 0.622933 0.906170
vt 0.972564 0.917662
vt 0.622933 0.917663
vt 0.972564 0.929156
vt 0.622933 0.940650
vt 0.972564 0.386870
vt 0.972564 0.398363
vt 0.622933 0.398364
vt 0.972564 0.409856
vt 0.972564 0.317911
vt 0.972564 0.329404
vt 0.622933 0.329403
vt 0.972564 0.340897
vt 0.972564 0.352390
vt 0.622933 0.352392
vt 0.972564 0.363883
vt 0.622933 0.363884
vt 0.972564 0.375377
vt 0.622933 0.386871
vt 0.577793 0.185000
vt 0.577793 0.180000
vt 0.610520 0.180000
vt 0.512338 1.000000
vt 0.479611 1.000000
vt 0.446883 0.000000
vt 0.577793 0.115000
vt 0.610520 0.120000
vt 0.577793 0.125000
vt 0.577793 0.120000
vt 0.545065 1.000000
vt 0.577792 1.000000
vt 0.577793 0.055000
vt 0.610520 0.060000
vt 0.610520 0.185000
vt 0.610520 0.235000
vt 0.577793 0.235000
vt 0.119611 0.995000
vt 0.110520 1.000000
vt 0.019611 1.000000
vt 0.019611 0.000000
vt 0.010520 0.995000
vt 0.237792 0.000000
vt 0.328701 0.000000
vt 0.328701 1.000000
vt 0.337792 0.005000
vt 0.219611 1.000000
vt 0.128702 1.000000
vt 0.128701 0.000000
vt 0.346883 0.000000
vt 0.437792 0.000000
vt 0.437792 1.000000
vt 0.622933 0.502155
vt 0.622933 0.410207
vt 0.622933 0.433194
vt 0.622933 0.467675
vt 0.622589 0.126180
vt 0.622589 0.034232
vt 0.622589 0.057219
vt 0.622589 0.091700
vt 0.622933 0.871340
vt 0.622933 0.779392
vt 0.622933 0.802379
vt 0.622933 0.836860
vt 0.622589 0.218476
vt 0.622589 0.126528
vt 0.622589 0.149515
vt 0.622589 0.183996
vt 0.622589 0.310772
vt 0.622589 0.218825
vt 0.622588 0.241812
vt 0.622589 0.276293
vt 0.622933 0.594451
vt 0.622933 0.502503
vt 0.622933 0.536984
vt 0.622933 0.559971
vt 0.622933 0.779044
vt 0.622933 0.687096
vt 0.622933 0.710083
vt 0.622933 0.744564
vt 0.622933 0.686748
vt 0.622933 0.594800
vt 0.622933 0.617787
vt 0.622933 0.652268
vt 0.622933 0.963637
vt 0.622933 0.871689
vt 0.622933 0.894676
vt 0.622933 0.929157
vt 0.622933 0.409858
vt 0.622933 0.317911
vt 0.622933 0.340898
vt 0.622933 0.375378
vt 0.479610 0.000000
vt 0.577793 0.060000
vn 0.630300 -0.297100 -0.717300
vn -0.630300 -0.297100 -0.717300
vn -0.630300 0.297100 -0.717300
vn 0.630300 -0.717300 -0.297100
vn 0.630300 -0.717300 0.297100
vn -0.630300 -0.717300 0.297100
vn 0.630300 0.297100 0.717300
vn -0.630300 0.297100 0.717300
vn -0.630300 -0.297100 0.717300
vn -0.630300 0.717300 -0.297100
vn 0.630300 0.717300 -0.297100
vn -0.630300 0.717300 0.297100
vn 0.630300 0.297100 -0.717300
vn 0.630300 0.717300 0.297100
vn 0.000000 0.000000 -1.000000
vn 0.000000 -0.707100 -0.707100
vn 0.000000 -1.000000 -0.000000
vn 0.000000 -0.707100 0.707100
vn 0.000000 0.000000 1.000000
vn 0.000000 0.707100 0.707100
vn 0.000000 1.000000 0.000000
vn 0.000000 0.707100 -0.707100
vn -0.630300 -0.717300 -0.297100
vn 0.630300 -0.297100 0.717300
s 1
f 1/1/1 2/2/2 3/3/3
f 4/4/4 5/5/5 6/6/6
f 7/7/7 8/8/8 9/9/9
f 3/10/3 8/11/8 10/12/10
f 11/13/11 10/14/10 12/15/12
f 7/16/7 13/17/13 14/18/14
f 15/19/1 16/20/2 17/21/3
f 18/8/7 19/19/8 20/22/9
f 17/23/3 19/10/8 21/24/10
f 22/20/11 21/25/10 23/26/12
f 18/17/7 24/2/13 25/27/14
f 26/28/15 27/29/16 28/30/16
f 28/30/16 27/29/16 29/31/17
f 29/32/17 30/33/18 31/34/18
f 31/34/18 30/33/18 32/35/19
f 32/35/19 33/36/20 34/37/20
f 33/36/20 35/38/21 36/39/21
f 37/40/22 26/28/15 38/41/15
f 36/39/21 35/38/21 37/40/22
f 39/42/15 40/43/16 41/44/16
f 41/44/16 40/43/16 42/45/17
f 42/46/17 43/47/18 44/48/18
f 44/48/18 43/47/18 45/49/19
f 45/49/19 46/50/20 47/51/20
f 46/50/20 48/52/21 49/53/21
f 50/54/22 39/42/15 51/55/15
f 49/53/21 48/52/21 50/54/22
f 52/56/15 53/57/16 54/58/16
f 54/58/16 53/57/16 55/59/17
f 55/60/17 56/61/18 57/62/18
f 57/62/18 56/61/18 58/63/19
f 58/63/19 59/64/20 60/65/20
f 59/64/20 61/66/21 62/67/21
f 63/68/22 52/56/15 64/69/15
f 62/67/21 61/66/21 63/68/22
f 65/70/15 66/71/16 67/72/16
f 67/72/16 66/71/16 68/73/17
f 68/74/17 69/75/18 70/76/18
f 70/76/18 69/75/18 71/77/19
f 71/77/19 72/78/20 73/79/20
f 72/78/20 74/80/21 75/81/21
f 76/82/22 65/70/15 77/83/15
f 75/81/21 74/80/21 76/82/22
f 78/84/15 79/85/16 80/86/16
f 80/86/16 79/85/16 81/87/17
f 81/88/17 82/89/18 83/90/18
f 83/90/18 82/89/18 84/91/19
f 84/91/19 85/92/20 86/93/20
f 85/92/20 87/94/21 88/95/21
f 89/96/22 78/84/15 90/97/15
f 88/95/21 87/94/21 89/96/22
f 91/98/15 92/99/16 93/100/16
f 93/100/16 92/99/16 94/101/17
f 94/102/17 95/103/18 96/104/18
f 95/103/18 97/105/19 98/106/19
f 98/106/19 97/105/19 99/107/20
f 99/107/20 100/108/21 101/109/21
f 102/110/22 91/98/15 103/111/15
f 101/109/21 100/108/21 102/110/22
f 104/112/15 105/113/16 106/114/16
f 106/114/16 105/113/16 107/115/17
f 107/116/17 108/117/18 109/118/18
f 109/118/18 108/117/18 110/119/19
f 110/119/19 111/120/20 112/121/20
f 111/120/20 113/122/21 114/123/21
f 115/124/22 104/112/15 116/125/15
f 114/123/21 113/122/21 115/124/22
f 117/126/15 118/127/16 119/128/16
f 119/128/16 118/127/16 120/129/17
f 120/130/17 121/131/18 122/132/18
f 122/132/18 121/131/18 123/133/19
f 123/133/19 124/134/20 125/135/20
f 124/134/20 126/136/21 127/137/21
f 128/138/22 117/126/15 129/139/15
f 127/137/21 126/136/21 128/138/22
f 130/140/15 131/141/16 132/142/16
f 132/142/16 131/141/16 133/143/17
f 133/144/17 134/145/18 135/146/18
f 135/146/18 134/145/18 136/147/19
f 136/147/19 137/148/20 138/149/20
f 137/148/20 139/150/21 140/151/21
f 141/152/22 130/140/15 142/153/15
f 140/151/21 139/150/21 141/152/22
f 143/154/15 144/155/16 145/156/16
f 145/156/16 144/155/16 146/157/17
f 146/158/17 147/159/18 148/160/18
f 148/160/18 147/159/18 149/161/19
f 149/161/19 150/162/20 151/163/20
f 150/162/20 152/164/21 153/165/21
f 154/166/22 143/154/15 155/167/15
f 153/165/21 152/164/21 154/166/22
f 156/168/23 2/169/2 1/170/1
f 9/9/9 157/171/6 158/172/5
f 13/7/13 3/3/3 10/173/10
f 14/174/14 12/15/12 8/175/8
f 159/176/23 16/177/2 15/175/1
f 20/22/9 6/178/6 5/171/5
f 24/22/13 17/21/3 21/179/10
f 25/180/14 23/26/12 19/181/8
f 160/182/4 158/183/5 157/184/6
f 13/7/13 1/1/1 3/3/3
f 159/176/23 4/4/4 6/6/6
f 161/1/24 7/7/7 9/9/9
f 2/185/2 156/186/23 157/187/6
f 8/11/8 3/10/3 2/185/2
f 8/11/8 12/188/12 10/12/10
f 2/185/2 9/189/9 8/11/8
f 9/189/9 2/185/2 157/187/6
f 14/174/14 11/13/11 12/15/12
f 161/23/24 158/190/5 160/191/4
f 13/17/13 7/16/7 161/23/24
f 13/17/13 11/192/11 14/18/14
f 161/23/24 1/193/1 13/17/13
f 1/193/1 161/23/24 160/191/4
f 24/22/13 15/19/1 17/21/3
f 162/9/24 18/8/7 20/22/9
f 16/16/2 159/194/23 6/195/6
f 19/10/8 17/23/3 16/16/2
f 19/10/8 23/196/12 21/24/10
f 16/16/2 20/185/9 19/10/8
f 20/185/9 16/16/2 6/195/6
f 25/180/14 22/20/11 23/26/12
f 162/193/24 5/197/5 4/198/4
f 24/2/13 18/17/7 162/193/24
f 24/2/13 22/199/11 25/27/14
f 162/193/24 15/3/1 24/2/13
f 15/3/1 162/193/24 4/198/4
f 38/41/15 26/28/15 28/30/16
f 163/200/17 28/30/16 29/31/17
f 163/201/17 29/32/17 31/34/18
f 164/202/19 31/34/18 32/35/19
f 164/202/19 32/35/19 34/37/20
f 34/37/20 33/36/20 36/39/21
f 165/203/22 37/40/22 38/41/15
f 165/203/22 36/39/21 37/40/22
f 51/55/15 39/42/15 41/44/16
f 166/204/17 41/44/16 42/45/17
f 166/205/17 42/46/17 44/48/18
f 167/206/19 44/48/18 45/49/19
f 167/206/19 45/49/19 47/51/20
f 47/51/20 46/50/20 49/53/21
f 168/207/22 50/54/22 51/55/15
f 168/207/22 49/53/21 50/54/22
f 64/69/15 52/56/15 54/58/16
f 169/208/17 54/58/16 55/59/17
f 169/209/17 55/60/17 57/62/18
f 170/210/19 57/62/18 58/63/19
f 170/210/19 58/63/19 60/65/20
f 60/65/20 59/64/20 62/67/21
f 171/211/22 63/68/22 64/69/15
f 171/211/22 62/67/21 63/68/22
f 77/83/15 65/70/15 67/72/16
f 172/212/17 67/72/16 68/73/17
f 172/213/17 68/74/17 70/76/18
f 173/214/19 70/76/18 71/77/19
f 173/214/19 71/77/19 73/79/20
f 73/79/20 72/78/20 75/81/21
f 174/215/22 76/82/22 77/83/15
f 174/215/22 75/81/21 76/82/22
f 90/97/15 78/84/15 80/86/16
f 175/216/17 80/86/16 81/87/17
f 175/217/17 81/88/17 83/90/18
f 176/218/19 83/90/18 84/91/19
f 176/218/19 84/91/19 86/93/20
f 86/93/20 85/92/20 88/95/21
f 177/219/22 89/96/22 90/97/15
f 177/219/22 88/95/21 89/96/22
f 103/111/15 91/98/15 93/100/16
f 178/220/17 93/100/16 94/101/17
f 178/221/17 94/102/17 96/104/18
f 96/104/18 95/103/18 98/106/19
f 179/222/20 98/106/19 99/107/20
f 179/222/20 99/107/20 101/109/21
f 180/223/22 102/110/22 103/111/15
f 180/223/22 101/109/21 102/110/22
f 116/125/15 104/112/15 106/114/16
f 181/224/17 106/114/16 107/115/17
f 181/225/17 107/116/17 109/118/18
f 182/226/19 109/118/18 110/119/19
f 182/226/19 110/119/19 112/121/20
f 112/121/20 111/120/20 114/123/21
f 183/227/22 115/124/22 116/125/15
f 183/227/22 114/123/21 115/124/22
f 129/139/15 117/126/15 119/128/16
f 184/228/17 119/128/16 120/129/17
f 184/229/17 120/130/17 122/132/18
f 185/230/19 122/132/18 123/133/19
f 185/230/19 123/133/19 125/135/20
f 125/135/20 124/134/20 127/137/21
f 186/231/22 128/138/22 129/139/15
f 186/231/22 127/137/21 128/138/22
f 142/153/15 130/140/15 132/142/16
f 187/232/17 132/142/16 133/143/17
f 187/233/17 133/144/17 135/146/18
f 188/234/19 135/146/18 136/147/19
f 188/234/19 136/147/19 138/149/20
f 138/149/20 137/148/20 140/151/21
f 189/235/22 141/152/22 142/153/15
f 189/235/22 140/151/21 141/152/22
f 155/167/15 143/154/15 145/156/16
f 190/236/17 145/156/16 146/157/17
f 190/237/17 146/158/17 148/160/18
f 191/238/19 148/160/18 149/161/19
f 191/238/19 149/161/19 151/163/20
f 151/163/20 150/162/20 153/165/21
f 192/239/22 154/166/22 155/167/15
f 192/239/22 153/165/21 154/166/22
f 160/182/4 156/168/23 1/170/1
f 161/1/24 9/9/9 158/172/5
f 11/240/11 13/7/13 10/173/10
f 7/177/7 14/174/14 8/175/8
f 4/4/4 159/176/23 15/175/1
f 162/9/24 20/22/9 5/171/5
f 22/178/11 24/22/13 21/179/10
f 18/241/7 25/180/14 19/181/8
f 156/168/23 160/182/4 157/184/6
