# Blender v2.75 (sub 0) OBJ File: 'resizeItems.blend'
# www.blender.org
o Cylinder.004
v 0.000000 -0.200000 -0.540000
v 0.051764 -0.193185 -0.540000
v 0.051764 -0.193185 0.540000
v 0.100000 -0.173205 -0.540000
v 0.100000 -0.173205 0.540000
v 0.141421 -0.141421 -0.540000
v 0.173205 -0.100000 -0.540000
v 0.173205 -0.100000 0.540000
v 0.193185 -0.051764 -0.540000
v 0.193185 -0.051764 0.540000
v 0.200000 0.000000 -0.540000
v 0.200000 -0.000000 0.540000
v 0.193185 0.051764 -0.540000
v 0.193185 0.051764 0.540000
v 0.173205 0.100000 -0.540000
v 0.173205 0.100000 0.540000
v 0.141421 0.141421 -0.540000
v 0.141421 0.141421 0.540000
v 0.100000 0.173205 -0.540000
v 0.100000 0.173205 0.540000
v 0.051764 0.193185 -0.540000
v 0.051764 0.193185 0.540000
v 0.000000 0.200000 -0.540000
v 0.000000 0.200000 0.540000
v -0.051764 0.193185 -0.540000
v -0.051764 0.193185 0.540000
v -0.100000 0.173205 -0.540000
v -0.100000 0.173205 0.540000
v -0.141421 0.141421 -0.540000
v -0.141421 0.141421 0.540000
v -0.173205 0.100000 -0.540000
v -0.173205 0.100000 0.540000
v -0.193185 0.051764 -0.540000
v -0.200000 0.000000 -0.540000
v -0.200000 -0.000000 0.540000
v -0.193185 -0.051764 -0.540000
v -0.193185 -0.051764 0.540000
v -0.173205 -0.100000 -0.540000
v -0.173205 -0.100000 0.540000
v -0.141421 -0.141421 -0.540000
v -0.141421 -0.141421 0.540000
v -0.100000 -0.173205 -0.540000
v -0.100000 -0.173205 0.540000
v 0.051764 -0.193185 -0.540000
v -0.193185 0.051764 -0.540000
v -0.051764 0.193185 -0.540000
v -0.051764 -0.193185 -0.540000
v 0.000000 -0.200000 0.540000
v -0.051764 -0.193185 0.540000
v 0.000000 -0.200000 0.540000
v 0.173205 -0.100000 0.540000
v -0.173205 0.100000 0.540000
v 0.141421 -0.141421 0.540000
v -0.193185 0.051764 0.540000
v 0.141421 -0.141421 -0.540000
v 0.100000 -0.173205 -0.540000
v 0.193185 -0.051764 -0.540000
v 0.173205 -0.100000 -0.540000
v 0.141421 0.141421 -0.540000
v 0.200000 0.000000 -0.540000
v 0.173205 0.100000 -0.540000
v 0.193185 0.051764 -0.540000
v 0.051764 0.193185 -0.540000
v 0.100000 0.173205 -0.540000
v 0.000000 0.200000 -0.540000
v -0.141421 0.141421 -0.540000
v -0.100000 0.173205 -0.540000
v -0.173205 0.100000 -0.540000
v -0.193185 -0.051764 -0.540000
v -0.200000 0.000000 -0.540000
v -0.141421 -0.141421 -0.540000
v -0.173205 -0.100000 -0.540000
v -0.051764 -0.193185 -0.540000
v -0.100000 -0.173205 -0.540000
v 0.000000 -0.200000 -0.540000
v -0.100000 -0.173205 0.540000
v -0.051764 -0.193185 0.540000
v -0.141421 -0.141421 0.540000
v -0.200000 -0.000000 0.540000
v -0.193185 -0.051764 0.540000
v -0.173205 -0.100000 0.540000
v -0.193185 0.051764 0.540000
v -0.100000 0.173205 0.540000
v -0.141421 0.141421 0.540000
v 0.000000 0.200000 0.540000
v -0.051764 0.193185 0.540000
v 0.100000 0.173205 0.540000
v 0.051764 0.193185 0.540000
v 0.173205 0.100000 0.540000
v 0.141421 0.141421 0.540000
v 0.193185 0.051764 0.540000
v 0.193185 -0.051764 0.540000
v 0.200000 -0.000000 0.540000
v 0.100000 -0.173205 0.540000
v 0.141421 -0.141421 0.540000
v 0.051764 -0.193185 0.540000
vt 0.571479 0.987856
vt 0.548893 0.987856
vt 0.548893 0.012145
vt 0.526307 0.987856
vt 0.526307 0.012144
vt 0.503721 0.987856
vt 0.481135 0.987856
vt 0.481135 0.012144
vt 0.458549 0.987856
vt 0.458550 0.012144
vt 0.435964 0.987855
vt 0.435964 0.012144
vt 0.413378 0.987855
vt 0.413378 0.012144
vt 0.390792 0.987855
vt 0.390792 0.012144
vt 0.368206 0.987855
vt 0.368206 0.012144
vt 0.345620 0.987855
vt 0.345620 0.012144
vt 0.323034 0.987855
vt 0.323034 0.012144
vt 0.300448 0.987855
vt 0.300448 0.012144
vt 0.277862 0.987855
vt 0.277862 0.012144
vt 0.255276 0.987856
vt 0.255276 0.012144
vt 0.232690 0.987856
vt 0.232690 0.012144
vt 0.210105 0.987856
vt 0.210105 0.012144
vt 0.187519 0.987856
vt 0.164933 0.987856
vt 0.164933 0.012145
vt 0.142347 0.987856
vt 0.142347 0.012145
vt 0.119761 0.987856
vt 0.119761 0.012145
vt 0.097175 0.987856
vt 0.097175 0.012145
vt 0.074589 0.987856
vt 0.074589 0.012145
vt 0.834303 0.585490
vt 0.603736 0.816058
vt 0.736854 0.949176
vt 0.052003 0.987856
vt 0.029417 0.987856
vt 0.029417 0.012145
vt 0.052003 0.012145
vt 0.786711 0.067093
vt 0.949746 0.161221
vt 0.623675 0.349479
vt 0.571479 0.012145
vt 0.503721 0.012144
vt 0.187519 0.012144
vt 0.918697 0.634215
vt 0.879707 0.604297
vt 0.967421 0.718608
vt 0.948614 0.673204
vt 0.918697 0.900451
vt 0.973836 0.767333
vt 0.948614 0.861462
vt 0.967421 0.816058
vt 0.834303 0.949176
vt 0.879707 0.930369
vt 0.785579 0.955591
vt 0.652461 0.900451
vt 0.691450 0.930369
vt 0.622543 0.861462
vt 0.603736 0.718609
vt 0.597321 0.767333
vt 0.652460 0.634215
vt 0.622543 0.673204
vt 0.736854 0.585490
vt 0.691450 0.604297
vt 0.785579 0.579076
vt 0.692582 0.092314
vt 0.737986 0.073507
vt 0.653592 0.122232
vt 0.598453 0.255350
vt 0.604868 0.206625
vt 0.623675 0.161221
vt 0.604868 0.304075
vt 0.692582 0.418386
vt 0.653592 0.388468
vt 0.786711 0.443607
vt 0.737986 0.437193
vt 0.880839 0.418386
vt 0.835435 0.437193
vt 0.949746 0.349479
vt 0.919829 0.388468
vt 0.968553 0.304075
vt 0.968553 0.206625
vt 0.974968 0.255350
vt 0.880839 0.092314
vt 0.919829 0.122232
vt 0.835435 0.073507
vn 0.000000 -1.000000 -0.000000
vn 0.258800 -0.965900 -0.000000
vn 0.500000 -0.866000 -0.000000
vn 0.707100 -0.707100 -0.000000
vn 0.866000 -0.500000 -0.000000
vn 0.965900 -0.258800 -0.000000
vn 1.000000 -0.000000 0.000000
vn 0.965900 0.258800 0.000000
vn 0.866000 0.500000 0.000000
vn 0.707100 0.707100 0.000000
vn 0.500000 0.866000 0.000000
vn 0.258800 0.965900 0.000000
vn 0.000000 1.000000 0.000000
vn -0.258800 0.965900 0.000000
vn -0.500000 0.866000 0.000000
vn -0.707100 0.707100 0.000000
vn -0.866000 0.500000 0.000000
vn -0.965900 0.258800 0.000000
vn -1.000000 0.000000 -0.000000
vn -0.965900 -0.258800 -0.000000
vn -0.866000 -0.500000 -0.000000
vn -0.707100 -0.707100 -0.000000
vn -0.500000 -0.866000 -0.000000
vn -0.000000 0.000000 -1.000000
vn -0.258800 -0.965900 -0.000000
vn 0.000000 -0.000000 1.000000
s 1
f 1/1/1 2/2/2 3/3/2
f 2/2/2 4/4/3 5/5/3
f 5/5/3 4/4/3 6/6/4
f 6/6/4 7/7/5 8/8/5
f 7/7/5 9/9/6 10/10/6
f 9/9/6 11/11/7 12/12/7
f 11/11/7 13/13/8 14/14/8
f 13/13/8 15/15/9 16/16/9
f 15/15/9 17/17/10 18/18/10
f 17/17/10 19/19/11 20/20/11
f 19/19/11 21/21/12 22/22/12
f 21/21/12 23/23/13 24/24/13
f 23/23/13 25/25/14 26/26/14
f 25/25/14 27/27/15 28/28/15
f 27/27/15 29/29/16 30/30/16
f 29/29/16 31/31/17 32/32/17
f 32/32/17 31/31/17 33/33/18
f 33/33/18 34/34/19 35/35/19
f 34/34/19 36/36/20 37/37/20
f 36/36/20 38/38/21 39/39/21
f 38/38/21 40/40/22 41/41/22
f 40/40/22 42/42/23 43/43/23
f 44/44/24 45/45/24 46/46/24
f 47/47/25 1/48/1 48/49/1
f 42/42/23 47/47/25 49/50/25
f 50/51/26 51/52/26 52/53/26
f 48/54/1 1/1/1 3/3/2
f 3/3/2 2/2/2 5/5/3
f 53/55/4 5/5/3 6/6/4
f 53/55/4 6/6/4 8/8/5
f 8/8/5 7/7/5 10/10/6
f 10/10/6 9/9/6 12/12/7
f 12/12/7 11/11/7 14/14/8
f 14/14/8 13/13/8 16/16/9
f 16/16/9 15/15/9 18/18/10
f 18/18/10 17/17/10 20/20/11
f 20/20/11 19/19/11 22/22/12
f 22/22/12 21/21/12 24/24/13
f 24/24/13 23/23/13 26/26/14
f 26/26/14 25/25/14 28/28/15
f 28/28/15 27/27/15 30/30/16
f 30/30/16 29/29/16 32/32/17
f 54/56/18 32/32/17 33/33/18
f 54/56/18 33/33/18 35/35/19
f 35/35/19 34/34/19 37/37/20
f 37/37/20 36/36/20 39/39/21
f 39/39/21 38/38/21 41/41/22
f 41/41/22 40/40/22 43/43/23
f 55/57/24 56/58/24 44/44/24
f 57/59/24 58/60/24 55/57/24
f 59/61/24 60/62/24 57/59/24
f 59/61/24 61/63/24 62/64/24
f 63/65/24 64/66/24 59/61/24
f 46/46/24 65/67/24 63/65/24
f 66/68/24 67/69/24 46/46/24
f 46/46/24 68/70/24 66/68/24
f 69/71/24 70/72/24 45/45/24
f 71/73/24 72/74/24 69/71/24
f 73/75/24 74/76/24 71/73/24
f 44/44/24 75/77/24 73/75/24
f 59/61/24 55/57/24 44/44/24
f 59/61/24 62/64/24 60/62/24
f 46/46/24 63/65/24 59/61/24
f 45/45/24 68/70/24 46/46/24
f 71/73/24 69/71/24 45/45/24
f 44/44/24 73/75/24 71/73/24
f 59/61/24 57/59/24 55/57/24
f 44/44/24 46/46/24 59/61/24
f 44/44/24 71/73/24 45/45/24
f 49/50/25 47/47/25 48/49/1
f 43/43/23 42/42/23 49/50/25
f 76/78/26 77/79/26 50/51/26
f 50/51/26 78/80/26 76/78/26
f 79/81/26 80/82/26 81/83/26
f 81/83/26 82/84/26 79/81/26
f 83/85/26 84/86/26 52/53/26
f 85/87/26 86/88/26 83/85/26
f 87/89/26 88/90/26 85/87/26
f 89/91/26 90/92/26 87/89/26
f 51/52/26 91/93/26 89/91/26
f 51/52/26 92/94/26 93/95/26
f 94/96/26 95/97/26 51/52/26
f 51/52/26 96/98/26 94/96/26
f 81/83/26 78/80/26 50/51/26
f 52/53/26 82/84/26 81/83/26
f 85/87/26 83/85/26 52/53/26
f 89/91/26 87/89/26 85/87/26
f 51/52/26 93/95/26 91/93/26
f 50/51/26 96/98/26 51/52/26
f 52/53/26 81/83/26 50/51/26
f 89/91/26 85/87/26 52/53/26
f 52/53/26 51/52/26 89/91/26
