# Blender v2.75 (sub 0) OBJ File: ''
# www.blender.org
o Sphere.002
v -0.191312 0.239584 -0.000000
v -0.176749 0.239584 -0.073212
v -0.168509 0.146451 -0.069799
v -0.133629 0.426355 0.000000
v -0.123457 0.426355 -0.051138
v -0.161201 0.346164 -0.066772
v -0.136737 0.066940 -0.056638
v -0.148003 0.066940 -0.000000
v -0.174483 0.346164 0.000000
v -0.067121 0.485117 0.000000
v -0.062011 0.485117 -0.025686
v -0.068659 0.013812 -0.028439
v -0.074316 0.013812 -0.000000
v -0.128971 0.146451 -0.128971
v -0.104654 0.066940 -0.104654
v -0.123378 0.346164 -0.123378
v -0.135278 0.239584 -0.135278
v -0.047461 0.485117 -0.047462
v -0.094490 0.426355 -0.094490
v -0.052549 0.013812 -0.052549
v -0.025686 0.485117 -0.062011
v -0.051137 0.426355 -0.123457
v -0.056638 0.066940 -0.136737
v -0.028439 0.013812 -0.068659
v -0.073212 0.239584 -0.176749
v -0.069799 0.146451 -0.168509
v -0.066772 0.346164 -0.161201
v 0.000000 0.066940 -0.148003
v 0.000000 0.013812 -0.074316
v 0.000000 0.239584 -0.191312
v 0.000000 0.146451 -0.182393
v 0.000000 0.426355 -0.133629
v 0.000000 0.346164 -0.174483
v 0.000000 0.485117 -0.067121
v 0.069799 0.146451 -0.168509
v 0.056638 0.066940 -0.136737
v 0.066772 0.346164 -0.161201
v 0.073212 0.239584 -0.176749
v 0.025686 0.485117 -0.062011
v 0.051138 0.426355 -0.123457
v 0.028439 0.013812 -0.068659
v 0.128971 0.146451 -0.128971
v 0.104654 0.066940 -0.104654
v 0.123378 0.346164 -0.123378
v 0.135278 0.239584 -0.135278
v 0.047461 0.485117 -0.047461
v 0.094490 0.426355 -0.094490
v 0.052549 0.013812 -0.052549
v 0.136737 0.066940 -0.056638
v 0.068659 0.013812 -0.028439
v 0.176749 0.239584 -0.073212
v 0.168509 0.146451 -0.069799
v 0.123457 0.426355 -0.051137
v 0.161201 0.346164 -0.066772
v 0.062011 0.485117 -0.025686
v 0.191312 0.239584 -0.000000
v 0.182393 0.146451 -0.000000
v 0.133629 0.426355 0.000000
v 0.174483 0.346164 0.000000
v 0.148003 0.066940 -0.000000
v 0.067121 0.485117 0.000000
v 0.074316 0.013812 -0.000000
v 0.168509 0.146451 0.069799
v 0.136737 0.066940 0.056638
v 0.161201 0.346164 0.066772
v 0.176749 0.239584 0.073212
v 0.062011 0.485117 0.025686
v 0.123457 0.426355 0.051138
v 0.068659 0.013812 0.028439
v 0.123378 0.346164 0.123378
v 0.135278 0.239584 0.135278
v 0.047461 0.485117 0.047461
v 0.094490 0.426355 0.094490
v 0.104654 0.066940 0.104654
v 0.052549 0.013812 0.052549
v 0.128971 0.146451 0.128971
v 0.056638 0.066940 0.136737
v 0.028439 0.013812 0.068659
v 0.073212 0.239584 0.176749
v 0.069799 0.146451 0.168509
v 0.051137 0.426355 0.123457
v 0.066772 0.346164 0.161201
v 0.025686 0.485117 0.062011
v 0.000000 0.426355 0.133629
v 0.000000 0.346164 0.174483
v 0.000000 0.146451 0.182393
v 0.000000 0.066940 0.148003
v 0.000000 0.239584 0.191312
v 0.000000 0.485117 0.067121
v 0.000000 0.013812 0.074316
v -0.069799 0.146451 0.168509
v -0.056638 0.066940 0.136737
v -0.066772 0.346164 0.161201
v -0.073212 0.239584 0.176749
v -0.025686 0.485117 0.062011
v -0.051138 0.426355 0.123457
v -0.028439 0.013812 0.068659
v -0.047461 0.485117 0.047461
v -0.094490 0.426355 0.094490
v -0.104654 0.066940 0.104654
v -0.052549 0.013812 0.052549
v -0.135278 0.239584 0.135278
v -0.128971 0.146451 0.128971
v -0.123378 0.346164 0.123378
v -0.136737 0.066940 0.056638
v -0.068659 0.013812 0.028439
v -0.176749 0.239584 0.073212
v -0.168509 0.146451 0.069799
v -0.123457 0.426355 0.051137
v -0.161201 0.346164 0.066772
v -0.062011 0.485117 0.025686
v -0.023478 0.494912 -0.009725
v -0.032666 0.003516 -0.000000
v -0.030180 0.003516 -0.012501
v 0.000000 0.001173 -0.000000
v -0.017969 0.494912 -0.017969
v -0.023099 0.003516 -0.023099
v -0.012501 0.003516 -0.030180
v -0.009725 0.494912 -0.023478
v 0.000000 0.494912 -0.025413
v 0.000000 0.003516 -0.032666
v 0.012501 0.003516 -0.030180
v 0.023099 0.003516 -0.023099
v 0.009725 0.494912 -0.023478
v 0.030180 0.003516 -0.012501
v 0.017969 0.494912 -0.017969
v 0.023478 0.494912 -0.009725
v 0.032666 0.003516 -0.000000
v 0.025413 0.494912 0.000000
v 0.030180 0.003516 0.012501
v 0.023099 0.003516 0.023099
v 0.023478 0.494912 0.009725
v 0.012501 0.003516 0.030180
v 0.017969 0.494912 0.017969
v 0.009725 0.494912 0.023478
v 0.000000 0.003516 0.032666
v 0.000000 0.494912 0.025413
v -0.012501 0.003516 0.030180
v -0.023099 0.003516 0.023099
v -0.009725 0.494912 0.023478
v -0.023478 0.494912 0.009725
v -0.030180 0.003516 0.012501
v -0.025413 0.494912 0.000000
v -0.182393 0.146451 -0.000000
v 0.000000 0.498727 0.000000
v -0.017969 0.494912 0.017969
vt 0.185605 0.498887
vt 0.139204 0.498887
vt 0.139204 0.348799
vt 0.185605 0.801778
vt 0.139204 0.801778
vt 0.139204 0.673654
vt 0.139204 0.224978
vt 0.185605 0.224978
vt 0.185605 0.673654
vt 0.185605 0.914839
vt 0.139204 0.914839
vt 0.139204 0.100941
vt 0.185605 0.100941
vt 0.092802 0.348799
vt 0.092802 0.224978
vt 0.092802 0.673654
vt 0.092802 0.498887
vt 0.092802 0.914839
vt 0.092802 0.801778
vt 0.092802 0.100941
vt 0.046401 0.914839
vt 0.046401 0.801778
vt 0.046401 0.224978
vt 0.046401 0.100941
vt 0.046401 0.498887
vt 0.046401 0.348799
vt 0.046401 0.673654
vt 0.000000 0.224978
vt 0.000000 0.100941
vt 0.000000 0.498887
vt 0.000000 0.348799
vt 0.000000 0.801778
vt 0.000000 0.673654
vt 0.742419 0.914839
vt 0.742420 0.801778
vt 0.788821 0.801778
vt 0.696018 0.348799
vt 0.696018 0.224978
vt 0.742420 0.224978
vt 0.696018 0.673654
vt 0.696018 0.498887
vt 0.742420 0.498887
vt 0.696018 0.914839
vt 0.696018 0.801778
vt 0.696018 0.100941
vt 0.742420 0.100941
vt 0.742420 0.348799
vt 0.742420 0.673654
vt 0.649617 0.348799
vt 0.649617 0.224978
vt 0.649617 0.673654
vt 0.649617 0.498887
vt 0.649617 0.914839
vt 0.649617 0.801778
vt 0.649617 0.100941
vt 0.603216 0.224978
vt 0.603216 0.100941
vt 0.603216 0.498887
vt 0.603216 0.348799
vt 0.603216 0.801778
vt 0.603216 0.673654
vt 0.603216 0.914839
vt 0.556815 0.498887
vt 0.556815 0.348799
vt 0.556815 0.801778
vt 0.556815 0.673654
vt 0.556815 0.224978
vt 0.556815 0.914839
vt 0.556815 0.100941
vt 0.510413 0.348799
vt 0.510413 0.224978
vt 0.510413 0.673654
vt 0.510413 0.498887
vt 0.510413 0.914839
vt 0.510413 0.801778
vt 0.510413 0.100941
vt 0.464012 0.673654
vt 0.464012 0.498887
vt 0.464012 0.914839
vt 0.464012 0.801778
vt 0.464012 0.224978
vt 0.464012 0.100941
vt 0.464012 0.348799
vt 0.417611 0.224978
vt 0.417611 0.100941
vt 0.417611 0.498887
vt 0.417611 0.348799
vt 0.417611 0.801778
vt 0.417611 0.673654
vt 0.417611 0.914839
vt 0.371210 0.801778
vt 0.371210 0.673654
vt 0.371210 0.348799
vt 0.371210 0.224978
vt 0.371210 0.498887
vt 0.371210 0.914839
vt 0.371210 0.100941
vt 0.324809 0.348799
vt 0.324808 0.224978
vt 0.324809 0.673654
vt 0.324809 0.498887
vt 0.324809 0.914839
vt 0.324809 0.801778
vt 0.324808 0.100941
vt 0.278407 0.914839
vt 0.278407 0.801778
vt 0.278407 0.224978
vt 0.278407 0.100941
vt 0.278407 0.498887
vt 0.278407 0.348799
vt 0.278407 0.673654
vt 0.232006 0.224978
vt 0.232006 0.100941
vt 0.232006 0.498887
vt 0.232006 0.348799
vt 0.232006 0.801778
vt 0.232006 0.673654
vt 0.232006 0.914839
vt 0.139204 0.968341
vt 0.185605 0.043647
vt 0.139204 0.043647
vt 0.257580 0.000000
vt 0.092802 0.968341
vt 0.092803 0.043647
vt 0.046401 0.043647
vt 0.046401 0.968341
vt 0.742419 0.968341
vt 0.788821 0.914839
vt 0.000000 0.043647
vt 0.742420 0.043647
vt 0.696018 0.043647
vt 1.000000 0.000000
vt 0.649617 0.043647
vt 0.696018 0.968341
vt 0.603216 0.043647
vt 0.649617 0.968341
vt 0.603216 0.968341
vt 0.556814 0.043647
vt 0.556815 0.968341
vt 0.510413 0.043647
vt 0.464012 0.043647
vt 0.510413 0.968341
vt 0.417611 0.043647
vt 0.464012 0.968341
vt 0.417611 0.968341
vt 0.371210 0.043647
vt 0.371210 0.968341
vt 0.324808 0.043647
vt 0.278407 0.043647
vt 0.324809 0.968341
vt 0.232006 0.968341
vt 0.232006 0.043647
vt 0.185605 0.968341
vt 0.185605 0.348799
vt 0.380669 1.000000
vt 0.278407 0.968341
vt 0.788821 0.968341
vn -0.999500 0.030100 -0.000000
vn -0.923500 0.030100 -0.382500
vn -0.895800 -0.244600 -0.371100
vn -0.798900 0.601400 0.000000
vn -0.738100 0.601400 -0.305700
vn -0.880400 0.303200 -0.364700
vn -0.731400 -0.610900 -0.303000
vn -0.791700 -0.610900 -0.000000
vn -0.952900 0.303200 0.000000
vn -0.482600 0.875800 0.000000
vn -0.445900 0.875800 -0.184700
vn -0.405800 -0.898400 -0.168100
vn -0.439200 -0.898400 -0.000000
vn -0.685600 -0.244600 -0.685600
vn -0.559800 -0.610900 -0.559800
vn -0.673800 0.303200 -0.673800
vn -0.706800 0.030100 -0.706800
vn -0.341300 0.875800 -0.341300
vn -0.564900 0.601400 -0.564900
vn -0.310600 -0.898400 -0.310600
vn -0.184700 0.875800 -0.445900
vn -0.305700 0.601400 -0.738100
vn -0.303000 -0.610900 -0.731400
vn -0.168100 -0.898400 -0.405800
vn -0.382500 0.030100 -0.923500
vn -0.371100 -0.244600 -0.895800
vn -0.364700 0.303200 -0.880400
vn 0.000000 -0.610900 -0.791700
vn 0.000000 -0.898400 -0.439200
vn 0.000000 0.030100 -0.999500
vn 0.000000 -0.244600 -0.969600
vn -0.000000 0.601400 -0.798900
vn 0.000000 0.303200 -0.952900
vn -0.000000 0.875800 -0.482600
vn 0.371100 -0.244600 -0.895800
vn 0.303000 -0.610900 -0.731400
vn 0.364700 0.303200 -0.880400
vn 0.382500 0.030100 -0.923500
vn 0.184700 0.875800 -0.445900
vn 0.305700 0.601400 -0.738100
vn 0.168100 -0.898400 -0.405800
vn 0.685600 -0.244600 -0.685600
vn 0.559800 -0.610900 -0.559800
vn 0.673800 0.303200 -0.673800
vn 0.706800 0.030100 -0.706800
vn 0.341300 0.875800 -0.341300
vn 0.564900 0.601400 -0.564900
vn 0.310600 -0.898400 -0.310600
vn 0.731400 -0.610900 -0.303000
vn 0.405800 -0.898400 -0.168100
vn 0.923500 0.030100 -0.382500
vn 0.895800 -0.244600 -0.371100
vn 0.738100 0.601400 -0.305700
vn 0.880400 0.303200 -0.364700
vn 0.445900 0.875800 -0.184700
vn 0.999500 0.030100 0.000000
vn 0.969600 -0.244600 0.000000
vn 0.798900 0.601400 -0.000000
vn 0.952900 0.303200 0.000000
vn 0.791700 -0.610900 0.000000
vn 0.482600 0.875800 -0.000000
vn 0.439200 -0.898400 0.000000
vn 0.895800 -0.244600 0.371100
vn 0.731400 -0.610900 0.303000
vn 0.880400 0.303200 0.364700
vn 0.923500 0.030100 0.382500
vn 0.445900 0.875800 0.184700
vn 0.738100 0.601400 0.305700
vn 0.405800 -0.898400 0.168100
vn 0.673800 0.303200 0.673800
vn 0.706800 0.030100 0.706800
vn 0.341300 0.875800 0.341300
vn 0.564900 0.601400 0.564900
vn 0.559800 -0.610900 0.559800
vn 0.310600 -0.898400 0.310600
vn 0.685600 -0.244600 0.685600
vn 0.303000 -0.610900 0.731400
vn 0.168100 -0.898400 0.405800
vn 0.382500 0.030100 0.923500
vn 0.371100 -0.244600 0.895800
vn 0.305700 0.601400 0.738100
vn 0.364700 0.303200 0.880400
vn 0.184700 0.875800 0.445900
vn 0.000000 0.601400 0.798900
vn 0.000000 0.303200 0.952900
vn -0.000000 -0.244600 0.969600
vn 0.000000 -0.610900 0.791700
vn -0.000000 0.030100 0.999500
vn 0.000000 0.875800 0.482600
vn -0.000000 -0.898400 0.439200
vn -0.371100 -0.244600 0.895800
vn -0.303000 -0.610900 0.731400
vn -0.364700 0.303200 0.880400
vn -0.382500 0.030100 0.923500
vn -0.184700 0.875800 0.445900
vn -0.305700 0.601400 0.738100
vn -0.168100 -0.898400 0.405800
vn -0.341300 0.875800 0.341300
vn -0.564900 0.601400 0.564900
vn -0.559800 -0.610900 0.559800
vn -0.310600 -0.898400 0.310600
vn -0.706800 0.030100 0.706800
vn -0.685600 -0.244600 0.685600
vn -0.673800 0.303200 0.673800
vn -0.731400 -0.610900 0.303000
vn -0.405800 -0.898400 0.168100
vn -0.923500 0.030100 0.382500
vn -0.895800 -0.244600 0.371100
vn -0.738100 0.601400 0.305700
vn -0.880400 0.303200 0.364700
vn -0.445900 0.875800 0.184700
vn -0.178900 0.981100 -0.074100
vn -0.166700 -0.986000 -0.000000
vn -0.154000 -0.986000 -0.063800
vn 0.000000 -1.000000 -0.000000
vn -0.136900 0.981100 -0.136900
vn -0.117900 -0.986000 -0.117900
vn -0.063800 -0.986000 -0.154000
vn -0.074100 0.981100 -0.178900
vn 0.000000 0.981100 -0.193600
vn 0.000000 -0.986000 -0.166700
vn 0.063800 -0.986000 -0.154000
vn 0.117900 -0.986000 -0.117900
vn 0.074100 0.981100 -0.178900
vn 0.154000 -0.986000 -0.063800
vn 0.136900 0.981100 -0.136900
vn 0.178900 0.981100 -0.074100
vn 0.166700 -0.986000 0.000000
vn 0.193600 0.981100 -0.000000
vn 0.154000 -0.986000 0.063800
vn 0.117900 -0.986000 0.117900
vn 0.178900 0.981100 0.074100
vn 0.063800 -0.986000 0.154000
vn 0.136900 0.981100 0.136900
vn 0.074100 0.981100 0.178900
vn 0.000000 -0.986000 0.166700
vn -0.000000 0.981100 0.193600
vn -0.063800 -0.986000 0.154000
vn -0.117900 -0.986000 0.117900
vn -0.074100 0.981100 0.178900
vn -0.178900 0.981100 0.074100
vn -0.154000 -0.986000 0.063800
vn -0.193600 0.981100 -0.000000
vn -0.969600 -0.244600 -0.000000
vn 0.000000 1.000000 0.000000
vn -0.136900 0.981100 0.136900
s 1
f 1/1/1 2/2/2 3/3/3
f 4/4/4 5/5/5 6/6/6
f 3/3/3 7/7/7 8/8/8
f 9/9/9 6/6/6 2/2/2
f 10/10/10 11/11/11 5/5/5
f 7/7/7 12/12/12 13/13/13
f 14/14/14 15/15/15 7/7/7
f 16/16/16 17/17/17 2/2/2
f 18/18/18 19/19/19 5/5/5
f 15/15/15 20/20/20 12/12/12
f 2/2/2 17/17/17 14/14/14
f 19/19/19 16/16/16 6/6/6
f 21/21/21 22/22/22 19/19/19
f 15/15/15 23/23/23 24/24/24
f 25/25/25 26/26/26 14/14/14
f 22/22/22 27/27/27 16/16/16
f 26/26/26 23/23/23 15/15/15
f 27/27/27 25/25/25 17/17/17
f 28/28/28 29/29/29 24/24/24
f 30/30/30 31/31/31 26/26/26
f 32/32/32 33/33/33 27/27/27
f 31/31/31 28/28/28 23/23/23
f 33/33/33 30/30/30 25/25/25
f 34/34/34 32/35/32 22/36/22
f 35/37/35 36/38/36 28/39/28
f 37/40/37 38/41/38 30/42/30
f 34/34/34 39/43/39 40/44/40
f 36/38/36 41/45/41 29/46/29
f 38/41/38 35/37/35 31/47/31
f 40/44/40 37/40/37 33/48/33
f 42/49/42 43/50/43 36/38/36
f 44/51/44 45/52/45 38/41/38
f 46/53/46 47/54/47 40/44/40
f 43/50/43 48/55/48 41/45/41
f 38/41/38 45/52/45 42/49/42
f 47/54/47 44/51/44 37/40/37
f 43/50/43 49/56/49 50/57/50
f 45/52/45 51/58/51 52/59/52
f 53/60/53 54/61/54 44/51/44
f 52/59/52 49/56/49 43/50/43
f 54/61/54 51/58/51 45/52/45
f 55/62/55 53/60/53 47/54/47
f 56/63/56 57/64/57 52/59/52
f 53/60/53 58/65/58 59/66/59
f 57/64/57 60/67/60 49/56/49
f 54/61/54 59/66/59 56/63/56
f 55/62/55 61/68/61 58/65/58
f 60/67/60 62/69/62 50/57/50
f 63/70/63 64/71/64 60/67/60
f 65/72/65 66/73/66 56/63/56
f 67/74/67 68/75/68 58/65/58
f 64/71/64 69/76/69 62/69/62
f 56/63/56 66/73/66 63/70/63
f 68/75/68 65/72/65 59/66/59
f 70/77/70 71/78/71 66/73/66
f 67/74/67 72/79/72 73/80/73
f 64/71/64 74/81/74 75/82/75
f 66/73/66 71/78/71 76/83/76
f 73/80/73 70/77/70 65/72/65
f 76/83/76 74/81/74 64/71/64
f 77/84/77 78/85/78 75/82/75
f 71/78/71 79/86/79 80/87/80
f 73/80/73 81/88/81 82/89/82
f 80/87/80 77/84/77 74/81/74
f 82/89/82 79/86/79 71/78/71
f 83/90/83 81/88/81 73/80/73
f 84/91/84 85/92/85 82/89/82
f 86/93/86 87/94/87 77/84/77
f 85/92/85 88/95/88 79/86/79
f 89/96/89 84/91/84 81/88/81
f 87/94/87 90/97/90 78/85/78
f 88/95/88 86/93/86 80/87/80
f 91/98/91 92/99/92 87/94/87
f 93/100/93 94/101/94 88/95/88
f 95/102/95 96/103/96 84/91/84
f 92/99/92 97/104/97 90/97/90
f 94/101/94 91/98/91 86/93/86
f 84/91/84 96/103/96 93/100/93
f 95/102/95 98/105/98 99/106/99
f 100/107/100 101/108/101 97/104/97
f 102/109/102 103/110/103 91/98/91
f 99/106/99 104/111/104 93/100/93
f 103/110/103 100/107/100 92/99/92
f 104/111/104 102/109/102 94/101/94
f 100/107/100 105/112/105 106/113/106
f 102/109/102 107/114/107 108/115/108
f 109/116/109 110/117/110 104/111/104
f 108/115/108 105/112/105 100/107/100
f 104/111/104 110/117/110 107/114/107
f 111/118/111 109/116/109 99/106/99
f 112/119/112 11/11/11 10/10/10
f 113/120/113 114/121/114 115/122/115
f 116/123/116 18/18/18 11/11/11
f 114/121/114 117/124/117 115/122/115
f 117/124/117 118/125/118 115/122/115
f 119/126/119 21/21/21 18/18/18
f 120/127/120 34/34/34 21/128/21
f 118/125/118 121/129/121 115/122/115
f 39/43/39 34/34/34 120/127/120
f 121/130/121 122/131/122 115/132/115
f 122/131/122 123/133/123 115/132/115
f 46/53/46 39/43/39 124/134/124
f 123/133/123 125/135/125 115/132/115
f 55/62/55 46/53/46 126/136/126
f 61/68/61 55/62/55 127/137/127
f 125/135/125 128/138/128 115/122/115
f 67/74/67 61/68/61 129/139/129
f 128/138/128 130/140/130 115/122/115
f 130/140/130 131/141/131 115/122/115
f 72/79/72 67/74/67 132/142/132
f 131/141/131 133/143/133 115/122/115
f 83/90/83 72/79/72 134/144/134
f 89/96/89 83/90/83 135/145/135
f 133/143/133 136/146/136 115/122/115
f 95/102/95 89/96/89 137/147/137
f 136/146/136 138/148/138 115/122/115
f 138/148/138 139/149/139 115/122/115
f 98/105/98 95/102/95 140/150/140
f 141/151/141 111/118/111 98/105/98
f 139/149/139 142/152/142 115/122/115
f 143/153/143 10/10/10 111/118/111
f 108/115/108 144/154/144 8/8/8
f 9/9/9 1/1/1 107/114/107
f 10/10/10 4/4/4 109/116/109
f 142/152/142 113/120/113 115/122/115
f 105/112/105 8/8/8 13/13/13
f 1/1/1 144/154/144 108/115/108
f 4/4/4 9/9/9 110/117/110
f 145/155/145 143/153/143 141/151/141
f 145/155/145 141/151/141 146/156/146
f 145/155/145 146/156/146 140/150/140
f 145/155/145 140/150/140 137/147/137
f 145/155/145 137/147/137 135/145/135
f 145/155/145 135/145/135 134/144/134
f 145/155/145 134/144/134 132/142/132
f 145/155/145 132/142/132 129/139/129
f 145/155/145 129/139/129 127/137/127
f 145/155/145 127/137/127 126/136/126
f 145/155/145 126/136/126 124/134/124
f 145/155/145 124/134/124 120/127/120
f 145/155/145 120/127/120 119/157/119
f 145/155/145 119/126/119 116/123/116
f 145/155/145 116/123/116 112/119/112
f 145/155/145 112/119/112 143/153/143
f 106/113/106 13/13/13 113/120/113
f 106/113/106 142/152/142 139/149/139
f 101/108/101 139/149/139 138/148/138
f 97/104/97 138/148/138 136/146/136
f 90/97/90 136/146/136 133/143/133
f 78/85/78 133/143/133 131/141/131
f 75/82/75 131/141/131 130/140/130
f 69/76/69 130/140/130 128/138/128
f 62/69/62 128/138/128 125/135/125
f 48/55/48 50/57/50 125/135/125
f 48/55/48 123/133/123 122/131/122
f 29/46/29 41/45/41 122/131/122
f 24/24/24 29/29/29 121/129/121
f 20/20/20 24/24/24 118/125/118
f 12/12/12 20/20/20 117/124/117
f 12/12/12 114/121/114 113/120/113
f 144/154/144 1/1/1 3/3/3
f 9/9/9 4/4/4 6/6/6
f 144/154/144 3/3/3 8/8/8
f 1/1/1 9/9/9 2/2/2
f 4/4/4 10/10/10 5/5/5
f 8/8/8 7/7/7 13/13/13
f 3/3/3 14/14/14 7/7/7
f 6/6/6 16/16/16 2/2/2
f 11/11/11 18/18/18 5/5/5
f 7/7/7 15/15/15 12/12/12
f 3/3/3 2/2/2 14/14/14
f 5/5/5 19/19/19 6/6/6
f 18/18/18 21/21/21 19/19/19
f 20/20/20 15/15/15 24/24/24
f 17/17/17 25/25/25 14/14/14
f 19/19/19 22/22/22 16/16/16
f 14/14/14 26/26/26 15/15/15
f 16/16/16 27/27/27 17/17/17
f 23/23/23 28/28/28 24/24/24
f 25/25/25 30/30/30 26/26/26
f 22/22/22 32/32/32 27/27/27
f 26/26/26 31/31/31 23/23/23
f 27/27/27 33/33/33 25/25/25
f 21/128/21 34/34/34 22/36/22
f 31/47/31 35/37/35 28/39/28
f 33/48/33 37/40/37 30/42/30
f 32/35/32 34/34/34 40/44/40
f 28/39/28 36/38/36 29/46/29
f 30/42/30 38/41/38 31/47/31
f 32/35/32 40/44/40 33/48/33
f 35/37/35 42/49/42 36/38/36
f 37/40/37 44/51/44 38/41/38
f 39/43/39 46/53/46 40/44/40
f 36/38/36 43/50/43 41/45/41
f 35/37/35 38/41/38 42/49/42
f 40/44/40 47/54/47 37/40/37
f 48/55/48 43/50/43 50/57/50
f 42/49/42 45/52/45 52/59/52
f 47/54/47 53/60/53 44/51/44
f 42/49/42 52/59/52 43/50/43
f 44/51/44 54/61/54 45/52/45
f 46/53/46 55/62/55 47/54/47
f 51/58/51 56/63/56 52/59/52
f 54/61/54 53/60/53 59/66/59
f 52/59/52 57/64/57 49/56/49
f 51/58/51 54/61/54 56/63/56
f 53/60/53 55/62/55 58/65/58
f 49/56/49 60/67/60 50/57/50
f 57/64/57 63/70/63 60/67/60
f 59/66/59 65/72/65 56/63/56
f 61/68/61 67/74/67 58/65/58
f 60/67/60 64/71/64 62/69/62
f 57/64/57 56/63/56 63/70/63
f 58/65/58 68/75/68 59/66/59
f 65/72/65 70/77/70 66/73/66
f 68/75/68 67/74/67 73/80/73
f 69/76/69 64/71/64 75/82/75
f 63/70/63 66/73/66 76/83/76
f 68/75/68 73/80/73 65/72/65
f 63/70/63 76/83/76 64/71/64
f 74/81/74 77/84/77 75/82/75
f 76/83/76 71/78/71 80/87/80
f 70/77/70 73/80/73 82/89/82
f 76/83/76 80/87/80 74/81/74
f 70/77/70 82/89/82 71/78/71
f 72/79/72 83/90/83 73/80/73
f 81/88/81 84/91/84 82/89/82
f 80/87/80 86/93/86 77/84/77
f 82/89/82 85/92/85 79/86/79
f 83/90/83 89/96/89 81/88/81
f 77/84/77 87/94/87 78/85/78
f 79/86/79 88/95/88 80/87/80
f 86/93/86 91/98/91 87/94/87
f 85/92/85 93/100/93 88/95/88
f 89/96/89 95/102/95 84/91/84
f 87/94/87 92/99/92 90/97/90
f 88/95/88 94/101/94 86/93/86
f 85/92/85 84/91/84 93/100/93
f 96/103/96 95/102/95 99/106/99
f 92/99/92 100/107/100 97/104/97
f 94/101/94 102/109/102 91/98/91
f 96/103/96 99/106/99 93/100/93
f 91/98/91 103/110/103 92/99/92
f 93/100/93 104/111/104 94/101/94
f 101/108/101 100/107/100 106/113/106
f 103/110/103 102/109/102 108/115/108
f 99/106/99 109/116/109 104/111/104
f 103/110/103 108/115/108 100/107/100
f 102/109/102 104/111/104 107/114/107
f 98/105/98 111/118/111 99/106/99
f 143/153/143 112/119/112 10/10/10
f 112/119/112 116/123/116 11/11/11
f 116/123/116 119/126/119 18/18/18
f 119/157/119 120/127/120 21/128/21
f 124/134/124 39/43/39 120/127/120
f 126/136/126 46/53/46 124/134/124
f 127/137/127 55/62/55 126/136/126
f 129/139/129 61/68/61 127/137/127
f 132/142/132 67/74/67 129/139/129
f 134/144/134 72/79/72 132/142/132
f 135/145/135 83/90/83 134/144/134
f 137/147/137 89/96/89 135/145/135
f 140/150/140 95/102/95 137/147/137
f 146/156/146 98/105/98 140/150/140
f 146/156/146 141/151/141 98/105/98
f 141/151/141 143/153/143 111/118/111
f 105/112/105 108/115/108 8/8/8
f 110/117/110 9/9/9 107/114/107
f 111/118/111 10/10/10 109/116/109
f 106/113/106 105/112/105 13/13/13
f 107/114/107 1/1/1 108/115/108
f 109/116/109 4/4/4 110/117/110
f 142/152/142 106/113/106 113/120/113
f 101/108/101 106/113/106 139/149/139
f 97/104/97 101/108/101 138/148/138
f 90/97/90 97/104/97 136/146/136
f 78/85/78 90/97/90 133/143/133
f 75/82/75 78/85/78 131/141/131
f 69/76/69 75/82/75 130/140/130
f 62/69/62 69/76/69 128/138/128
f 50/57/50 62/69/62 125/135/125
f 123/133/123 48/55/48 125/135/125
f 41/45/41 48/55/48 122/131/122
f 121/130/121 29/46/29 122/131/122
f 118/125/118 24/24/24 121/129/121
f 117/124/117 20/20/20 118/125/118
f 114/121/114 12/12/12 117/124/117
f 13/13/13 12/12/12 113/120/113
