# Blender v2.75 (sub 0) OBJ File: ''
# www.blender.org
o Cube.002_Cube.004
v -0.178533 0.080000 -0.081000
v -0.200000 0.000000 -0.100000
v -0.200000 -0.000000 0.100000
v 0.178533 0.080000 -0.081000
v 0.200000 0.000000 -0.100000
v 0.178533 0.080000 0.081000
v 0.200000 -0.000000 0.100000
v -0.178533 0.080000 0.081000
vt 0.919056 0.721952
vt 0.963389 0.942224
vt 0.496722 0.942224
vt 0.992191 0.630888
vt 0.851621 0.666667
vt 0.851621 0.000000
vt 0.064875 0.947050
vt 0.016741 0.707898
vt 0.523408 0.707898
vt 0.831696 0.630396
vt 0.691127 0.666175
vt 0.691127 -0.000492
vt 0.018995 0.666667
vt 0.018995 0.000000
vt 0.360907 0.000000
vt 0.669777 0.000000
vt 0.669777 0.595109
vt 0.377442 0.595109
vt 0.541055 0.721952
vt 0.992191 0.035779
vt 0.475275 0.947050
vt 0.831696 0.035287
vt 0.360908 0.666667
vt 0.377442 0.000000
vn -0.965800 0.259200 0.000000
vn 0.000000 0.231100 -0.972900
vn 0.965800 0.259200 0.000000
vn 0.000000 0.231100 0.972900
vn 0.000000 -1.000000 -0.000000
vn 0.000000 1.000000 0.000000
s 1
f 1/1/1 2/2/1 3/3/1
f 4/4/2 5/5/2 2/6/2
f 6/7/3 7/8/3 5/9/3
f 8/10/4 3/11/4 7/12/4
f 2/13/5 5/14/5 7/15/5
f 4/16/6 1/17/6 8/18/6
f 8/19/1 1/1/1 3/3/1
f 1/20/2 4/4/2 2/6/2
f 4/21/3 6/7/3 5/9/3
f 6/22/4 8/10/4 7/12/4
f 3/23/5 2/13/5 7/15/5
f 6/24/6 4/16/6 8/18/6
